<?xml version="1.0" standalone="no"?>
<!DOCTYPE svg PUBLIC "-//W3C//DTD SVG 1.1//EN" "http://www.w3.org/Graphics/SVG/1.1/DTD/svg11.dtd" >
<svg>
<metadata>
Created by FontForge 20090914 at Mon Jul  8 19:56:43 2019
 By www-data
Copyright (c) 2019 by Creative LAB. All rights reserved.
</metadata>
<defs>
<font id="Heart" horiz-adv-x="833" >
  <font-face 
    font-family="Heart"
    font-weight="400"
    font-stretch="normal"
    units-per-em="1000"
    panose-1="2 0 5 7 2 0 0 2 0 4"
    ascent="750"
    descent="-250"
    x-height="362"
    cap-height="1289"
    bbox="-2255.99 -1284 2527 1813"
    underline-thickness="50"
    underline-position="-50"
    unicode-range="U+000D-U+E09C"
  />
<missing-glyph horiz-adv-x="334" 
 />
    <glyph glyph-name=".notdef" horiz-adv-x="334" 
 />
    <glyph glyph-name="NULL" horiz-adv-x="0" 
 />
    <glyph glyph-name="NULL" horiz-adv-x="0" 
 />
    <glyph glyph-name="nonmarkingreturn" unicode="&#xd;" horiz-adv-x="334" 
 />
    <glyph glyph-name="space" unicode=" " horiz-adv-x="334" 
 />
    <glyph glyph-name="exclam" unicode="!" horiz-adv-x="621" 
d="M86 -390c-10 0 -18.167 3 -24.5 9s-9.5 13.667 -9.5 23s3.16699 17.333 9.5 24s14.5 10 24.5 10c9.33301 0 17 -3.33301 23 -10s9 -14.667 9 -24s-3 -17 -9 -23s-13.667 -9 -23 -9zM75 -297c8.66699 61.333 23.9961 121.662 45.9961 180.995s47.167 116.333 75.5 171
s58.333 106.5 90 155.5l89.5 135.5l53 79.5c16.667 25.667 31.5 49.834 44.5 72.501s23.333 43.834 31 63.501s11.5 37.167 11.5 52.5c0 14 -3.16699 26.5 -9.5 37.5s-14.666 20.333 -24.999 28s-22.5 14 -36.5 19s-28.667 9.16699 -44 12.5c-4 0 -6 2.66699 -6 8
c0 2 0.666992 4 2 6s3.66602 3 6.99902 3c16.667 -3.33301 33.834 -7.66602 51.501 -12.999s33.5 -12.5 47.5 -21.5s25.5 -20.167 34.5 -33.5s13.5 -29.666 13.5 -48.999c0 -17.333 -3.66699 -35.666 -11 -54.999s-17.333 -40.333 -30 -63s-27.5 -46.667 -44.5 -72
l-54.5 -81l-99 -150c-32 -50 -61.167 -101.167 -87.5 -153.5s-49.166 -106.5 -68.499 -162.5s-33.333 -114.667 -42 -176c-1.33301 -3.33301 -3.66602 -5.83301 -6.99902 -7.5s-6.66602 -2.5 -9.99902 -2.5c-5.33301 0 -10.333 1.33301 -15 4s-7 6 -7 10v1z" />
    <glyph glyph-name="quotedbl" unicode="&#x22;" horiz-adv-x="293" 
d="M65 232c11.333 2 23 5.83301 35 11.5s23.667 12.334 35 20.001s21.833 16 31.5 25s17.5 18.167 23.5 27.5c-7.33301 4 -12.5 9 -15.5 15s-4.5 12.333 -4.5 19c0 9.33301 3.33301 17.666 10 24.999s15.667 11 27 11s20.166 -3.33301 26.499 -10s9.5 -15.667 9.5 -27
c0 -13.333 -6.33301 -27.833 -19 -43.5s-28.167 -30.167 -46.5 -43.5s-37.666 -24.5 -57.999 -33.5s-37.833 -13.833 -52.5 -14.5c-6 0 -9 3 -9 9c0 4.66699 2.33301 7.66699 7 9zM-70 232c11.333 2 23 5.83301 35 11.5s23.667 12.334 35 20.001s21.833 16 31.5 25
s17.5 18.167 23.5 27.5c-7.33301 4 -12.5 9 -15.5 15s-4.5 12.333 -4.5 19c0 9.33301 3.33301 17.666 10 24.999s15.667 11 27 11s20.166 -3.33301 26.499 -10s9.5 -15.667 9.5 -27c0 -13.333 -6.33301 -27.833 -19 -43.5s-28.167 -30.167 -46.5 -43.5
s-37.666 -24.5 -57.999 -33.5s-37.833 -13.833 -52.5 -14.5c-6 0 -9 3 -9 9c0 4.66699 2.33301 7.66699 7 9z" />
    <glyph glyph-name="numbersign" unicode="#" horiz-adv-x="561" 
d="M93 70c-5.33301 0 -9.50098 1.66797 -12.501 5.00098s-4.5 7.66602 -4.5 12.999c0 7.33301 5.33301 12.166 16 14.499s23 3.5 37 3.5c5.33301 0 10.333 -0.166992 15 -0.5s9.33398 -0.5 14.001 -0.5h13l19 55h-97c-5.33301 0 -9.5 1.66699 -12.5 5s-4.5 7.33301 -4.5 12
c0 7.33301 7.33301 12.166 22 14.499s31.334 3.5 50.001 3.5h32c5.33301 0 9.33301 -0.166992 12 -0.5s5.66699 -0.5 9 -0.5l56 170c3.33301 7.33301 9.33301 11 18 11c5.33301 0 9.5 -1.66699 12.5 -5s4.5 -7.66602 4.5 -12.999v-6l-52 -157h80l50 154
c1.33301 2.66699 3.66602 4.66699 6.99902 6s6.66602 2 9.99902 2c5.33301 0 9.33301 -1.83301 12 -5.5s4 -7.5 4 -11.5v-6l-44 -139c2.66699 0 4.83398 0.166992 6.50098 0.5s4.16699 0.5 7.5 0.5h29c16.667 0 31.334 -1.16699 44.001 -3.5s19 -7.16602 19 -14.499
s-6.33301 -12.333 -19 -15s-27.667 -4 -45 -4c-6 0 -11.833 0.166992 -17.5 0.5s-11.167 0.5 -16.5 0.5c-4.66699 0 -8.33398 0.166992 -11.001 0.5s-5.66699 0.5 -9 0.5l-19 -55h120c4.66699 0 8.66699 -1.5 12 -4.5s5 -7.16699 5 -12.5s-1.66699 -9.66602 -5 -12.999
s-7.33301 -5 -12 -5h-131l-56 -168c-2 -8 -7.66699 -12 -17 -12c-4.66699 0 -8.83398 1.83301 -12.501 5.5s-5.5 8.16699 -5.5 13.5v1c0 0.666992 0.333008 1.66699 1 3l52 157h-81c-8.66699 -24.667 -16.5 -48.667 -23.5 -72s-14.833 -47.333 -23.5 -72
c-6 -12 -12.333 -18 -19 -18c-5.33301 0 -9.66602 1.66699 -12.999 5s-5 7.66602 -5 12.999c0 1.33301 0.666992 3.33301 2 6h-1l46 138h-68zM210.999 105.001h80l17 55h-80z" />
    <glyph glyph-name="dollar" unicode="$" horiz-adv-x="535" 
d="M166 -111c-34.667 15.333 -59.166 38.502 -73.499 69.502s-21.5 64.5 -21.5 100.5c0 6 0.666992 15.667 2 29s3.33301 27 6 41s5.83398 26.167 9.50098 36.5s7.5 15.5 11.5 15.5c5.33301 -2 8 -5.66699 8 -11c-5.33301 -17.333 -9.83301 -35.166 -13.5 -53.499
s-5.5 -36.833 -5.5 -55.5s2.66699 -38 8 -58s13.5 -38.167 24.5 -54.5s25.167 -29.833 42.5 -40.5s38.333 -16 63 -16h4c2.66699 41.333 8.33398 83.166 17.001 125.499s19 84.5 31 126.5s25 83.5 39 124.5l41 120.5l12 34c-10 53.333 -19 103.666 -27 150.999
s-12 88 -12 122c0 32 5.66699 56.167 17 72.5s27.666 24.5 48.999 24.5c19.333 0 34.666 -7 45.999 -21s17 -35 17 -63c0 -18 -1.83301 -37.667 -5.5 -59s-8.16699 -42.333 -13.5 -63s-11 -40.334 -17 -59.001l-16 -48l-6 -17l9.5 -56.5
c3.66699 -21.667 7 -44.834 10 -69.501s5.66699 -50.5 8 -77.5s3.5 -54.167 3.5 -81.5c0 -38 -2.66699 -75 -8 -111s-15 -68 -29 -96s-33.167 -50.833 -57.5 -68.5s-55.5 -27.167 -93.5 -28.5c-0.666992 -6 -0.833984 -12.167 -0.500977 -18.5s0.5 -12.166 0.5 -17.499
c0 -46.667 6 -89.5 18 -128.5s33 -72.5 63 -100.5c2 -2 3 -4.33301 3 -7c0 -3.33301 -1.5 -6 -4.5 -8s-6.16699 -1.66699 -9.5 1c-32 30 -54.5 66 -67.5 108s-19.5 88 -19.5 138v33c-10.667 0.666992 -21.5 2.16699 -32.5 4.5s-21.167 5.83301 -30.5 10.5zM241.001 -105.998
l6 1v-6zM371.001 370.002l-39.501 -115.499c-13 -39.667 -25.333 -79.834 -37 -120.501s-21.667 -81.167 -30 -121.5s-14.166 -79.5 -17.499 -117.5c30 6.66699 54.5 19 73.5 37s34 39.833 45 65.5s18.667 54.167 23 85.5s6.5 63 6.5 95c0 37.333 -2 74 -6 110
s-8 68.333 -12 97zM390 481.003c0.666992 3.33301 1.5 6.5 2.5 9.5s2.16699 6.16699 3.5 9.5l3 -12l1 -8zM374 728.003c-1.33301 -5.33301 -1.99805 -10.667 -1.99805 -16v-16c0 -25.333 2.16699 -54.666 6.5 -87.999s10.166 -69.333 17.499 -108l2 6l14 45
c5.33301 17.333 10.333 35 15 53s8.66699 36 12 54s5 34.667 5 50c0 21.333 -3.83301 37.666 -11.5 48.999s-16.167 17 -25.5 17c-8.66699 0 -15.834 -4.83301 -21.501 -14.5s-9.5 -20.167 -11.5 -31.5z" />
    <glyph glyph-name="percent" unicode="%" horiz-adv-x="492" 
d="M211 806c-18.667 -2 -35.998 -8.83594 -51.998 -20.5029s-29.833 -27 -41.5 -46s-20.834 -40.833 -27.501 -65.5s-10 -51 -10 -79c0 -8.66699 0.666992 -17.667 2 -27s3.5 -18 6.5 -26s6.83301 -14.667 11.5 -20s10.334 -8 17.001 -8c8.66699 0 17.667 2.5 27 7.5
s18.333 11.5 27 19.5s16.834 17 24.501 27s14.5 20 20.5 30c-15.333 8.66699 -26.166 20.334 -32.499 35.001s-9.5 30.667 -9.5 48c0 12.667 1.66699 25.667 5 39s8 25.5 14 36.5s13 19.833 21 26.5s16.333 10 25 10c11.333 0 20.833 -5.83301 28.5 -17.5
s11.5 -26.5 11.5 -44.5c0 -20 -4.33301 -41.5 -13 -64.5s-17.334 -42.833 -26.001 -59.5c3.33301 -1.33301 6.66602 -2 9.99902 -2h10c18.667 0 37.5 5.16699 56.5 15.5s36.833 23.333 53.5 39s31.834 32.167 45.501 49.5s24.5 33 32.5 47h1
c0.666992 0 1.16699 0.166992 1.5 0.5s0.833008 0.5 1.5 0.5c2.66699 2.66699 6.66699 4 12 4s9.66602 -2 12.999 -6s5 -8 5 -12c0 -1.33301 -0.333008 -2.66602 -1 -3.99902l-2 -4c-39.333 -72.667 -79.833 -154.334 -121.5 -245.001l-126.5 -278l-68.5 -148.5
l-66.5 -145.5c-2.66699 -6.66699 -8.33398 -10 -17.001 -10c-12 0 -18 5.66699 -18 17c0 2.66699 0.666992 5.33398 2 8.00098l82.5 178l83.5 181l47.5 104.5l44.5 96l43.5 91l44.5 89.5c-20.667 -22.667 -44 -42.5 -70 -59.5s-52.333 -25.5 -79 -25.5
c-5.33301 0 -10.166 0.166992 -14.499 0.5s-8.83301 1.16602 -13.5 2.49902c-7.33301 -12.667 -15.666 -25 -24.999 -37s-19.333 -22.667 -30 -32s-22 -16.833 -34 -22.5s-24 -8.5 -36 -8.5c-7.33301 0 -15 2 -23 6s-15.333 10.167 -22 18.5s-12 19.5 -16 33.5s-6 31 -6 51
c0 24.667 3.66699 50.334 11 77.001s18.166 51 32.499 73s31.666 40 51.999 54s43.5 21 69.5 21c3.33301 0 6.66602 -0.333008 9.99902 -1s5 -3 5 -7c0 -3.33301 -2.33301 -6.66602 -7 -9.99902zM223.002 608.997l1.99805 4c0.666992 0 1.33398 -0.166992 2.00098 -0.5
s1.33398 -0.5 2.00098 -0.5zM192 679.997c0 -14 2.50098 -27 7.50098 -39s13.5 -21.333 25.5 -28c8 15.333 16.167 33.833 24.5 55.5s12.5 42.834 12.5 63.501c0 12.667 -2.33301 23.167 -7 31.5s-10 12.5 -16 12.5s-11.667 -3 -17 -9s-10.333 -13.5 -15 -22.5
s-8.33398 -19.333 -11.001 -31s-4 -22.834 -4 -33.501zM365.001 178.997c-24 -4 -44.3301 -13.334 -60.9971 -28.001s-30.5 -32 -41.5 -52s-19 -41.167 -24 -63.5s-7.5 -42.833 -7.5 -61.5c0 -32 4.16699 -55 12.5 -69s17.833 -21 28.5 -21c8 0 16.667 3 26 9
s18.166 13.5 26.499 22.5s16.166 18.5 23.499 28.5s13.666 19 18.999 27c-15.333 8.66699 -26.166 20.334 -32.499 35.001s-9.5 30.667 -9.5 48c0 18.667 2.33301 35 7 49s10.5 25.833 17.5 35.5s14.167 17 21.5 22s13.666 7.5 18.999 7.5
c11.333 0 20.833 -5.83301 28.5 -17.5s11.5 -27.5 11.5 -47.5c0 -16 -2.33301 -32.333 -7 -49c-4.66699 -15.333 -12.5 -34 -23.5 -56s-23.833 -43 -38.5 -63s-30.834 -37.167 -48.501 -51.5s-35.5 -21.5 -53.5 -21.5c-17.333 0 -33.166 8.83301 -47.499 26.5
s-21.5 46.167 -21.5 85.5c0 22 3.5 46 10.5 72s17.5 50.167 31.5 72.5s31.5 41.166 52.5 56.499s45.5 23 73.5 23c3.33301 0 6.5 -0.166992 9.5 -0.5s4.5 -3.16602 4.5 -8.49902c0 -3.33301 -1 -6 -3 -8zM374.004 -18.0039l2 5l3 -2zM343.004 52.9961
c0 -13.333 2.5 -26 7.5 -38s13.5 -21.333 25.5 -28c10 19.333 18.333 39.166 25 59.499s10 38.833 10 55.5c0 14.667 -2 26.334 -6 35.001s-9.33301 13 -16 13c-3.33301 0 -7.5 -2.16699 -12.5 -6.5s-10 -10.5 -15 -18.5s-9.33301 -18 -13 -30s-5.5 -26 -5.5 -42z" />
    <glyph glyph-name="ampersand" unicode="&#x26;" horiz-adv-x="859" 
d="M180 -120c-20.667 6.66699 -38.8252 16.3281 -54.4922 28.9951s-28.834 27.334 -39.501 44.001s-18.667 34.5 -24 53.5s-8 38.5 -8 58.5c0 32 6.5 64.833 19.5 98.5s28.833 63.5 47.5 89.5c14 19.333 30.667 36.833 50 52.5s40.166 29.834 62.499 42.501
s45.666 24 69.999 34l72.5 29c11.333 46.667 26.666 86.5 45.999 119.5s40.666 60.167 63.999 81.5c6 5.33301 13.333 11 22 17s18.167 11.667 28.5 17s21 9.66602 32 12.999s21.5 5 31.5 5c15.333 0 30 -5.66699 44 -17s21 -27.666 21 -48.999
c0 -15.333 -4.66699 -30.166 -14 -44.499s-21.666 -27.833 -36.999 -40.5s-32.333 -24.667 -51 -36s-37.334 -21.666 -56.001 -30.999s-36.167 -17.333 -52.5 -24s-29.833 -12 -40.5 -16c-4 -14 -7.33301 -29.167 -10 -45.5s-5 -31.833 -7 -46.5c5.33301 0.666992 10 1 14 1
h14c24 0 44.667 -3.83301 62 -11.5s31.5 -18 42.5 -31s19.167 -28.167 24.5 -45.5s8 -36 8 -56c0 -21.333 -2.83301 -43.333 -8.5 -66s-13.834 -44.834 -24.501 -66.501s-23.5 -42.167 -38.5 -61.5s-31.833 -36 -50.5 -50c20 -52 46 -88.833 78 -110.5
s64.333 -32.5 97 -32.5c18.667 0 36.667 3.33301 54 10s33.166 16 47.499 28s26.5 26.333 36.5 43s17 34.667 21 54c1.33301 4.66699 4.33301 7 9 7c5.33301 -2 8 -5.66699 8 -11c-3.33301 -22.667 -10.833 -43.167 -22.5 -61.5s-26 -34.166 -43 -47.499
s-36 -23.666 -57 -30.999s-42.5 -11 -64.5 -11c-37.333 0 -73.833 11.333 -109.5 34s-64.834 59 -87.501 109c-21.333 -12 -45.5 -21.333 -72.5 -28s-53.833 -10 -80.5 -10c-26 0 -50.667 3.66699 -74 11zM380.009 392.994l-10 -4l3 10zM358.009 314.994
c2 26.667 5.99609 51.335 11.9961 74.002c-37.333 -15.333 -72.666 -33.333 -105.999 -54s-62.5 -44.334 -87.5 -71.001s-44.833 -56.334 -59.5 -89.001s-22 -68.667 -22 -108c0 -31.333 5 -58.333 15 -81s23.167 -41.167 39.5 -55.5s35 -25 56 -32s42.167 -10.5 63.5 -10.5
c22.667 0 45.5 3 68.5 9s44.167 14.333 63.5 25c-17.333 47.333 -29.666 95.5 -36.999 144.5s-11 97.5 -11 145.5v37.5c0 12.333 0.666992 24.5 2 36.5l-7 -3h1c-5.33301 -2 -10.666 -4.16699 -15.999 -6.5s-11.333 -3.5 -18 -3.5
c-1.33301 0 -3.16602 0.833008 -5.49902 2.5s-3.5 3.83398 -3.5 6.50098c0 4.66699 5.33301 8.66699 16 12s20.667 6.66602 30 9.99902h-1l6 2c0 1.33301 0.166992 2.83301 0.5 4.5s0.5 3.16699 0.5 4.5zM395.005 299.995c0 -1.33301 -0.166992 -2.16797 -0.5 -2.50098
s-0.5 -1.16602 -0.5 -2.49902h-3zM425.005 297.993c-10 0 -20.332 -1.00391 -30.999 -3.00391c-1.33301 -13.333 -2 -26.666 -2 -39.999v-40c0 -47.333 3.16699 -93.666 9.5 -138.999s17.5 -89 33.5 -131c16.667 13.333 31.667 28.833 45 46.5s24.833 36.5 34.5 56.5
s17.167 40.5 22.5 61.5s8 41.167 8 60.5c0 17.333 -2.33301 33.833 -7 49.5s-11.834 29.334 -21.501 41.001s-22.167 20.834 -37.5 27.501s-33.333 10 -54 10zM411.006 423.989l9 3l-2 -9zM519.006 597.989c-20 -19.333 -38.499 -42.998 -55.499 -70.998
s-31.5 -61.333 -43.5 -100c10 4 22.667 9.5 38 16.5s31.5 14.833 48.5 23.5s33.833 18 50.5 28s31.667 20.667 45 32s24.166 23 32.499 35s12.5 24 12.5 36c0 14 -4.33301 25.333 -13 34s-18 13 -28 13c-7.33301 0 -15.166 -1.5 -23.499 -4.5s-16.5 -6.83301 -24.5 -11.5
s-15.333 -9.83398 -22 -15.501s-12.334 -10.834 -17.001 -15.501z" />
    <glyph glyph-name="quotesingle" unicode="'" horiz-adv-x="286" 
d="M33 240c11.333 2 23.168 5.66895 35.501 11.002s24.166 11.833 35.499 19.5s21.833 16.167 31.5 25.5s17.5 18.666 23.5 27.999c-7.33301 4 -12.5 9 -15.5 15s-4.5 12.333 -4.5 19c0 9.33301 3.33301 17.666 10 24.999s15.334 11 26.001 11c24.667 0 37 -12.333 37 -37
c0 -13.333 -6.33301 -27.833 -19 -43.5s-28.334 -30.167 -47.001 -43.5s-38.167 -24.5 -58.5 -33.5s-37.833 -13.833 -52.5 -14.5c-6 0 -9 3 -9 9c0 4.66699 2.33301 7.66699 7 9z" />
    <glyph glyph-name="parenleft" unicode="(" horiz-adv-x="410" 
d="M129 -547c-28 23.333 -47.8311 55.165 -59.498 95.498s-17.5 84.833 -17.5 133.5c0 45.333 4 92.5 12 141.5s17.667 96.5 29 142.5s23.333 88.5 36 127.5s24 71.167 34 96.5c14 38 32.667 82.833 56 134.5s50.166 105.167 80.499 160.5s63.833 110.166 100.5 164.499
s75.5 103.666 116.5 147.999s84.167 80.833 129.5 109.5s91.333 45.334 138 50.001c6.66699 0 10 -2.66699 10 -8c0 -4.66699 -2.66699 -7.66699 -8 -9c-42 -10.667 -83.333 -31.167 -124 -61.5s-80 -67.166 -118 -110.499s-74.167 -90.666 -108.5 -141.999
s-65.833 -103.166 -94.5 -155.499s-54.334 -102.833 -77.001 -151.5s-41.334 -91.667 -56.001 -129c-10 -27.333 -22 -62.333 -36 -105s-27.333 -88.5 -40 -137.5s-23.5 -99 -32.5 -150s-13.5 -98.833 -13.5 -143.5c0 -40 4.33301 -76.667 13 -110s23 -61 43 -83
c0 -6.66699 -2.66699 -10 -8 -10h-2c-1.33301 0 -2.66602 0.666992 -3.99902 2h1z" />
    <glyph glyph-name="parenright" unicode=")" horiz-adv-x="412" 
d="M-393 -542c0 2 0.832031 3.99805 2.49902 5.99805s3.83398 3 6.50098 3c42 8.66699 83.5 28 124.5 58s80.333 66.5 118 109.5s73.5 90.333 107.5 142s65.333 103.834 94 156.501s54.167 103.667 76.5 153s41.166 93 56.499 131c10 27.333 22 62.166 36 104.499
s27.333 88 40 137s23.334 99.167 32.001 150.5s13 99 13 143c0 40.667 -4 77.5 -12 110.5s-22.667 60.167 -44 81.5c0 -0.666992 -0.666992 0.333008 -2 3c0 6.66699 2.66699 10 8 10c2 0 3.66699 -0.333008 5 -1s3 -1.66699 5 -3c28 -23.333 47.833 -54.833 59.5 -94.5
s17.5 -83.5 17.5 -131.5c0 -46 -4 -93.5 -12 -142.5s-17.833 -96.5 -29.5 -142.5s-23.834 -88.667 -36.501 -128s-24 -71.666 -34 -96.999c-14 -38 -32.667 -82.833 -56 -134.5s-50.166 -105 -80.499 -160s-63.833 -109.667 -100.5 -164s-75.667 -103.666 -117 -147.999
s-84.5 -81 -129.5 -110s-90.833 -45.833 -137.5 -50.5c-7.33301 0 -11 2.66699 -11 8z" />
    <glyph glyph-name="asterisk" unicode="*" horiz-adv-x="275" 
d="M137 236c-0.666992 -3.33301 -2.66699 -5.83496 -6 -7.50195s-6.66602 -2.5 -9.99902 -2.5c-6 1.33301 -9 5 -9 11c0 2.66699 0.333008 4.66699 1 6l6 33l-13.5 -12c-3.66699 -3.33301 -8.16699 -7 -13.5 -11h1c-2 -2 -5 -3 -9 -3c-8.66699 0 -13 4.66699 -13 14
c0 4 2 7 6 9h-1l28 22c-7.33301 0 -13.333 0.333008 -18 1s-10.334 1 -17.001 1c-8 0 -12 3.66699 -12 11c0 2.66699 0.833008 5.33398 2.5 8.00098s5.16699 4 10.5 4l42 -1l-14 16l-14 16v-1c-2 0.666992 -3 3.66699 -3 9c0 8 4 12 12 12
c1.33301 0 2.83301 -0.166992 4.5 -0.5s3.5 -1.5 5.5 -3.5l28 -33c1.33301 7.33301 2.83301 14.833 4.5 22.5s3.16699 15.167 4.5 22.5c1.33301 4.66699 5.33301 7 12 7c3.33301 0 6.33301 -1 9 -3s4 -5.66699 4 -11l-8 -37l14 12.5c4 3.66699 8.66699 7.5 14 11.5h-1
c2 2 4.66699 3 8 3c4 0 7.16699 -1.33301 9.5 -4s3.5 -5.66699 3.5 -9c0 -4 -0.333008 -6.33301 -1 -7l-30 -25c5.33301 0 10.833 -0.166992 16.5 -0.5s11.5 -0.5 17.5 -0.5c3.33301 0 6.16602 -1.16699 8.49902 -3.5s3.5 -5.16602 3.5 -8.49902c0 -8.66699 -4 -13 -12 -13
l-42 2l27 -32v1l2 -4c0.666992 -1.33301 1 -3 1 -5c0 -2.66699 -1.16699 -5.16699 -3.5 -7.5s-5.16602 -3.5 -8.49902 -3.5c-4 0 -7 1.66699 -9 5v-1l-29 34z" />
    <glyph glyph-name="plus" unicode="+" horiz-adv-x="610" 
d="M508 151c5.33301 0 10 -2 14 -6s6 -8.66699 6 -14s-2 -10 -6 -14s-8.66699 -6 -14 -6h-203v-203c0 -5.33301 -2 -9.83301 -6 -13.5s-8.66699 -5.5 -14 -5.5s-10.166 1.83301 -14.499 5.5s-6.5 8.16699 -6.5 13.5v203h-202c-5.33301 0 -10 2 -14 6s-6 8.66699 -6 14
s2 10 6 14s8.66699 6 14 6h202v203c0 5.33301 2.16699 10 6.5 14s9.16602 6 14.499 6s10 -2 14 -6s6 -8.66699 6 -14v-203h203z" />
    <glyph glyph-name="comma" unicode="," 
d="M232 -217c11.333 2 23 5.83301 35 11.5s23.667 12.5 35 20.5s21.833 16.5 31.5 25.5s17.5 18.167 23.5 27.5c-7.33301 4.66699 -12.5 10 -15.5 16s-4.5 11.667 -4.5 17c0 9.33301 3.33301 17.833 10 25.5s15.667 11.5 27 11.5s20.166 -3.5 26.499 -10.5
s9.5 -16.167 9.5 -27.5c0 -13.333 -6.33301 -27.833 -19 -43.5s-28.167 -30.167 -46.5 -43.5s-37.666 -24.5 -57.999 -33.5s-37.833 -13.833 -52.5 -14.5c-6 0 -9 3 -9 9c0 4.66699 2.33301 7.66699 7 9z" />
    <glyph glyph-name="hyphen" unicode="-" horiz-adv-x="755" 
d="M584 192c4.66699 0 9 -1.5 13 -4.5s6 -7.16699 6 -12.5c0 -4.66699 -2 -8.33398 -6 -11.001s-8.33301 -4 -13 -4h-506c-4.66699 0 -9 1.33301 -13 4s-6 6.33398 -6 11.001c0 5.33301 2 9.5 6 12.5s8.33301 4.5 13 4.5h506z" />
    <glyph glyph-name="period" unicode="." horiz-adv-x="237" 
d="M87 -98c0 10.667 3.33301 19.667 10 27s15.667 11 27 11c10.667 0 19.667 -3.66699 27 -11s11 -16.333 11 -27s-3.66699 -19.5 -11 -26.5s-16.333 -10.5 -27 -10.5c-11.333 0 -20.333 3.5 -27 10.5s-10 15.833 -10 26.5z" />
    <glyph glyph-name="slash" unicode="/" horiz-adv-x="550" 
d="M440 897c2 3.33301 4.99902 6.5 8.99902 9.5s7.66699 4.5 11 4.5c6 0 10.833 -2.16699 14.5 -6.5s5.5 -9.16602 5.5 -14.499c0 -2 -0.666992 -4.33301 -2 -7h1l-471 -1359c-1.33301 -3.33301 -3.83301 -6.5 -7.5 -9.5s-7.16699 -4.5 -10.5 -4.5
c-5.33301 0 -10.166 2.16699 -14.499 6.5s-6.5 9.16602 -6.5 14.499c0 2 0.666992 4.33301 2 7h-1z" />
    <glyph glyph-name="zero" unicode="0" horiz-adv-x="717" 
d="M100 -17c-1.33301 9.33301 -2.50098 19.3379 -3.50098 30.0049s-1.5 21.667 -1.5 33c0 54.667 6.83301 114.834 20.5 180.501s32.167 131.5 55.5 197.5s50.5 130 81.5 192s63.5 116.833 97.5 164.5s68.667 86 104 115s69.333 43.5 102 43.5
c27.333 0 47.333 -9.5 60 -28.5s19 -41.167 19 -66.5c0 -15.333 -1.66699 -31.333 -5 -48s-7.66602 -32.834 -12.999 -48.501s-11.166 -30.334 -17.499 -44.001s-12.5 -25.5 -18.5 -35.5c9.33301 -16 16.333 -34.833 21 -56.5s7 -44.834 7 -69.501
c0 -36 -4.33301 -75 -13 -117s-20.5 -84.333 -35.5 -127s-32.5 -84.834 -52.5 -126.501s-41.167 -80.334 -63.5 -116.001s-45.666 -67.5 -69.999 -95.5s-47.833 -49.333 -70.5 -64c-31.333 -20 -61 -30 -89 -30c-28.667 0 -53.334 9.66699 -74.001 29
s-34.334 48.666 -41.001 87.999zM440.999 844.005c-23.333 -24.667 -46.999 -55.8311 -70.999 -93.498s-47.333 -79.334 -70 -125.001s-44 -93.834 -64 -144.501s-37.5 -101.334 -52.5 -152.001s-26.833 -99.834 -35.5 -147.501s-13 -91.5 -13 -131.5
c0 -54 8 -94.667 24 -122s37.667 -41 65 -41c22.667 0 45.667 7.66699 69 23c21.333 14 43.666 34.333 66.999 61s46 57.334 68 92.001s43 72.334 63 113.001s37.5 82.167 52.5 124.5s26.833 84 35.5 125s13 79.5 13 115.5c0 51.333 -9.66699 92.666 -29 123.999
c-2 2 -2 4 0 6c5.33301 8.66699 11 19.667 17 33s11.667 27.833 17 43.5s9.83301 31.834 13.5 48.501s5.5 32.667 5.5 48c0 18.667 -4.16699 36 -12.5 52s-21.833 24 -40.5 24c-11.333 0 -23 -2.83301 -35 -8.5s-23.5 -12.5 -34.5 -20.5s-21 -16.333 -30 -25z" />
    <glyph glyph-name="one" unicode="1" 
d="M14 -55c0 2 0.663086 3.99707 1.99609 5.99707s3.33301 3 6 3c4.66699 0 7.33398 -1.33301 8.00098 -4s1 -5.33398 1 -8.00098c0 -16 4.83301 -27.833 14.5 -35.5s21.167 -11.5 34.5 -11.5c8 0 16.5 1.33301 25.5 4s17.833 7.33398 26.5 14.001
c10.667 8 22.5 21.333 35.5 40s26.5 40.334 40.5 65.001s28.333 51.5 43 80.5l42.5 87.5l38.5 85l33 74l24 57l88 191.5c28.667 61.667 58.334 120.167 89.001 175.5l-93 -19c-32 -6.66699 -60.667 -17.334 -86 -32.001h1c-1.33301 -1.33301 -3.66602 -2 -6.99902 -2
c-2.66699 0 -4.66699 1.16699 -6 3.5s-2 4.16602 -2 5.49902c0 2.66699 0.333008 4.33398 1 5.00098c25.333 16 53.5 27.5 84.5 34.5s60.5 13.167 88.5 18.5l29 6l19.5 31c9.66699 15.333 20.834 31 33.501 47s26.167 30.333 40.5 43s27.833 19 40.5 19
c10.667 0 19.5 -4.16699 26.5 -12.5s10.5 -19.166 10.5 -32.499c0 -9.33301 -2.5 -19.166 -7.5 -29.499s-13 -20.5 -24 -30.5s-25 -19.167 -42 -27.5s-37.833 -15.166 -62.5 -20.499l-41.5 -78l-46 -94.5l-48 -103.5l-47.5 -105l-28.5 -67.5l-42.5 -99.5
c-16 -36.667 -33.5 -74.5 -52.5 -113.5s-38.833 -75.167 -59.5 -108.5s-41.5 -61.833 -62.5 -85.5s-41.5 -38.5 -61.5 -44.5c-8.66699 -2.66699 -18.667 -4 -30 -4c-22 0 -40.333 6.16699 -55 18.5s-22 30.5 -22 54.5zM713.996 907.997c-6.66699 0 -14.5 -4.5 -23.5 -13.5
s-17.833 -19.5 -26.5 -31.5s-16.667 -24.333 -24 -37l-17 -29c20.667 4.66699 37.834 10.5 51.501 17.5s24.667 14.5 33 22.5s14.166 16 17.499 24s5 15.333 5 22c0 7.33301 -1.66699 13.333 -5 18s-7 7 -11 7z" />
    <glyph glyph-name="two" unicode="2" horiz-adv-x="862" 
d="M508 718c0 -2.66699 -1.00293 -4.66699 -3.00293 -6s-4 -2 -6 -2s-4.16699 1 -6.5 3s-3.5 4.33301 -3.5 7c2.66699 24 9.83398 49 21.501 75s26.5 49.667 44.5 71s38 38.833 60 52.5s44.667 20.5 68 20.5c18 0 33.167 -3.33301 45.5 -10s22.5 -15.5 30.5 -26.5
s13.833 -23.5 17.5 -37.5s5.5 -28.333 5.5 -43c0 -4.66699 -0.166992 -9 -0.5 -13s-0.833008 -8.33301 -1.5 -13c-6.66699 -42 -18.5 -87 -35.5 -135s-37.667 -96.833 -62 -146.5s-51.666 -99.334 -81.999 -149.001s-62 -97.667 -95 -144s-66.5 -90 -100.5 -131
s-67 -77.167 -99 -108.5c21.333 -3.33301 41.833 -6.16602 61.5 -8.49902s39.5 -3.5 59.5 -3.5c29.333 0 57.833 3.5 85.5 10.5s53.667 19.5 78 37.5s47.166 42.167 68.499 72.5s40.333 69.166 57 116.499c2 2 4.33301 3 7 3c6 0 9 -3.66699 9 -11
c-17.333 -49.333 -37.166 -89.833 -59.499 -121.5s-46.5 -56.667 -72.5 -75s-53.5 -31.166 -82.5 -38.499s-59.167 -11 -90.5 -11c-22.667 0 -45.5 1.16699 -68.5 3.5s-46.167 5.5 -69.5 9.5c-37.333 -36 -71.333 -61 -102 -75s-57.667 -21 -81 -21
s-41.666 5.83301 -54.999 17.5s-20 26.167 -20 43.5c0 13.333 3 25 9 35s14 18.167 24 24.5s21.333 11.166 34 14.499s25.667 5 39 5c18 0 36.333 -1.66699 55 -5s36 -6.66602 52 -9.99902l22 -5c30.667 30.667 62.667 66.167 96 106.5s66.333 83.5 99 129.5
s64.334 94 95.001 144s58.5 99.833 83.5 149.5s46.333 98.334 64 146.001s29.834 92.167 36.501 133.5c0.666992 3.33301 1 7.16602 1 11.499v11.5c0 11.333 -1 22.833 -3 34.5s-5.66699 22.167 -11 31.5s-12.333 17 -21 23s-19.667 9 -33 9c-18 0 -36.333 -6.33301 -55 -19
s-35.834 -29 -51.501 -49s-28.834 -41.833 -39.501 -65.5s-17 -46.5 -19 -68.5zM234.997 -22c-15.333 3.33301 -31.502 6.66895 -48.502 10.002s-33.5 5 -49.5 5c-10 0 -20.167 -1.16699 -30.5 -3.5s-19.666 -5.83301 -27.999 -10.5s-15.166 -10.834 -20.499 -18.501
s-8 -16.5 -8 -26.5c0 -11.333 4.16699 -21.333 12.5 -30s19.833 -13 34.5 -13c12.667 0 26.167 3 40.5 9s28.5 13.5 42.5 22.5s27.167 18.167 39.5 27.5s22.5 17.666 30.5 24.999z" />
    <glyph glyph-name="three" unicode="3" horiz-adv-x="899" 
d="M136 213c0.666992 0 1.1582 0.162109 1.49121 0.495117s0.833008 0.5 1.5 0.5c2 0 4 -0.666992 6 -2s3 -3.66602 3 -6.99902c0 -2 -1.33301 -4.33301 -4 -7c-24 -21.333 -43.333 -46.333 -58 -75s-22 -58 -22 -88c0 -17.333 3.66699 -34.833 11 -52.5
s18.333 -33.667 33 -48s32.834 -26 54.501 -35s46.834 -13.5 75.501 -13.5c26.667 0 53.667 4.5 81 13.5s53.5 20.833 78.5 35.5s48.5 31.334 70.5 50.001s41.667 37.334 59 56.001c22 26 46.167 58.333 72.5 97s50.666 79.667 72.999 123s41 87.833 56 133.5
s22.5 88.5 22.5 128.5c0 24.667 -2.83301 48 -8.5 70s-15.5 42.667 -29.5 62c-5.33301 -3.33301 -12.666 -7 -21.999 -11s-19.333 -7.83301 -30 -11.5s-21.667 -6.66699 -33 -9s-21.666 -3.5 -30.999 -3.5c-14 0 -24.5 3 -31.5 9s-10.5 13 -10.5 21c0 6.66699 3 13.667 9 21
s13.833 14.166 23.5 20.499s20.834 11.5 33.501 15.5s25.667 6 39 6c21.333 0 40.666 -5.66699 57.999 -17c10 8 20.167 18 30.5 30s20 24.833 29 38.5s16.333 27.667 22 42s8.5 28.5 8.5 42.5c0 22 -6.33301 37.667 -19 47s-25.667 14 -39 14
c-27.333 0 -55.166 -10.167 -83.499 -30.5s-51.5 -46.166 -69.5 -77.499c-1.33301 -4 -4 -6 -8 -6c-5.33301 0 -7.66602 3.66699 -6.99902 11c20.667 36 47 65.5 79 88.5s65.667 34.5 101 34.5c10 0 20 -1.33301 30 -4s19 -7.33398 27 -14.001s14.5 -15.167 19.5 -25.5
s7.5 -22.833 7.5 -37.5c0 -15.333 -3.33301 -31.166 -10 -47.499s-15 -32.166 -25 -47.499s-21 -29.833 -33 -43.5s-23.667 -25.5 -35 -35.5c17.333 -19.333 29.833 -41.666 37.5 -66.999s11.5 -52.333 11.5 -81c0 -43.333 -7.83301 -89 -23.5 -137
s-35.167 -94.5 -58.5 -139.5s-48.333 -86.833 -75 -125.5s-51 -70 -73 -94c-19.333 -21.333 -41.166 -41.833 -65.499 -61.5s-50.166 -37.167 -77.499 -52.5s-55.666 -27.666 -84.999 -36.999s-58.666 -14 -87.999 -14c-32 0 -60.333 5 -85 15s-45.5 23.167 -62.5 39.5
s-29.833 34.5 -38.5 54.5s-13 40 -13 60c0 32 7.83301 63.667 23.5 95s36.167 58.666 61.5 81.999zM697.991 671.995l-6 4l6 4v-8zM590.991 638.995c6.66699 0 14.8301 1.33398 24.4971 4.00098s19.334 6 29.001 10s18.834 8.16699 27.501 12.5s15.334 7.83301 20.001 10.5
c-6.66699 5.33301 -14 9.16602 -22 11.499s-15.667 3.5 -23 3.5c-19.333 0 -36.333 -4.66699 -51 -14s-22 -18.333 -22 -27c0 -7.33301 5.66699 -11 17 -11z" />
    <glyph glyph-name="four" unicode="4" horiz-adv-x="633" 
d="M279 -133c17.333 34.667 36.165 75.001 56.498 121.001l61.5 142.5l60.5 146l52.5 131.5c-34 -54 -68.833 -104.833 -104.5 -152.5s-70.5 -89.5 -104.5 -125.5l-36 -35c-16 -15.333 -33.5 -30.5 -52.5 -45.5s-38.833 -28.167 -59.5 -39.5s-39.334 -17 -56.001 -17
c-10.667 0 -19.667 2 -27 6s-13.333 9.16699 -18 15.5s-8 13.333 -10 21s-3 15.167 -3 22.5c0 19.333 3.66699 39.333 11 60s14.333 38 21 52c10 22 21.833 45.5 35.5 70.5l43 77l46.5 80l47 78.5l22 35l44.5 69.5c17 27 33.333 55.333 49 85s28.834 59.334 39.501 89.001
s16 56.5 16 80.5c0 27.333 -7.66699 47.833 -23 61.5s-32.666 20.5 -51.999 20.5c-14.667 0 -29 -3 -43 -9s-26.5 -14.167 -37.5 -24.5s-19.833 -22.833 -26.5 -37.5s-10 -30.334 -10 -47.001c0 -6.66699 0.333008 -11.667 1 -15c0 -6.66699 -2.66699 -10 -8 -10
s-8.5 2.83301 -9.5 8.5s-1.5 11.167 -1.5 16.5c0 21.333 4.33301 40.5 13 57.5s20 31.5 34 43.5s29.833 21.167 47.5 27.5s35.5 9.5 53.5 9.5c32.667 0 57.334 -9.66699 74.001 -29s25 -43 25 -71c0 -25.333 -5.16699 -52.833 -15.5 -82.5s-23 -59.334 -38 -89.001
s-31 -58.334 -48 -86.001l-44.5 -72.5l-26 -41l-91 -153.5c-30.667 -52.333 -56.667 -102.5 -78 -150.5l-10 -22.5c-4 -9 -8 -18.833 -12 -29.5s-7.16699 -21.5 -9.5 -32.5s-3.5 -21.167 -3.5 -30.5c0 -22 10 -33 30 -33c14.667 0 31.334 5.5 50.001 16.5
s36.667 23.5 54 37.5s32.833 27.833 46.5 41.5l28.5 28.5l3 4v-1c22 22.667 44.667 48.5 68 77.5s46.5 59.833 69.5 92.5s45.333 66.667 67 102s42.167 70.666 61.5 105.999c2 2.66699 5.33301 4.66699 10 6s9.66699 2 15 2s9.5 -0.833008 12.5 -2.5
s3.83301 -5.16699 2.5 -10.5l-70.5 -172.5l-72 -172.5l-69.5 -158.5c-22.667 -49.667 -43.334 -92.834 -62.001 -129.501c11.333 2.66699 22.833 4.66699 34.5 6l33.5 4c2.66699 0 4.66699 -1.16699 6 -3.5s2 -4.5 2 -6.5c0 -2.66699 -3.83301 -5.16699 -11.5 -7.5
s-16.5 -4.16602 -26.5 -5.49902c-8.66699 -1.33301 -17.5 -2.83301 -26.5 -4.5s-16.167 -3.16699 -21.5 -4.5l-15 -30c-14.667 -28 -27.5 -50.667 -38.5 -68s-24.5 -26 -40.5 -26c-9.33301 0 -15.833 3.33301 -19.5 10s-5.5 13.334 -5.5 20.001c0 11.333 2.5 22 7.5 32
s11.5 19.333 19.5 28s17.167 16.334 27.5 23.001s20.833 12.667 31.5 18zM224.999 -229.999c7.33301 9.33301 14.334 19.833 21.001 31.5s13.667 25.167 21 40.5c-15.333 -8.66699 -29.166 -20 -41.499 -34s-18.5 -28.667 -18.5 -44c0 -2 0.166992 -4 0.5 -6
s1.16602 -3 2.49902 -3s3.16602 1 5.49902 3s5.5 6 9.5 12z" />
    <glyph glyph-name="five" unicode="5" 
d="M95 240c6 0 9.00195 -3.99707 9.00195 -11.9971c-12.667 -22.667 -22 -45 -28 -67s-9 -43 -9 -63c0 -29.333 5.5 -57 16.5 -83s25.667 -48.5 44 -67.5s40 -34 65 -45s51.5 -16.5 79.5 -16.5c39.333 0 76.333 9.83301 111 29.5s65 45.334 91 77.001s46.5 67 61.5 106
s22.5 77.833 22.5 116.5c0 34.667 -7.16699 68.5 -21.5 101.5s-35.5 61.833 -63.5 86.5c-26 20 -56.333 35 -91 45s-69 15 -103 15c-7.33301 0 -14.5 -0.166992 -21.5 -0.5s-13.833 -0.833008 -20.5 -1.5c-2 0 -3.66699 0.666992 -5 2s-1.33301 3 0 5
c22.667 50 44.334 101 65.001 153s38.667 103.667 54 155c-14 9.33301 -25.167 22.166 -33.5 38.499s-12.5 33.166 -12.5 50.499c0 21.333 6 38.833 18 52.5s26 20.5 42 20.5c13.333 0 24.5 -5.16699 33.5 -15.5s13.5 -26.166 13.5 -47.499
c0 -16.667 -2.16699 -33.834 -6.5 -51.501s-8.83301 -33.834 -13.5 -48.501c12.667 -4 25.667 -6.83301 39 -8.5s27.666 -2.5 42.999 -2.5c28 0 56.833 3 86.5 9s57.834 14.667 84.501 26s50.667 25.5 72 42.5s37.666 36.5 48.999 58.5h1
c0.666992 0 1.16699 0.166992 1.5 0.5s1.16602 0.5 2.49902 0.5c2 0 4 -0.833008 6 -2.5s3 -4.16699 3 -7.5c-12 -23.333 -29.333 -43.833 -52 -61.5s-48 -32.834 -76 -45.501s-57.5 -22.167 -88.5 -28.5s-60.833 -9.5 -89.5 -9.5c-15.333 0 -30.5 1 -45.5 3
s-28.833 5 -41.5 9c-15.333 -47.333 -32.333 -94.166 -51 -140.499l-58 -138.5h4c2 0 4.16699 0.166992 6.5 0.5s4.5 0.5 6.5 0.5c46.667 0 88.667 -7.66699 126 -23s69 -35.5 95 -60.5s46 -53.5 60 -85.5s21 -65 21 -99c0 -42.667 -8.33301 -84.667 -25 -126
s-39.334 -78.5 -68.001 -111.5s-62.167 -59.667 -100.5 -80s-78.833 -30.5 -121.5 -30.5c-32.667 0 -63.167 6.16699 -91.5 18.5s-52.833 29 -73.5 50s-37 45.667 -49 74s-18 58.833 -18 91.5c0 22 3 44.667 9 68s16 46.666 30 69.999zM355.002 786.003
c0 2 0.666992 4.33301 2 7l6 -4zM322.002 865.003c0 -14 3 -27.3311 9 -39.998s14.667 -23.334 26 -32.001c3.33301 12 6.83301 25.667 10.5 41s5.5 29.666 5.5 42.999c0 14 -2.33301 24.167 -7 30.5s-9 9.5 -13 9.5c-9.33301 0 -16.833 -6 -22.5 -18s-8.5 -23.333 -8.5 -34
z" />
    <glyph glyph-name="six" unicode="6" horiz-adv-x="556" 
d="M429 -33c20 24 35.167 49.3311 45.5 75.998s15.5 53 15.5 79c0 22.667 -4.5 45.334 -13.5 68.001s-22.333 42.834 -40 60.501s-39.667 32 -66 43s-57.166 16.5 -92.499 16.5c-32.667 0 -64.334 -6.5 -95.001 -19.5s-58.667 -31.167 -84 -54.5
c-8 -39.333 -12 -78 -12 -116c0 -31.333 4.83301 -61 14.5 -89s23 -52.667 40 -74s36.667 -38.333 59 -51s46.5 -19 72.5 -19c28 0 55.5 7 82.5 21s51.5 33.667 73.5 59zM293 650.998c-43.333 -59.333 -81.165 -122.33 -113.498 -188.997s-56.833 -132 -73.5 -196
c25.333 20 52.666 35.167 81.999 45.5s59.666 15.5 90.999 15.5c38 0 71.167 -6 99.5 -18s52 -27.833 71 -47.5s33.333 -41.667 43 -66s14.5 -48.833 14.5 -73.5c0 -29.333 -6.33301 -59 -19 -89s-30 -57.167 -52 -81.5s-47.667 -44.333 -77 -60s-61 -23.5 -95 -23.5
c-40.667 0 -74.834 8 -102.501 24s-49.834 36.5 -66.501 61.5s-28.667 52.667 -36 83s-11 59.833 -11 88.5c0 40.667 5.5 84.667 16.5 132s26.5 95.5 46.5 144.5s43.833 97.5 71.5 145.5s57.834 93 90.501 135c22.667 28.667 48.5 58 77.5 88s60.167 57.167 93.5 81.5
s68.666 44.166 105.999 59.499s75.666 23 114.999 23c2.66699 0 7 -0.166992 13 -0.5s11.667 -0.833008 17 -1.5s10.166 -1.83398 14.499 -3.50098s6.5 -3.5 6.5 -5.5c0 -6 -2.66699 -9 -8 -9h-9.5c-3 0 -5.83301 0.333008 -8.5 1c-2 0 -4.5 0.166992 -7.5 0.5
s-5.5 0.5 -7.5 0.5c-37.333 0 -74.666 -8.83301 -111.999 -26.5s-72.666 -39.834 -105.999 -66.501s-64.166 -55.5 -92.499 -86.5s-52.166 -59.5 -71.499 -85.5z" />
    <glyph glyph-name="seven" unicode="7" 
d="M317 80c2.66699 0 4.66309 -0.998047 5.99609 -2.99805s2 -4 2 -6c0 -6 -2.66699 -9 -8 -9c-21.333 0 -41.666 -1.5 -60.999 -4.5s-36.666 -6.83301 -51.999 -11.5c-2 -4.66699 -4.33301 -8.66699 -7 -12s-5 -7.33301 -7 -12c-8 -16 -17.167 -33.333 -27.5 -52
s-20.833 -36.167 -31.5 -52.5s-21.167 -30 -31.5 -41s-19.833 -16.5 -28.5 -16.5c-9.33301 0 -16.5 4 -21.5 12s-7.5 18.667 -7.5 32c0 16.667 3.83301 32.667 11.5 48s17.334 29.166 29.001 41.499s24.667 23.333 39 33s28.5 17.167 42.5 22.5l50 108l36.5 79l39 80.5
l42.5 86l48 95.5h-113c-6 0 -9 3 -9 9c0 2 0.833008 4.16699 2.5 6.5s3.83398 3.5 6.50098 3.5h121c33.333 62.667 67.333 122.334 102 179.001s69.667 104.334 105 143.001l-36 15l-35 15c-33.333 13.333 -63.833 24.833 -91.5 34.5s-54.834 14.5 -81.501 14.5
c-30.667 0 -62.334 -8.83301 -95.001 -26.5s-68.667 -48.167 -108 -91.5c-2 -2 -4.33301 -3 -7 -3s-4.83398 1.16699 -6.50098 3.5s-2.5 4.16602 -2.5 5.49902c0 3.33301 0.666992 5.66602 2 6.99902v-1c42 46 80.167 78.167 114.5 96.5s67.833 27.5 100.5 27.5
c29.333 0 58.5 -5 87.5 -15s60.167 -22 93.5 -36l38.5 -15.5l39.5 -15.5c23.333 24.667 46.333 43.834 69 57.501s44.334 20.5 65.001 20.5c13.333 0 25 -3 35 -9s15 -15 15 -27c0 -14 -3.5 -25.833 -10.5 -35.5s-15.833 -17.5 -26.5 -23.5s-22.5 -10.333 -35.5 -13
s-25.167 -4 -36.5 -4c-9.33301 0 -18.666 0.666992 -27.999 2s-17.666 3 -24.999 5c-34.667 -38.667 -69 -85.334 -103 -140.001s-66.333 -111.334 -97 -170.001h127c3.33301 0 5.83301 -1.16699 7.5 -3.5s2.5 -4.5 2.5 -6.5c0 -6 -3.33301 -9 -10 -9h-137
c-32 -61.333 -60.167 -118.5 -84.5 -171.5l-71.5 -151.5l-25.5 -53.5l-25.5 -53.5c30 6.66699 64.667 10.667 104 12zM634.996 845.002l9 -3l-6 -6zM751.996 913.002c-8 0 -17.167 -2.66699 -27.5 -8s-20.5 -11.833 -30.5 -19.5s-19.5 -15.5 -28.5 -23.5
s-16.167 -14.667 -21.5 -20c6 -1.33301 12.167 -2.33301 18.5 -3s12.833 -1 19.5 -1c8.66699 0 18.5 1 29.5 3s21 5.33301 30 10s16.667 10.667 23 18s9.5 16 9.5 26c0 12 -7.33301 18 -22 18zM162.996 31.002c-2 -1.33301 -4.16699 -2.5 -6.5 -3.5s-4.5 -2.16699 -6.5 -3.5
l1 1l6 11zM74.9961 -104.998c6.66699 8 13.334 17.3301 20.001 27.9971s13.167 21.834 19.5 33.501l18.5 35l17 32.5c-11.333 -6.66699 -22.333 -14.167 -33 -22.5s-20.334 -17.666 -29.001 -27.999s-15.5 -21.166 -20.5 -32.499s-7.5 -23.333 -7.5 -36c0 -14 1 -21 3 -21
s6 3.66699 12 11z" />
    <glyph glyph-name="eight" unicode="8" horiz-adv-x="801" 
d="M173 -126c-14 -6 -27.335 -8.99707 -40.002 -8.99707c-15.333 0 -29.333 3.5 -42 10.5s-23.5 16.167 -32.5 27.5s-16.167 24.666 -21.5 39.999s-8 31 -8 47c0 18.667 3.33301 38.834 10 60.501s17.667 44.5 33 68.5s35.5 49 60.5 75s55.833 52.333 92.5 79
c0 5.33301 -0.166992 10.833 -0.5 16.5s-0.5 11.167 -0.5 16.5v28c-2.66699 -1.33301 -4.66699 -2.5 -6 -3.5s-3.33301 -2.16699 -6 -3.5h1c-8 -5.33301 -16.167 -9.66602 -24.5 -12.999s-15.166 -5 -20.499 -5c-3.33301 0 -5.66602 1.16699 -6.99902 3.5
s-2 4.16602 -2 5.49902c0 3.33301 4.83301 7.16602 14.5 11.499s19.5 9.16602 29.5 14.499v-1l21 10c0 44 1.16699 89 3.5 135s7.5 90.333 15.5 133s19.667 82.667 35 120s36.166 70 62.499 98s58.833 50 97.5 66s85 24 139 24c19.333 0 38.666 -2.5 57.999 -7.5
s36.833 -12.833 52.5 -23.5s28.334 -24.334 38.001 -41.001s14.5 -36.667 14.5 -60c0 -25.333 -6.83301 -51 -20.5 -77s-32 -52.167 -55 -78.5s-50.167 -52.5 -81.5 -78.5s-64.666 -51.167 -99.999 -75.5s-71.833 -47.666 -109.5 -69.999s-74.5 -42.833 -110.5 -61.5
c0 -11.333 0.333008 -23.333 1 -36s1.33398 -26.334 2.00098 -41.001c1.33301 -17.333 2.16602 -36.333 2.49902 -57s0.5 -40.667 0.5 -60c0 -31.333 -1.33301 -62.333 -4 -93s-7.5 -59 -14.5 -85s-16.667 -48.667 -29 -68s-28.5 -33.333 -48.5 -42zM572.998 910.003
c-46 -4 -85.6641 -14.167 -118.997 -30.5s-61.5 -37.333 -84.5 -63s-41.333 -55.5 -55 -89.5s-24.334 -70.167 -32.001 -108.5s-12.834 -78.333 -15.501 -120s-4 -83.167 -4 -124.5c52.667 28 106.167 59.167 160.5 93.5s103.666 70 147.999 107s80.5 74.5 108.5 112.5
s42 74.667 42 110c0 19.333 -4 36 -12 50s-18.5 25.667 -31.5 35s-27.667 16.333 -44 21s-32.833 7 -49.5 7h-12zM233.001 257.003l-7 -6v10zM227.001 237.003c0 2.66699 -0.166992 4.99805 -0.5 6.99805s-0.5 4.33301 -0.5 7c-33.333 -25.333 -61.5 -50 -84.5 -74
s-41.5 -47.167 -55.5 -69.5s-24 -43.333 -30 -63s-9 -37.834 -9 -54.501c0 -11.333 1.83301 -23.166 5.5 -35.499s9 -23.666 16 -33.999s15 -18.833 24 -25.5s19.167 -10 30.5 -10c22 0 40 8.66699 54 26s24.667 38.833 32 64.5s12.333 53.334 15 83.001s4 57.167 4 82.5v50
c0 16 -0.333008 31.333 -1 46z" />
    <glyph glyph-name="nine" unicode="9" horiz-adv-x="741" 
d="M186 -105c33.333 12 65.6631 32.498 96.9961 61.498s61.166 63.667 89.499 104s55.166 84.666 80.499 132.999s48.833 97.5 70.5 147.5s41.334 99.333 59.001 148s32.834 93.334 45.501 134.001c-12 -24.667 -25.5 -49 -40.5 -73s-31.667 -45.5 -50 -64.5
s-38.5 -34.5 -60.5 -46.5s-46 -18 -72 -18c-21.333 0 -39.333 4.83301 -54 14.5s-26.667 22.334 -36 38.001s-16.166 33.5 -20.499 53.5s-6.5 40 -6.5 60c0 40 6.16699 80.833 18.5 122.5s30.333 79.667 54 114s52.834 62.333 87.501 84s74.334 32.5 119.001 32.5
c26.667 0 51.667 -7.83301 75 -23.5s43 -40.5 59 -74.5h14c5.33301 0 8 -3.33301 8 -10c-5.33301 -30.667 -13.833 -68 -25.5 -112s-25.834 -91.5 -42.501 -142.5s-35.667 -103.833 -57 -158.5s-44.833 -108.334 -70.5 -161.001s-53 -102.667 -82 -150
s-59.333 -88.833 -91 -124.5s-64.667 -64 -99 -85s-69.166 -31.5 -104.499 -31.5c-20 0 -37.667 3.66699 -53 11s-28.166 17.333 -38.499 30s-18.166 27.167 -23.499 43.5s-8 33.5 -8 51.5c0 4 0.666992 11.167 2 21.5s3.16602 20.833 5.49902 31.5s5.33301 20.167 9 28.5
s7.83398 12.5 12.501 12.5c2 0 4 -1.16699 6 -3.5s3 -5.16602 3 -8.49902c-12.667 -26 -19 -52.667 -19 -80c0 -15.333 2.16699 -30.166 6.5 -44.499s10.5 -27 18.5 -38s18 -19.667 30 -26s25.667 -9.5 41 -9.5c11.333 0 25.666 2.66699 42.999 8zM679.997 815.998
c1.33301 1.33301 1.99316 3.33008 1.99316 5.99707s0.333008 5.66699 1 9c0.666992 0.666992 1 1.33398 1 2.00098c-15.333 31.333 -34.166 54 -56.499 68s-43.166 21 -62.499 21c-22 0 -43.667 -5.83301 -65 -17.5s-41.166 -26.334 -59.499 -44.001
s-34.666 -37.167 -48.999 -58.5s-25.166 -41.666 -32.499 -60.999c-9.33301 -22.667 -17 -47.167 -23 -73.5s-9 -52.5 -9 -78.5c0 -19.333 1.83301 -37.833 5.5 -55.5s9.33398 -33.5 17.001 -47.5s17.167 -25.167 28.5 -33.5s24.666 -12.5 39.999 -12.5
c23.333 0 45.333 6.66699 66 20s39.834 30.833 57.501 52.5s33.834 46.167 48.501 73.5s27.834 54.833 39.501 82.5s21.667 54.334 30 80.001s15.166 47.834 20.499 66.501v1z" />
    <glyph glyph-name="colon" unicode=":" horiz-adv-x="157" 
d="M38 61c0 10.667 3.5 19.667 10.5 27s15.833 11 26.5 11s19.667 -3.66699 27 -11s11 -16.333 11 -27c0 -11.333 -3.66699 -20.333 -11 -27s-16.333 -10 -27 -10s-19.5 3.33301 -26.5 10s-10.5 15.667 -10.5 27zM38 253c0 10.667 3.5 19.667 10.5 27s15.833 11 26.5 11
s19.667 -3.66699 27 -11s11 -16.333 11 -27s-3.66699 -19.5 -11 -26.5s-16.333 -10.5 -27 -10.5s-19.5 3.5 -26.5 10.5s-10.5 15.833 -10.5 26.5z" />
    <glyph glyph-name="semicolon" unicode=";" horiz-adv-x="340" 
d="M162 257c0 10.667 3.5 19.667 10.5 27s15.833 11 26.5 11s19.667 -3.66699 27 -11s11 -16.333 11 -27s-3.66699 -19.5 -11 -26.5s-16.333 -10.5 -27 -10.5s-19.5 3.5 -26.5 10.5s-10.5 15.833 -10.5 26.5zM190 44c-6.66699 3.33301 -11.499 7.33203 -14.499 11.999
s-4.5 9.66699 -4.5 15c0 6.66699 2.33301 12.834 7 18.501s11 8.5 19 8.5c18 0 27 -9.33301 27 -28c0 -10.667 -4.66699 -22.167 -14 -34.5s-21.166 -24.333 -35.499 -36s-29.833 -22 -46.5 -31s-32.334 -15.5 -47.001 -19.5c10.667 4 21.5 9.16699 32.5 15.5
s21.333 13.5 31 21.5s18.667 16.333 27 25s15.166 17 20.499 25zM58.001 -55.001c3.33301 0.666992 7 1.16797 11 1.50098s8 1.16602 12 2.49902c-4 -1.33301 -8 -2.5 -12 -3.5s-7.66699 -1.83301 -11 -2.5v1c-0.666992 -0.666992 -1.16699 -0.666992 -1.5 0
s0.166992 1 1.5 1z" />
    <glyph glyph-name="less" unicode="&#x3c;" horiz-adv-x="341" 
d="M246 272c0.666992 -2.66699 0.999023 -5.33398 0.999023 -8.00098v-8c0 -17.333 -4.16699 -32.5 -12.5 -45.5s-19 -24 -32 -33s-27.667 -16.333 -44 -22s-32.5 -9.83398 -48.5 -12.501c66.667 -23.333 114.834 -45.833 144.501 -67.5s44.5 -45.167 44.5 -70.5
c0 -2 -0.666992 -6.16699 -2 -12.5s-3.16602 -12.833 -5.49902 -19.5s-5.16602 -12.667 -8.49902 -18s-7.33301 -8 -12 -8c-5.33301 0 -8 2.66699 -8 8c0 1.33301 0.666992 3.33301 2 6l2 4c6.66699 8.66699 10 18.334 10 29.001s-5.66699 22.167 -17 34.5
s-27.333 24.833 -48 37.5s-45.834 25.334 -75.501 38.001s-62.834 25 -99.501 37c-4.66699 1.33301 -7 5 -7 11c1.33301 1.33301 3 2.33301 5 3s5.66699 1.66699 11 3c11.333 2 27.333 5.33301 48 10s41 11.167 61 19.5s37.333 18.833 52 31.5s22 28 22 46v6
c0 6 2.66699 9 8 9c4 0 7 -2.33301 9 -7v-1z" />
    <glyph glyph-name="equal" unicode="=" horiz-adv-x="809" 
d="M598 61c5.33301 0 10 -2 14 -6s6 -8.66699 6 -14c0 -6 -2 -10.833 -6 -14.5s-8.66699 -5.5 -14 -5.5h-533c-6 0 -11 1.83301 -15 5.5s-6 8.5 -6 14.5c0 5.33301 2 10 6 14s9 6 15 6h533zM671 251c6 0 11 -1.66699 15 -5s6 -8.33301 6 -15c0 -5.33301 -2 -10 -6 -14
s-9 -6 -15 -6h-532c-5.33301 0 -10.166 2 -14.499 6s-6.5 8.66699 -6.5 14c0 6.66699 2.16699 11.667 6.5 15s9.16602 5 14.499 5h532z" />
    <glyph glyph-name="greater" unicode="&#x3e;" horiz-adv-x="348" 
d="M98 -53c-6 0 -8.99805 3 -8.99805 9c-0.666992 2.66699 -1.16699 5 -1.5 7s-0.5 4.33301 -0.5 7c0 17.333 4.16699 32.666 12.5 45.999s19.166 24.5 32.499 33.5s28.166 16.333 44.499 22s32.833 9.83398 49.5 12.501c-62 22 -109.333 44.5 -142 67.5
s-49 46.833 -49 71.5c0 2 0.666992 6.16699 2 12.5s3.16602 12.833 5.49902 19.5s5.16602 12.667 8.49902 18s7 8 11 8c2 0 4 -1 6 -3s3 -4 3 -6c0 -0.666992 -0.666992 -2.33398 -2 -5.00098l-2 -4c-6.66699 -9.33301 -10 -19 -10 -29c0 -24 20 -48.5 60 -73.5
s99.333 -49.167 178 -72.5c6.66699 -3.33301 10 -6.66602 10 -9.99902s-1.33301 -5 -4 -5c-1.33301 -0.666992 -2.66602 -1 -3.99902 -1c-1.33301 -0.666992 -2.66602 -1 -3.99902 -1s-3 -0.333008 -5 -1c-10.667 -2 -26.167 -5.33301 -46.5 -10s-40.5 -11.167 -60.5 -19.5
s-37.5 -19 -52.5 -32s-22.5 -28.5 -22.5 -46.5v-5c0 -3.33301 -1 -5.83301 -3 -7.5s-3.66699 -2.5 -5 -2.5z" />
    <glyph glyph-name="question" unicode="?" horiz-adv-x="734" 
d="M131 421c0 -2.66699 -1 -4.83301 -3 -6.5s-4 -2.5 -6 -2.5c-4.66699 0 -7.33398 1.5 -8.00098 4.5s-1 6.83301 -1 11.5c0 58 8.83301 109.5 26.5 154.5s41.167 83 70.5 114s62.5 54.667 99.5 71s75.167 24.5 114.5 24.5c41.333 0 76.333 -7.5 105 -22.5
s51.834 -34.333 69.501 -58s30.5 -50.167 38.5 -79.5s12 -58.666 12 -87.999c0 -26.667 -2.66699 -53.334 -8 -80.001s-12.333 -52.334 -21 -77.001c-12.667 -34 -28.5 -65.333 -47.5 -94s-39.833 -55.667 -62.5 -81s-46.334 -49.333 -71.001 -72l-74 -66
c-31.333 -27.333 -62.166 -55.666 -92.499 -84.999s-57.5 -61.166 -81.5 -95.499s-43.333 -72 -58 -113s-22 -87.167 -22 -138.5c0 -6.66699 0.166992 -13.334 0.5 -20.001s0.833008 -14 1.5 -22c0 -3.33301 -1 -6.16602 -3 -8.49902s-4 -3.5 -6 -3.5
c-3.33301 0 -6.16602 5 -8.49902 15s-4.33301 21.333 -6 34s-3 25 -4 37s-1.5 20.333 -1.5 25c0 47.333 7 89.833 21 127.5s32.667 72.167 56 103.5s50 60.5 80 87.5l93 81.5l72 62c24 21.333 46.833 44 68.5 68s41.667 49.5 60 76.5s33.5 56.167 45.5 87.5
c8.66699 24 15.834 49.167 21.501 75.5s8.5 52.166 8.5 77.499c0 27.333 -4.16699 54.5 -12.5 81.5s-20.833 51.333 -37.5 73s-37.167 39.167 -61.5 52.5s-52.833 20 -85.5 20c-34.667 0 -68.834 -7.83301 -102.501 -23.5s-63.834 -38.5 -90.501 -68.5
s-48.167 -66.833 -64.5 -110.5s-24.5 -93.5 -24.5 -149.5zM107 -419.999c10.667 0 19.667 -3.83301 27 -11.5s11 -16.167 11 -25.5c0 -11.333 -3.66699 -20.5 -11 -27.5s-16.333 -10.5 -27 -10.5c-11.333 0 -20.333 3.5 -27 10.5s-10 16.167 -10 27.5
c0 9.33301 3.33301 17.833 10 25.5s15.667 11.5 27 11.5z" />
    <glyph glyph-name="at" unicode="@" horiz-adv-x="836" 
d="M503 301c2.66699 -1.33301 4.66406 -2.83691 5.99707 -4.50391s2 -3.16699 2 -4.5c0 -2.66699 -2.5 -9 -7.5 -19l-19.5 -38l-32 -64.5c-12 -24.333 -23.167 -49.166 -33.5 -74.499s-19.166 -50.333 -26.499 -75s-11 -46.334 -11 -65.001c0 -24 4.33301 -43.5 13 -58.5
s21.334 -22.5 38.001 -22.5c18 0 36.167 6.5 54.5 19.5s36.166 30 53.499 51s33.833 45.167 49.5 72.5s29.834 55.166 42.501 83.499s23.334 56.333 32.001 84s15 52.5 19 74.5c2.66699 13.333 4.5 26.333 5.5 39s1.5 24.667 1.5 36c0 38.667 -4.83301 71.5 -14.5 98.5
s-22 49 -37 66s-32 29.5 -51 37.5s-37.833 12 -56.5 12c-21.333 0 -43.666 -4.16699 -66.999 -12.5s-46.333 -19.333 -69 -33s-44.5 -29.5 -65.5 -47.5s-39.833 -36.667 -56.5 -56c-17.333 -22 -35.5 -50.333 -54.5 -85s-36.333 -72.5 -52 -113.5
s-28.667 -83.167 -39 -126.5s-15.5 -84.666 -15.5 -123.999c0 -30.667 3.66699 -59.667 11 -87s19.333 -51.333 36 -72s38.5 -37 65.5 -49s60.167 -18 99.5 -18c18.667 0 38.167 2.33301 58.5 7s41.833 11 64.5 19c18.667 6.66699 38.667 13 60 19s41.666 9 60.999 9
c28.667 0 57.167 -8.33301 85.5 -25s57.833 -48 88.5 -94v-1c0.666992 -0.666992 1 -2 1 -4c0 -1.33301 -0.666992 -3.16602 -2 -5.49902s-3.66602 -3.5 -6.99902 -3.5c-2.66699 0 -5 2 -7 6v-1c-28.667 42.667 -56 71.5 -82 86.5s-51.667 22.5 -77 22.5
c-18.667 0 -37.5 -2.66699 -56.5 -8s-38.5 -11.666 -58.5 -18.999c-58 -20.667 -109.667 -31 -155 -31c-39.333 0 -73 6.83301 -101 20.5s-51 32.5 -69 56.5s-31.167 52.167 -39.5 84.5s-12.5 67.166 -12.5 104.499c0 36 3.83301 73.667 11.5 113s18.5 78.333 32.5 117
s31 76.167 51 112.5s42.667 69.833 68 100.5c18 22 38.167 42.5 60.5 61.5s46 35.833 71 50.5s50.667 26 77 34s51.833 12 76.5 12c22 0 43.833 -4.16699 65.5 -12.5s41.334 -21.833 59.001 -40.5s32 -42.667 43 -72s16.5 -65 16.5 -107c0 -28 -4.66699 -62.333 -14 -103
s-22.5 -82.167 -39.5 -124.5s-37.667 -83 -62 -122s-51.833 -70.833 -82.5 -95.5c-16.667 -13.333 -32.5 -23.166 -47.5 -29.499s-28.833 -9.5 -41.5 -9.5c-24 0 -43.167 9.66699 -57.5 29s-21.5 45 -21.5 77c0 24 4.33301 50.5 13 79.5s19 57.5 31 85.5
c-32.667 -36.667 -65.667 -55 -99 -55c-17.333 0 -31.5 5.66699 -42.5 17s-16.5 29 -16.5 53c0 18 4.33301 37.833 13 59.5s20.167 41.834 34.5 60.501s30.666 34.334 48.999 47.001s37.5 19 57.5 19c13.333 0 27.333 -4.16699 42 -12.5s26 -22.166 34 -41.499
c3.33301 7.33301 7.16602 14.166 11.499 20.499s7.83301 9.5 10.5 9.5h23zM371.997 132.996c12.667 15.333 25.333 33.166 38 53.499s25 42.5 37 66.5c-5.33301 18 -13.333 31.167 -24 39.5s-21.667 12.5 -33 12.5c-15.333 0 -30.5 -6 -45.5 -18s-28.167 -26.5 -39.5 -43.5
s-20.5 -34.833 -27.5 -53.5s-10.5 -34.334 -10.5 -47.001s2.5 -24.167 7.5 -34.5s14.167 -17.166 27.5 -20.499c11.333 2 23 6.83301 35 14.5s23.667 17.834 35 30.501z" />
    <glyph glyph-name="A" unicode="A" horiz-adv-x="1014" 
d="M441 1049c60.667 -8 121.996 -10.5 183.996 -7.5s120.667 14.833 176 35.5c18 34 36.167 64.667 54.5 92s35.166 50.666 50.499 69.999c2 2 5.5 5.83301 10.5 11.5s10.833 11.334 17.5 17.001s13.5 10.667 20.5 15s13.167 6.5 18.5 6.5c4.66699 0 9 -1.66699 13 -5
s6 -9.66602 6 -18.999c0 -21.333 -4.83301 -41.666 -14.5 -60.999s-22 -37.333 -37 -54s-31.333 -31.334 -49 -44.001s-34.834 -22.667 -51.501 -30l-36 -69c8.66699 2 19.667 3 33 3c30.667 0 56 -5.16699 76 -15.5s36 -23.833 48 -40.5s20.5 -35 25.5 -55s7.5 -40 7.5 -60
c0 -54.667 -11 -116.334 -33 -185.001s-51 -142.334 -87 -221.001c37.333 20 72.833 47.667 106.5 83s64.834 83 93.501 143l1 2c2 2 4.66699 3 8 3c2 0 4 -1.16699 6 -3.5s3 -5.16602 3 -8.49902c-34 -68.667 -70 -122 -108 -160s-79 -67 -123 -87
c-30 -66 -62.5 -132.667 -97.5 -200l-106.5 -202l-97.5 -187.5c-31.667 -61.667 -59.834 -120.167 -84.501 -175.5s-44.5 -105.833 -59.5 -151.5s-22.5 -83.834 -22.5 -114.501c0 -23.333 3.5 -43.333 10.5 -60s16.333 -30.5 28 -41.5s25 -19.167 40 -24.5s30.5 -8 46.5 -8
c28 0 56.5 5.83301 85.5 17.5s55.167 27.834 78.5 48.501s42.333 45 57 73s22 58.333 22 91c0 3.33301 -0.166992 7.16602 -0.5 11.499s-0.833008 8.83301 -1.5 13.5c0 5.33301 2.66699 9 8 11c2.66699 0 4.83398 -1.5 6.50098 -4.5s2.83398 -6.66699 3.50098 -11
s1 -8.66602 1 -12.999v-10.5c0 -36 -8.33301 -69.167 -25 -99.5s-38 -56.5 -64 -78.5s-55.333 -39.167 -88 -51.5s-65 -18.5 -97 -18.5c-18 0 -36 2.83301 -54 8.5s-34.167 14.667 -48.5 27s-26 28.333 -35 48s-13.5 43.5 -13.5 71.5c0 31.333 7.66699 70.166 23 116.499
s35.833 97.833 61.5 154.5s54.834 117.167 87.501 181.5l101 196.5l93.5 181l89.5 180c-29.333 -10 -59.333 -18.167 -90 -24.5s-61 -12.166 -91 -17.499l-75.5 -15.5c-25 -5 -50.167 -10.833 -75.5 -17.5l-89 -183.5c-29.333 -59.667 -59.333 -115.834 -90 -168.501
c-19.333 -31.333 -41.166 -54.666 -65.499 -69.999s-46.833 -23 -67.5 -23c-15.333 0 -29.833 3.16699 -43.5 9.5s-25.667 15 -36 26s-18.5 24 -24.5 39s-9 31.5 -9 49.5c0 26 6.66699 51.333 20 76s30.833 48 52.5 70s46.334 42.667 74.001 62s55.834 36.666 84.501 51.999
s56.5 28.833 83.5 40.5s50.833 20.5 71.5 26.5l111 243l122.5 264c39.667 84.667 78.5 161.334 116.5 230.001c-58.667 -18.667 -117.667 -27.667 -177 -27s-116 8.66699 -170 24zM790.996 983c0 -0.666992 -0.166992 -1 -0.5 -1s-0.5 -0.333008 -0.5 -1h-1zM834.996 991
c-9.33301 0 -17.5 -0.833008 -24.5 -2.5s-13.833 -4.16699 -20.5 -7.5l-112 -231l-116 -254l-37.5 -84l-37.5 -82c23.333 6 46 11.167 68 15.5l66 12.5c34.667 6.66699 68.167 13.5 100.5 20.5s64.5 16.5 96.5 28.5l22.5 48.5l29 66c10.333 24.333 20.5 50.333 30.5 78
s19.167 55.667 27.5 84s15 56.5 20 84.5s7.5 54.333 7.5 79c0 20 -2.16699 38.667 -6.5 56s-11.333 32.5 -21 45.5s-22 23.333 -37 31s-33.5 11.5 -55.5 11.5zM962.996 1261c-6 -5.33301 -13.667 -14.332 -23 -26.999s-19 -26.834 -29 -42.501l-29.5 -47l-24.5 -39.5
c30 16 52.833 33.5 68.5 52.5s26.667 36.667 33 53s9.33301 29.5 9 39.5s-1.83301 13.667 -4.5 11zM210.996 -92.999c8.66699 6 17.1689 14.165 25.502 24.498s16.166 21.833 23.499 34.5l40.5 72.5l43.5 82.5l43.5 87l41.5 86
c-20.667 -7.33301 -43.667 -16.666 -69 -27.999s-51.333 -24.333 -78 -39s-52.667 -31 -78 -49s-47.833 -37.167 -67.5 -57.5s-35.5 -41.5 -47.5 -63.5s-18 -44.667 -18 -68c0 -29.333 8.33301 -53.666 25 -72.999s36.667 -29 60 -29c17.333 0 35.666 6.66699 54.999 20z
" />
    <glyph glyph-name="B" unicode="B" horiz-adv-x="1040" 
d="M645 722l65.999 140.002l64 128c-32 -10 -61 -26.333 -87 -49s-47.333 -49 -64 -79h-4c-3.33301 0 -6 1 -8 3s-2.33301 4.66699 -1 8c20 34 45.333 63.833 76 89.5s63.667 42.167 99 49.5c5.33301 7.33301 8.33301 11.833 9 13.5l3 7.5l10 19
c-25.333 -8.66699 -52.666 -15.167 -81.999 -19.5s-59.166 -6.5 -89.499 -6.5s-60.333 1.83301 -90 5.5s-57.5 9.16699 -83.5 16.5c28 -3.33301 57.5 -5.66602 88.5 -6.99902s62.167 -1 93.5 1s62 5.83301 92 11.5s58 13.5 84 23.5c18.667 32.667 37.167 63 55.5 91
s35.5 51.667 51.5 71c2 2.66699 5.33301 6.83398 10 12.501s10.167 11.334 16.5 17.001s12.833 10.667 19.5 15s13 6.5 19 6.5c12 0 18 -8.33301 18 -25c0 -18.667 -4.83301 -37.334 -14.5 -56.001s-21.834 -36.334 -36.501 -53.001s-30.667 -31.834 -48 -45.501
s-34 -24.5 -50 -32.5c-5.33301 -10.667 -11 -20.834 -17 -30.501s-11.667 -20.167 -17 -31.5c30 -1.33301 51.833 -10 65.5 -26s20.5 -35.667 20.5 -59c0 -24 -6 -48.667 -18 -74s-27.5 -49.833 -46.5 -73.5s-40.333 -45.167 -64 -64.5s-47.167 -35 -70.5 -47
c40 -2 74 -8.66699 102 -20s50.833 -26.166 68.5 -44.499s30.667 -39.166 39 -62.499s12.5 -48 12.5 -74c0 -42.667 -9 -87.334 -27 -134.001s-42.333 -92.334 -73 -137.001s-66.667 -87.167 -108 -127.5s-85.666 -75.833 -132.999 -106.5s-96.333 -55 -147 -73
s-100.334 -27 -149.001 -27h-5c-5.33301 0 -10.833 0.166992 -16.5 0.5s-8.5 3.16602 -8.5 8.49902c0 2 0.666992 4 2 6s3.66602 3 6.99902 3c48 0 96.5 8.83301 145.5 26.5s96.333 41.334 142 71.001s88.5 64.167 128.5 103.5s74.833 80.666 104.5 123.999
s53.167 87.5 70.5 132.5s26 88.167 26 129.5c0 20.667 -3.5 41.834 -10.5 63.501s-18.167 41.5 -33.5 59.5s-35 32.667 -59 44s-53 17 -87 17c-8 0 -16.333 -0.333008 -25 -1s-17.667 -2 -27 -4l-35 -76l-74 -162.5l-76.5 -162l-76.5 -154
c-25.333 -49.667 -50.333 -95.834 -75 -138.501v1c-19.333 -34.667 -40.833 -59 -64.5 -73s-47.167 -20.667 -70.5 -20c-38.667 1.33301 -66.334 12.5 -83.001 33.5s-25 46.167 -25 75.5c0 30 8 61.5 24 94.5s39 61.833 69 86.5c2 0 4.33301 -1.16699 7 -3.5
s4 -4.16602 4 -5.49902c0 -4 -1.66699 -6.66699 -5 -8c-26 -22 -45.667 -47.833 -59 -77.5s-20 -57.5 -20 -83.5c0 -26.667 7 -48.334 21 -65.001s36.667 -25 68 -25c10 0 19.833 2.66699 29.5 8s18.834 11.833 27.501 19.5s16.334 16.167 23.001 25.5l18 26
c26.667 46.667 54.5 98.167 83.5 154.5l90 181l94.5 202.5zM962.999 1229c-13.333 -16.667 -26.833 -35.168 -40.5 -55.501s-28.167 -43.166 -43.5 -68.499c12.667 8 25.834 18 39.501 30s26 24.833 37 38.5s20.167 28 27.5 43s11 29.833 11 44.5c0 1.33301 0.666992 2 2 2
c-2.66699 0 -7.33398 -4 -14.001 -12l-18 -21l-1 -2v1zM817.999 997.001l-74.001 -151.499l-78 -166.5c24 10 48.5 24.5 73.5 43.5s47.5 40.167 67.5 63.5s36.333 47.833 49 73.5s19 50.167 19 73.5c0 16.667 -4.16699 31.167 -12.5 43.5s-23.166 19.166 -44.499 20.499z
" />
    <glyph glyph-name="C" unicode="C" horiz-adv-x="689" 
d="M636 685c19.333 20 37.333 46.5039 54 79.5039s31 69.167 43 108.5s21.333 79.5 28 120.5s10 79.5 10 115.5c0 42.667 -5.5 78 -16.5 106s-28.167 42 -51.5 42c-21.333 0 -46 -10.833 -74 -32.5s-57.333 -51.5 -88 -89.5s-62.167 -82.5 -94.5 -133.5
s-63.833 -105.833 -94.5 -164.5s-59.334 -119.667 -86.001 -183s-50.167 -126.166 -70.5 -188.499s-36.333 -122.833 -48 -181.5s-17.5 -112.334 -17.5 -161.001c0 -29.333 2.5 -57 7.5 -83s13 -48.667 24 -68s25 -34.833 42 -46.5s37.5 -17.5 61.5 -17.5
c28 0 59.333 8.16699 94 24.5s70.167 40.833 106.5 73.5s72.833 73.667 109.5 123s71 107.333 103 174c1.33301 5.33301 4.33301 8 9 8c1.33301 0 2.83301 -1 4.5 -3s2.5 -4 2.5 -6s-0.666992 -4.33301 -2 -7h1c-33.333 -70.667 -69.166 -132 -107.499 -184
s-76.833 -95.167 -115.5 -129.5s-76.5 -59.833 -113.5 -76.5s-70.833 -25 -101.5 -25c-30 0 -55.5 7 -76.5 21s-38.167 32.667 -51.5 56s-23 50.166 -29 80.499s-9 61.833 -9 94.5c0 51.333 6.16699 107.166 18.5 167.499s29.333 122.333 51 186s46.834 127.667 75.501 192
s59.167 126.166 91.5 185.499s65.833 114.833 100.5 166.5s68.5 96.5 101.5 134.5s64.333 68 94 90s56.167 33 79.5 33c16 0 30 -4.5 42 -13.5s22 -21.667 30 -38s14 -35.666 18 -57.999s6 -46.833 6 -73.5c0 -32.667 -3 -67.5 -9 -104.5s-15.167 -74.667 -27.5 -113
s-27.833 -76.333 -46.5 -114s-40.334 -72.834 -65.001 -105.501c0.666992 0.666992 -1 1 -5 1c-6.66699 0 -10 3.33301 -10 10c0 3.33301 0.666992 5.66602 2 6.99902z" />
    <glyph glyph-name="D" unicode="D" horiz-adv-x="1036" 
d="M805 1052c-25.333 -8.66699 -52.666 -15.168 -81.999 -19.501s-59.333 -6.5 -90 -6.5s-60.834 1.83301 -90.501 5.5s-57.5 9.16699 -83.5 16.5c28 -3.33301 57.5 -5.66602 88.5 -6.99902s62.333 -1 94 1s62.667 5.83301 93 11.5s58.5 13.5 84.5 23.5
c16 28.667 32.167 55.834 48.5 81.501s32 48.334 47 68.001s29 35.167 42 46.5s23.833 17 32.5 17c13.333 0 20 -8.33301 20 -25c0 -18.667 -4.83301 -37.5 -14.5 -56.5s-22 -37 -37 -54s-31.167 -32.167 -48.5 -45.5s-33.666 -24 -48.999 -32l-16 -30
c-4.66699 -8.66699 -10.334 -18.667 -17.001 -30h13c29.333 0 55.333 -6.33301 78 -19s41.667 -29.667 57 -51s26.833 -45.833 34.5 -73.5s11.5 -56.5 11.5 -86.5c0 -50 -6.5 -99.167 -19.5 -147.5s-26.833 -90.833 -41.5 -127.5
c-17.333 -43.333 -38.833 -89.166 -64.5 -137.499s-55.167 -96.166 -88.5 -143.499s-69.833 -92.666 -109.5 -135.999s-82 -81.333 -127 -114s-92.167 -58.834 -141.5 -78.501s-100 -29.5 -152 -29.5c-6 0 -9 3 -9 9c0 2 0.833008 4 2.5 6s3.83398 3 6.50098 3
c45.333 0 90.5 10 135.5 30s88.833 46.667 131.5 80s83.167 71.5 121.5 114.5s73.833 87.833 106.5 134.5s61.667 93.334 87 140.001s46 90 62 130l21 58.5c7.33301 21 13.833 43 19.5 66s10.334 46.5 14.001 70.5s5.5 47.667 5.5 71c0 25.333 -3.16699 50.666 -9.5 75.999
s-15.833 48.166 -28.5 68.499s-28.334 36.833 -47.001 49.5s-40.334 19 -65.001 19c-6 0 -10.667 -0.333008 -14 -1c-39.333 -74.667 -76.333 -149.834 -111 -225.501l-104 -229.5l-134.5 -292.5c-45.667 -97 -96.834 -194.5 -153.501 -292.5
c-19.333 -34.667 -40.833 -58.834 -64.5 -72.501s-47.167 -20.5 -70.5 -20.5c-38 1.33301 -65.333 12.666 -82 33.999s-25 46.666 -25 75.999c0 30 8 61.333 24 94s39 61.334 69 86.001c2.66699 0 5 -1.16699 7 -3.5s3 -4.16602 3 -5.49902l-2 -4
c-0.666992 -1.33301 -1 -2.33301 -1 -3c-25.333 -21.333 -45.166 -47 -59.499 -77s-21.5 -59 -21.5 -87c0 -24 6.66699 -45.167 20 -63.5s35.333 -27.5 66 -27.5c10.667 0 21.167 2.66699 31.5 8s19.833 12 28.5 20s16.5 16.833 23.5 26.5s12.833 18.5 17.5 26.5
c50 91.333 97.167 184.666 141.5 279.999l132.5 286l53.5 116l56.5 121l65 132.5zM992 1262v2h2zM982 1253c-6.66699 -6 -14.334 -14.5029 -23.001 -25.5029s-17.667 -23.167 -27 -36.5l-28.5 -42.5l-26.5 -42.5c14 8.66699 27.667 18.834 41 30.501
s25.5 24.334 36.5 38.001s19.833 27.834 26.5 42.501s10.334 29.667 11.001 45l-9 -9h-1z" />
    <glyph glyph-name="E" unicode="E" horiz-adv-x="806" 
d="M564 377c24.667 -31.333 39.9951 -65.668 45.9951 -103.001s4.66699 -74.833 -4 -112.5s-23.167 -74.167 -43.5 -109.5s-44.666 -66.333 -72.999 -93s-59.166 -47.667 -92.499 -63s-67 -22 -101 -20c-30.667 0.666992 -57.834 7.5 -81.501 20.5s-43.5 31 -59.5 54
s-28.167 50.667 -36.5 83s-12.5 68.5 -12.5 108.5c0 33.333 2.83301 67.833 8.5 103.5s13.167 70.834 22.5 105.501s20 68.334 32 101.001s24 62.667 36 90c22.667 48 48.334 94 77.001 138s59.667 83 93 117s68.5 62.167 105.5 84.5s75.5 36.166 115.5 41.499
c-22 19.333 -39.333 42.833 -52 70.5s-19 56.5 -19 86.5c0 16 2.5 32 7.5 48s12.333 30.5 22 43.5s21.334 23.5 35.001 31.5s29.5 12 47.5 12c12.667 0 24.667 -2.66699 36 -8s21.333 -12.833 30 -22.5s15.667 -20.834 21 -33.501s8 -26.334 8 -41.001
c0 -28.667 -10 -54 -30 -76s-46 -36.667 -78 -44c-6.66699 0 -10 3 -10 9c0 2.66699 3 5.66699 9 9c26.667 4.66699 48.667 16.667 66 36s26 41.333 26 66c0 11.333 -2 22 -6 32s-9.16699 18.833 -15.5 26.5s-13.5 13.834 -21.5 18.501s-16 7 -24 7
c-12 0 -23.167 -3.33301 -33.5 -10s-19.166 -15.5 -26.499 -26.5s-13.166 -23.333 -17.499 -37s-6.5 -27.5 -6.5 -41.5c0 -12.667 2.16699 -27.834 6.5 -45.501s10.333 -34.5 18 -50.5s17.167 -29.5 28.5 -40.5s24 -16.5 38 -16.5c2 0 4 -0.666992 6 -2
s3 -3.66602 3 -6.99902c0 -2.66699 -1 -4.66699 -3 -6s-4 -2 -6 -2c-41.333 0 -81.5 -10.167 -120.5 -30.5s-76.333 -47.666 -112 -81.999s-68.667 -74 -99 -119s-57.166 -92.5 -80.499 -142.5c-12.667 -27.333 -24.834 -56.833 -36.501 -88.5s-22 -64.5 -31 -98.5
s-16.167 -68.167 -21.5 -102.5s-8 -67.833 -8 -100.5c0 -42.667 4.33301 -79.667 13 -111s20.334 -57.333 35.001 -78s32 -36 52 -46s41.333 -15 64 -15c27.333 0 55.5 7.16699 84.5 21.5s56.167 33.833 81.5 58.5s47.833 53.167 67.5 85.5s34.167 66.333 43.5 102
s12.666 72 9.99902 109s-13.667 72.167 -33 105.5z" />
    <glyph glyph-name="F" unicode="F" horiz-adv-x="642" 
d="M375 1048c26.667 -3.33301 55.3311 -5.66895 85.998 -7.00195s61.834 -1 93.501 1s62.5 5.83301 92.5 11.5s58 13.5 84 23.5c16.667 29.333 33.167 56.833 49.5 82.5s32 48.167 47 67.5s28.833 34.666 41.5 45.999s23.334 17 32.001 17c13.333 0 20 -8.33301 20 -25
c0 -14 -4.16699 -29.667 -12.5 -47s-19.333 -34.833 -33 -52.5s-29.5 -34.334 -47.5 -50.001s-37 -28.5 -57 -38.5c-30 -53.333 -61.833 -115.333 -95.5 -186l-104.5 -224l13 -2c14 -1.33301 29 -3 45 -5s32 -3 48 -3c12.667 0 25 1 37 3s22.667 5.66699 32 11
s16.833 12.5 22.5 21.5s8.83398 20.833 9.50098 35.5c0 4.66699 3 7 9 7c2 0 4 -0.833008 6 -2.5s3 -3.5 3 -5.5c-0.666992 -17.333 -4.33398 -31.666 -11.001 -42.999s-15.167 -20.333 -25.5 -27s-22.5 -11.334 -36.5 -14.001s-28.333 -4 -43 -4c-16 0 -32 1 -48 3
s-30.667 4 -44 6l-25 4l-22.5 -49l-21.5 -49l-49 -110l-61.5 -138.5c-21.667 -49 -44 -97 -67 -144s-45.833 -90.833 -68.5 -131.5s-44.334 -74.334 -65.001 -101.001c-18 -23.333 -37 -40 -57 -50s-39.667 -14.667 -59 -14c-18 0.666992 -33.833 5 -47.5 13
s-25.334 17.833 -35.001 29.5s-16.834 24.334 -21.501 38.001s-7 26.5 -7 38.5c0 16 2.5 31.833 7.5 47.5s11.833 30.834 20.5 45.501s18.5 28.5 29.5 41.5s22.5 24.5 34.5 34.5l5 2c2 0 4 -1.16699 6 -3.5s3 -4.16602 3 -5.49902l-2 -4
c-0.666992 -1.33301 -1 -2.33301 -1 -3c-11.333 -9.33301 -22.166 -20 -32.499 -32s-19.5 -24.833 -27.5 -38.5s-14.333 -27.667 -19 -42s-7 -28.5 -7 -42.5c0 -10.667 2.16699 -21.834 6.5 -33.501s10.333 -22.167 18 -31.5s16.834 -17.166 27.501 -23.499
s22.334 -9.5 35.001 -9.5c19.333 0 37 6 53 18s29.667 26.667 41 44c24 34.667 48.833 75.834 74.5 123.501s51 97.5 76 149.5l72.5 156.5l64 145.5l31 72.5c9.33301 22.333 18.333 42.5 27 60.5c-7.33301 0.666992 -15.166 1.16699 -23.499 1.5s-15.833 0.5 -22.5 0.5
c-20.667 0 -39.5 -2 -56.5 -6s-32.333 -10.833 -46 -20.5s-25.5 -22.667 -35.5 -39s-18 -37.166 -24 -62.499c-3.33301 -5.33301 -6.33301 -8 -9 -8c-6 0 -9 3.33301 -9 10c6.66699 28 15.667 51.167 27 69.5s24.666 32.833 39.999 43.5s32.5 18.167 51.5 22.5
s39.5 6.5 61.5 6.5c16.667 0 34.667 -1 54 -3l94.5 203.5c29 63 59.167 122.167 90.5 177.5c-24.667 -8.66699 -51.667 -15.167 -81 -19.5s-59.166 -6.5 -89.499 -6.5s-60.333 1.83301 -90 5.5s-56.834 9.16699 -81.501 16.5zM872.997 1229
c-14 -16.667 -27.834 -35.0039 -41.501 -55.0039s-28.167 -42.667 -43.5 -68c12.667 8.66699 25.667 18.834 39 30.501s25.5 24.334 36.5 38.001s20 27.834 27 42.501s10.5 29.334 10.5 44.001c-3.33301 -2 -7.16602 -5.66699 -11.499 -11l-11.5 -14z" />
    <glyph glyph-name="G" unicode="G" horiz-adv-x="865" 
d="M713 -61c0 -4.66699 -2.33496 -7.66211 -7.00195 -8.99512c-6 -1.33301 -12.333 -2 -19 -2h-20c-22 0 -45 1.66699 -69 5s-50.333 9 -79 17c-4.66699 -8.66699 -8.66699 -17.334 -12 -26.001s-7.33301 -17.334 -12 -26.001h1l-53.5 -107
c-19.667 -38 -41 -73.333 -64 -106s-47.833 -59.834 -74.5 -81.501s-54.667 -32.5 -84 -32.5c-22 0 -42.167 4.66699 -60.5 14s-34.166 21.166 -47.499 35.499s-23.833 30.666 -31.5 48.999s-11.5 36.5 -11.5 54.5c0 18.667 3.33301 37.334 10 56.001s15.5 36.5 26.5 53.5
s24 32.833 39 47.5s30.5 27.667 46.5 39c39.333 26 75.166 44 107.499 54s63.5 15 93.5 15c18 0 34.833 -1.16699 50.5 -3.5s31.5 -5.5 47.5 -9.5l101 213.5l101 220.5l11.5 25.5l12.5 25.5c-28.667 -19.333 -56.167 -33.666 -82.5 -42.999s-52.5 -14 -78.5 -14
c-24 0 -45.833 4.33301 -65.5 13s-36.5 21 -50.5 37s-24.667 35.167 -32 57.5s-11 47.166 -11 74.499c0 32 4.16699 65.833 12.5 101.5s19 70.5 32 104.5s26.833 65.833 41.5 95.5s28.667 54.834 42 75.501c43.333 64 87.333 111.333 132 142s88 46 130 46
c18.667 0 37.5 -3.33301 56.5 -10s36.5 -16.5 52.5 -29.5s29.667 -29.167 41 -48.5s19.333 -41.333 24 -66c0 -2.66699 -1 -5 -3 -7s-4 -3 -6 -3c-5.33301 0 -8.66602 2.33301 -9.99902 7c-4 22 -11.167 41.5 -21.5 58.5s-22.166 31.333 -35.499 43
s-27.666 20.5 -42.999 26.5s-30 9 -44 9c-22.667 0 -45.167 -5.33301 -67.5 -16s-43.5 -24.5 -63.5 -41.5s-38.667 -36.167 -56 -57.5s-32.666 -42.333 -45.999 -63c-13.333 -20 -27.5 -44.333 -42.5 -73s-28.833 -59.334 -41.5 -92.001s-23 -66.334 -31 -101.001
s-12 -67.667 -12 -99c0 -26 3.5 -49.167 10.5 -69.5s16.5 -37.5 28.5 -51.5s25.667 -24.5 41 -31.5s31.666 -10.5 48.999 -10.5c27.333 0 55.166 6.66699 83.499 20s54.833 29.666 79.5 48.999l27 55l21.5 47l16 33l16 32l22.5 44c-3.33301 -0.666992 -7.5 -1 -12.5 -1
h-12.5c-2.66699 0 -7.66699 0.166992 -15 0.5s-14.666 1 -21.999 2s-14 2.16699 -20 3.5s-9 3.33301 -9 6c0 2 1 4 3 6s4.33301 3 7 3c9.33301 -1.33301 18.166 -2.33301 26.499 -3s16.166 -1 23.499 -1h21c6.66699 0 13.334 0.666992 20.001 2l19.5 32.5
c7 11.667 14.667 22.334 23 32.001s17 17.834 26 24.501s18.167 10 27.5 10s17 -2.83301 23 -8.5s9 -13.167 9 -22.5c0 -10.667 -3.16699 -20.5 -9.5 -29.5s-14.166 -16.833 -23.499 -23.5s-19.5 -12.334 -30.5 -17.001s-21.167 -8 -30.5 -10
c-2 -3.33301 -4.33301 -7.5 -7 -12.5l-10.5 -20.5l-16.5 -34l-25 -53.5l-36.5 -78.5l-50.5 -109l-101.5 -221.5l-101.5 -214.5c27.333 -6.66699 52.333 -12 75 -16s44 -6 64 -6c12 0 24.667 1 38 3c3.33301 0 5.66602 -1 6.99902 -3s2 -4 2 -6zM278.998 -383.995
c16 12 33.1641 31.668 51.4971 59.001s36.333 57 54 89s34.334 64 50.001 96l38.5 81h1l4 10c1.33301 3.33301 3 6.66602 5 9.99902c-15.333 2.66699 -30.166 4.83398 -44.499 6.50098s-29.166 2.5 -44.499 2.5c-28 0 -57.833 -4.66699 -89.5 -14
s-66.167 -26.333 -103.5 -51c-14.667 -10 -29 -21.833 -43 -35.5s-26.333 -28.334 -37 -44.001s-19.167 -32.167 -25.5 -49.5s-9.5 -34.666 -9.5 -51.999c0 -15.333 3.33301 -30.833 10 -46.5s15.5 -29.834 26.5 -42.501s24 -23 39 -31s31.167 -12 48.5 -12
c22.667 0 45.667 8 69 24zM925.995 787.006c-7.33301 -8 -14.1689 -16.667 -20.502 -26s-12.166 -18.333 -17.499 -27c14.667 4 28.834 10.667 42.501 20s20.5 21.333 20.5 36c0 7.33301 -2 11 -6 11c-4.66699 0 -11 -4.66699 -19 -14z" />
    <glyph glyph-name="H" unicode="H" horiz-adv-x="1047" 
d="M436 1052c28 -3.33301 57.5 -5.66504 88.5 -6.99805s62.167 -1 93.5 1s62 5.83301 92 11.5s57.667 13.5 83 23.5c18.667 34 37 64.667 55 92s35 50.666 51 69.999c2.66699 3.33301 6.66699 7.5 12 12.5s11.166 10 17.499 15s12.666 9.16699 18.999 12.5
s12.166 5 17.499 5c7.33301 -1.33301 12.166 -4 14.499 -8s3.5 -8.66699 3.5 -14c0 -6 -1.33301 -13.167 -4 -21.5s-5.66699 -16.333 -9 -24s-6.66602 -14.5 -9.99902 -20.5s-5.66602 -10.333 -6.99902 -13c-14.667 -23.333 -32.334 -43.833 -53.001 -61.5
s-42.667 -32.167 -66 -43.5c-44 -78 -87.167 -162.5 -129.5 -253.5l-123.5 -269.5l-30.5 -70.5c-9.66699 -23 -20.167 -46.167 -31.5 -69.5c10 1.33301 19.667 2 29 2h28c22 0 43.5 -0.833008 64.5 -2.5s42.167 -3.5 63.5 -5.5s42.333 -3.83301 63 -5.5s41.667 -2.5 63 -2.5
h13.5c4.33301 0 8.83301 0.333008 13.5 1l95 182l111.5 214.5l107.5 217.5c3.33301 3.33301 6 5 8 5h21c2.66699 -1.33301 4.66699 -2.66602 6 -3.99902s2 -4 2 -8l-103.5 -208l-106.5 -206l-47.5 -94l-48.5 -94c19.333 4 37.833 10 55.5 18s34.5 19 50.5 33
s30.667 31.667 44 53s25 47 35 77c2 2 4.33301 3 7 3c3.33301 0 5.83301 -0.666992 7.5 -2s2.5 -4.66602 2.5 -9.99902c-12 -34 -25.5 -62.667 -40.5 -86s-31.5 -42.5 -49.5 -57.5s-37.167 -26.333 -57.5 -34s-41.833 -12.834 -64.5 -15.501l-91.5 -181l-80.5 -166.5
c-24 -51.667 -44.667 -98.334 -62 -140.001s-29.333 -75.834 -36 -102.501c-3.33301 -13.333 -6.16602 -26.833 -8.49902 -40.5s-3.5 -27.167 -3.5 -40.5c0 -23.333 3.5 -43.333 10.5 -60s16.167 -30.5 27.5 -41.5s24.5 -19.167 39.5 -24.5s30.167 -8 45.5 -8
c28 0 56.667 5.83301 86 17.5s55.833 27.834 79.5 48.501s43 45.167 58 73.5s22.5 58.833 22.5 91.5c0 4 -0.166992 8 -0.5 12s-0.833008 8.33301 -1.5 13c0 5.33301 2.66699 9 8 11c2.66699 0 4.66699 -1.5 6 -4.5s2.33301 -6.5 3 -10.5s1 -8 1 -12v-10
c0 -36 -8.16699 -69.167 -24.5 -99.5s-37.5 -56.666 -63.5 -78.999s-55.167 -39.666 -87.5 -51.999s-64.833 -18.5 -97.5 -18.5c-19.333 0 -38.166 2.83301 -56.499 8.5s-34.5 14.667 -48.5 27s-25.333 28.166 -34 47.499s-13 42.666 -13 69.999c0 24.667 4 53 12 85
c6.66699 26 18.5 59.333 35.5 100s37.333 86.5 61 137.5l79 164.5l90.5 181h-19c-22 0 -43.5 0.833008 -64.5 2.5s-42.167 3.5 -63.5 5.5s-42.833 3.83301 -64.5 5.5s-43.834 2.5 -66.501 2.5c-20.667 0 -41.334 -1 -62.001 -3l-5.5 -13.5
c-2.33301 -5.66699 -5.83301 -14.834 -10.5 -27.501l-38.5 -87l-49.5 -107c-18 -37.333 -37.333 -74.333 -58 -111s-41.667 -69.667 -63 -99s-42.666 -53.166 -63.999 -71.499s-41.666 -27.5 -60.999 -27.5c-14 0 -26.167 3.16699 -36.5 9.5s-19 15 -26 26
s-12.167 23.667 -15.5 38s-5 29.166 -5 44.499c0 24.667 4.66699 52.5 14 83.5s24.333 63.5 45 97.5c26 40.667 52.833 76.167 80.5 106.5s56 56 85 77s58.167 37.5 87.5 49.5s58.333 20.667 87 26l70 154l111 243c38 82 79.333 163.667 124 245
c-24.667 -8.66699 -51.667 -15.167 -81 -19.5s-59.166 -6.5 -89.499 -6.5s-60.333 1.83301 -90 5.5s-57.167 9.16699 -82.5 16.5zM935 1233c-13.333 -16.667 -27.001 -35.001 -41.001 -55.001s-28.667 -42.667 -44 -68c13.333 9.33301 26.833 20 40.5 32s26 24.833 37 38.5
s19.833 27.334 26.5 41.001s10 26.834 10 39.501c0 0.666992 0.333008 1 1 1c-3.33301 -0.666992 -7.66602 -3.83398 -12.999 -9.50098s-11 -12.167 -17 -19.5zM200.999 -97c12.667 11.333 26.334 27.5 41.001 48.5s29.667 45 45 72s30.666 55.667 45.999 86l44.5 90.5
l40 86.5l32.5 73.5l15 33c-27.333 -5.33301 -54.5 -13.833 -81.5 -25.5s-54 -27.167 -81 -46.5s-53.5 -43.5 -79.5 -72.5s-51 -63.5 -75 -103.5c-19.333 -33.333 -33.666 -64.333 -42.999 -93s-14 -54.667 -14 -78c0 -32 6.33301 -55.833 19 -71.5s25.667 -23.5 39 -23.5
c15.333 0 32.666 8 51.999 24z" />
    <glyph glyph-name="I" unicode="I" horiz-adv-x="647" 
d="M92 -108c-14.667 13.333 -25.165 27.666 -31.498 42.999s-9.5 31 -9.5 47c0 15.333 2.66699 30.833 8 46.5s12.166 30.834 20.499 45.501s18.166 28.667 29.499 42s23 25 35 35c86 73.333 184.333 127.666 295 162.999l103 224l118.5 260.5
c39 85 81.5 169.167 127.5 252.5c-28.667 -10 -58.334 -17 -89.001 -21s-61 -6 -91 -6c-6 0 -9 3 -9 9c0 2 0.833008 4 2.5 6s3.83398 3 6.50098 3h15c30 0 60.5 2.83301 91.5 8.5s60.167 13.834 87.5 24.501l54.5 92c17 27.333 34.167 50.666 51.5 69.999
c2 2.66699 5.5 6.83398 10.5 12.501s10.5 11.5 16.5 17.5s12.333 11.167 19 15.5s12.667 6.5 18 6.5c8 0 13.667 -3.66699 17 -11s5 -14 5 -20c0 -13.333 -4.16699 -27.333 -12.5 -42l-20.5 -35c-14.667 -23.333 -32.167 -43.833 -52.5 -61.5s-42.5 -32.167 -66.5 -43.5
c-44 -78.667 -87.5 -163.834 -130.5 -255.501l-125.5 -274.5l-99 -218c29.333 8 59.666 14.667 90.999 20c1.33301 0 3 -0.666992 5 -2s3 -3.33301 3 -6c0 -2 -2.16699 -4 -6.5 -6s-10 -4 -17 -6l-23.5 -6.5c-8.66699 -2.33301 -17.334 -4.5 -26.001 -6.5l-35 -8l-89.5 -184
c-29.667 -58.667 -59.834 -114.667 -90.501 -168c-15.333 -26 -34.666 -48 -57.999 -66s-48.666 -27 -75.999 -27c-12 0 -24.167 2.33301 -36.5 7s-24.166 12.334 -35.499 23.001zM262.002 -36c28 49.333 55.333 100.673 82 154.006l85 174
c-102 -34.667 -193.333 -86.334 -274 -155.001c-11.333 -9.33301 -22.166 -19.833 -32.499 -31.5s-19.5 -24.334 -27.5 -38.001s-14.333 -27.834 -19 -42.501s-7 -29 -7 -43c0 -10.667 2.33301 -21.834 7 -33.501s11 -22.334 19 -32.001s17.333 -17.667 28 -24
s22.334 -9.5 35.001 -9.5c21.333 0 41.166 8.16699 59.499 24.5s33.166 35.166 44.499 56.499zM943.002 1227.01c-13.333 -16.667 -27.001 -35.1689 -41.001 -55.502s-28.667 -43.166 -44 -68.499c15.333 10 29.833 21.5 43.5 34.5s25.834 26.5 36.501 40.5
s19 27.833 25 41.5s9 25.834 9 36.501v1c-4 -0.666992 -13.667 -10.667 -29 -30z" />
    <glyph glyph-name="J" unicode="J" horiz-adv-x="815" 
d="M607 -12l-50.001 26.9961c-16 8.66699 -34 16.667 -54 24c-2 -3.33301 -4.16699 -7.16602 -6.5 -11.499s-4.16602 -8.5 -5.49902 -12.5l-32 -68c-12 -25.333 -25 -50.666 -39 -75.999s-28.333 -49.166 -43 -71.499s-29 -39.833 -43 -52.5c-34 -30.667 -71 -46 -111 -46
c-21.333 0 -41.333 4.33301 -60 13s-34.834 20.167 -48.501 34.5s-24.334 30.5 -32.001 48.5s-11.5 36.333 -11.5 55c0 33.333 8.5 64.833 25.5 94.5s38.833 55.5 65.5 77.5s56.167 39.5 88.5 52.5s63.5 19.5 93.5 19.5c22.667 0 45 -2.5 67 -7.5s44 -11.167 66 -18.5
c34 68.667 66.333 137.834 97 207.501l94 210.5l128 283c42 92.667 85 178.334 129 257.001c-26 -6 -57 -9 -93 -9c-28 0 -56.667 2.5 -86 7.5s-55.833 13.5 -79.5 25.5s-43 27.667 -58 47s-22.5 43.666 -22.5 72.999c0 4 0.333008 8.66699 1 14s3.66699 8 9 8
c2 0 4 -1 6 -3s3 -4 3 -6v-9c0 -26 6.66699 -47.833 20 -65.5s30.5 -31.834 51.5 -42.501s44.833 -18.334 71.5 -23.001s53 -7 79 -7c20.667 0 40.5 1.16699 59.5 3.5s36.167 5.5 51.5 9.5c18 32.667 36.833 63.5 56.5 92.5s38.5 54.333 56.5 76s34.5 38.834 49.5 51.501
s27.167 19 36.5 19s16.333 -3.16699 21 -9.5s7 -14.833 7 -25.5c0 -13.333 -3.83301 -29.5 -11.5 -48.5s-19.5 -38.667 -35.5 -59s-35.833 -39.666 -59.5 -57.999s-51.5 -33.5 -83.5 -45.5c-20.667 -37.333 -42 -78 -64 -122l-67.5 -139l-70 -151.5l-71.5 -159.5
l-94.5 -209.5l-96.5 -206.5l54 -26.5c20.667 -10.333 42.334 -21.833 65.001 -34.5c0 -0.666992 0.166992 -1.5 0.5 -2.5s0.5 -2.16699 0.5 -3.5c0 -2.66699 -0.666992 -5.16699 -2 -7.5s-3.66602 -2.83301 -6.99902 -1.5zM209.999 -279.004
c25.333 0 48.999 8.83301 70.999 26.5s42.667 40.334 62 68.001s37.333 58 54 91s32 64.833 46 95.5l24 51c-21.333 7.33301 -42.166 13.333 -62.499 18s-40.5 7 -60.5 7c-28.667 0 -58 -6 -88 -18s-57.167 -28.333 -81.5 -49s-44.333 -44.834 -60 -72.501
s-23.5 -57.167 -23.5 -88.5c0 -16.667 3.5 -32.667 10.5 -48s16 -29 27 -41s23.667 -21.667 38 -29s28.833 -11 43.5 -11zM1147 1249c0 10 -1.33594 14.999 -4.00293 14.999c-3.33301 0 -7.66602 -2 -12.999 -6s-10.5 -8.66699 -15.5 -14l-13.5 -15
c-4 -4.66699 -6.33301 -7.66699 -7 -9c-17.333 -21.333 -34.5 -44.333 -51.5 -69s-34.5 -52 -52.5 -82c26.667 11.333 49.667 25 69 41s35.333 32.333 48 49s22.334 32.834 29.001 48.501s10.334 29.5 11.001 41.5z" />
    <glyph glyph-name="K" unicode="K" horiz-adv-x="889" 
d="M813 1050c-25.333 -8.66699 -52.668 -15.1592 -82.001 -19.4922s-59.166 -6.5 -89.499 -6.5s-60.333 1.83301 -90 5.5s-57.167 9.16699 -82.5 16.5c28 -3.33301 57.5 -5.66602 88.5 -6.99902s62.167 -1 93.5 1s61.833 5.83301 91.5 11.5s57.5 13.5 83.5 23.5
c15.333 27.333 31.166 53.833 47.499 79.5s32 48.334 47 68.001s29 35.334 42 47.001s23.833 17.5 32.5 17.5c6 0 11 -2 15 -6s6 -10 6 -18c0 -14 -4.16699 -29.667 -12.5 -47s-19.5 -34.666 -33.5 -51.999s-30 -33.833 -48 -49.5s-36.333 -28.5 -55 -38.5
c-16.667 -30 -34.334 -63.833 -53.001 -101.5l-58 -119l-60.5 -129l-60.5 -130.5l-67 -146c14.667 11.333 30.5 24.333 47.5 39l45.5 39l65.5 58c22.333 19.333 45 36.5 68 51.5s46.5 27.167 70.5 36.5s48.667 14 74 14c28 0 56.333 -6 85 -18s59 -32.667 91 -62
c2 -2 3 -4.33301 3 -7c0 -1.33301 -1 -3 -3 -5s-3.66699 -3 -5 -3c-2.66699 0 -4.66699 0.666992 -6 2h1c-28.667 25.333 -55.834 43.5 -81.501 54.5s-50.834 16.5 -75.501 16.5c-24 0 -47.5 -4.33301 -70.5 -13s-45.667 -20.334 -68 -35.001s-44.166 -31.167 -65.499 -49.5
l-63 -55.5l-49 -43.5c-16 -13.667 -32 -26.5 -48 -38.5l-25 -17c0.666992 -0.666992 0.666992 -1 0 -1c24.667 -4 45.5 -11.667 62.5 -23s30.667 -25.833 41 -43.5s17.833 -37.834 22.5 -60.501s7 -47.334 7 -74.001c0 -38.667 -4.83301 -82.334 -14.5 -131.001
s-22.167 -99 -37.5 -151s-32.166 -104.333 -50.499 -157l-52.5 -149l-49 -138c-15.333 -44 -27 -81 -35 -111c-2 -8.66699 -3.66699 -17.334 -5 -26.001s-2 -17.334 -2 -26.001c0 -28 7.33301 -49.333 22 -64s33 -22 55 -22c17.333 0 35 4 53 12s34.5 18.833 49.5 32.5
s27.333 29.667 37 48s14.5 37.833 14.5 58.5v7.5c0 2.33301 -0.333008 5.16602 -1 8.49902c0 2 0.666992 4 2 6s3.33301 3 6 3c4.66699 0 7.33398 -2.83301 8.00098 -8.5s1 -11.167 1 -16.5c0 -24 -5.66699 -46.333 -17 -67s-25.666 -38.834 -42.999 -54.501
s-36.833 -27.834 -58.5 -36.501s-42.834 -13 -63.501 -13c-14 0 -27.333 2.16699 -40 6.5s-23.834 10.833 -33.501 19.5s-17.5 19.667 -23.5 33s-9 29.333 -9 48c0 27.333 6.83301 61.333 20.5 102s30.167 86.334 49.5 137.001l20 55l54 153
c18.667 53.333 35.834 106.333 51.501 159s28.5 103.334 38.5 152.001s15 92.667 15 132c0 48 -8.5 87.833 -25.5 119.5s-45.5 51.834 -85.5 60.501l-19 -41l-36.5 -79.5l-43.5 -92l-48 -95c-16.667 -31.667 -33 -60.834 -49 -87.501s-31.5 -49.834 -46.5 -69.501
s-28.833 -33.834 -41.5 -42.501c-25.333 -16 -50.333 -24 -75 -24c-13.333 0 -26.333 2.5 -39 7.5s-24.167 12.667 -34.5 23s-18.666 23.166 -24.999 38.499s-9.5 33.666 -9.5 54.999c0 24 7.33301 50.5 22 79.5s39.334 57.833 74.001 86.5
c3.33301 0 6.16602 -1.5 8.49902 -4.5s2.83301 -6.5 1.5 -10.5c-32 -27.333 -54.667 -53.833 -68 -79.5s-20 -49.834 -20 -72.501c0 -30 8.5 -54.5 25.5 -73.5s36.833 -28.5 59.5 -28.5c9.33301 0 19 1.83301 29 5.5s20 9.16699 30 16.5c18 14.667 36.5 36 55.5 64
s37.833 59.667 56.5 95s37 72.5 55 111.5l51 114.5l88 196l93 200l92 191.5zM967.998 1227.01c-13.333 -16.667 -26.999 -35.168 -40.999 -55.501s-28.333 -43.166 -43 -68.499c14 10 27.667 21.5 41 34.5s25.333 26.333 36 40s19.167 27.167 25.5 40.5s9.5 25.333 9.5 36
c0 1.33301 0.333008 2 1 2c-1.33301 0 -4.33301 -2.16699 -9 -6.5s-11.334 -11.833 -20.001 -22.5z" />
    <glyph glyph-name="L" unicode="L" horiz-adv-x="685" 
d="M462 1046c28 -3.33301 57.668 -5.66797 89.001 -7.00098s62.833 -1 94.5 1s62.5 5.83301 92.5 11.5s58 13.5 84 23.5c16.667 31.333 33.334 60 50.001 86s32.5 48.167 47.5 66.5s28.833 32.666 41.5 42.999s23.667 15.5 33 15.5c5.33301 0 9.66602 -2 12.999 -6
s5 -9.66699 5 -17c0 -15.333 -10.333 -42.333 -31 -81c-14 -24.667 -31.5 -45.667 -52.5 -63s-43.167 -31.666 -66.5 -42.999l-72.5 -138l-79 -159.5l-82 -171.5l-81.5 -175l-150 -315.5c-48.667 -101.667 -95 -192.834 -139 -273.501
c39.333 -7.33301 76.5 -19.5 111.5 -36.5s69.167 -34.5 102.5 -52.5c36 -20.667 71.167 -39 105.5 -55s70.5 -24 108.5 -24c37.333 0 76.833 11 118.5 33s87.5 61 137.5 117l6 3c1.33301 0 3.33301 -1 6 -3s4 -3.66699 4 -5c0 -2.66699 -1 -5 -3 -7v1
c-52.667 -58.667 -100.834 -99.5 -144.501 -122.5s-84.834 -34.5 -123.501 -34.5c-19.333 0 -38.333 2.16699 -57 6.5s-37 10.333 -55 18s-36 16.334 -54 26.001l-55 30.5l-50 28.5c-16.667 9.66699 -34 18.5 -52 26.5s-36.5 15 -55.5 21s-38.833 10.333 -59.5 13l-31 -51
c-11.333 -18 -23.666 -34.333 -36.999 -49s-28 -26.834 -44 -36.501s-33 -14.5 -51 -14.5c-18.667 0 -33.834 6 -45.501 18s-17.5 26.667 -17.5 44c0 18.667 6.33301 35 19 49s28.334 25.333 47.001 34s38.5 15.167 59.5 19.5s39.833 6.5 56.5 6.5h16l68.5 132.5l73 149.5
l76 159.5l76.5 164.5l151.5 322.5c48.333 102.333 95.166 193.833 140.499 274.5c-25.333 -8 -52.833 -14.167 -82.5 -18.5s-59.667 -6.66602 -90 -6.99902s-60.166 1.33398 -89.499 5.00098s-57 9.16699 -83 16.5zM964.001 1227
c-12.667 -15.333 -25.999 -33.333 -39.999 -54l-44 -68c14 10 27.833 21.5 41.5 34.5s25.667 26.333 36 40s18.666 27.167 24.999 40.5s9.5 25.333 9.5 36v1c-4.66699 -1.33301 -14 -11.333 -28 -30zM208.002 -170.002c-16.667 0 -34.667 -1.83008 -54 -5.49707
s-37.166 -9.33398 -53.499 -17.001s-29.833 -17.334 -40.5 -29.001s-16 -25.5 -16 -41.5c0 -10.667 3 -19.667 9 -27s14.667 -11 26 -11c14 0 27.5 4.33301 40.5 13s25 19.5 36 32.5s21.167 27.167 30.5 42.5s17.666 29.666 24.999 42.999h-3z" />
    <glyph glyph-name="M" unicode="M" horiz-adv-x="1473" 
d="M371 1046c28.667 -3.33301 58.833 -5.66504 90.5 -6.99805s63 -1 94 1s61.333 5.83301 91 11.5s57.5 13.5 83.5 23.5c18.667 33.333 37.167 63.833 55.5 91.5s35.166 51.167 50.499 70.5c2.66699 4 6.33398 8.83301 11.001 14.5s9.83398 11.167 15.501 16.5
s11.5 10 17.5 14s12 6 18 6c7.33301 0 12.666 -2.33301 15.999 -7s5 -10.667 5 -18c0 -6.66699 -1.33301 -14 -4 -22s-5.66699 -16 -9 -24s-6.66602 -15.167 -9.99902 -21.5l-7 -13.5c-14.667 -24 -32.167 -44.833 -52.5 -62.5s-42.166 -32.167 -65.499 -43.5
c-21.333 -38 -44.333 -81.667 -69 -131l-75 -155c44 43.333 85.667 78 125 104s74 39 104 39c44.667 0 67 -30.333 67 -91c0 -50.667 -15.333 -122.334 -46 -215.001s-74.334 -206 -131.001 -340l91 140l110 156.5c38.667 53 78.5 104.667 119.5 155s80.833 95 119.5 134
s75.334 70.333 110.001 94s65.334 35.5 92.001 35.5c14 0 25.833 -3.16699 35.5 -9.5s17.5 -15 23.5 -26s10.167 -23.5 12.5 -37.5s3.5 -28.667 3.5 -44c0 -17.333 -1.16699 -34.5 -3.5 -51.5s-5.5 -32.5 -9.5 -46.5c-13.333 -47.333 -31.333 -98 -54 -152
s-48 -109.333 -76 -166s-58 -114.167 -90 -172.5l-96 -171.5l-114 -204.5c-36.667 -67 -69.334 -131.333 -98.001 -193s-51.667 -119.834 -69 -174.501s-26 -104.334 -26 -149.001c0 -26 3 -49.667 9 -71s14.833 -39.666 26.5 -54.999s25.834 -27.166 42.501 -35.499
s36 -12.5 58 -12.5c28 0 55.5 6.83301 82.5 20.5s51 31.667 72 54s38 48 51 77s19.5 58.5 19.5 88.5c0 3.33301 -0.166992 6.83301 -0.5 10.5s-0.833008 8.16699 -1.5 13.5c0 4.66699 2.33301 8 7 10c6 0 9.5 -4.5 10.5 -13.5s1.5 -15.833 1.5 -20.5
c0 -34 -7.16699 -66.5 -21.5 -97.5s-33.5 -58.333 -57.5 -82s-51.333 -42.667 -82 -57s-62.334 -21.5 -95.001 -21.5c-48 0 -87 16.833 -117 50.5s-45 80.5 -45 140.5c0 42.667 9.16699 92.167 27.5 148.5s42.166 116.333 71.499 180s62.333 129.5 99 197.5l111 201
l95.5 171.5l90 170.5c28.333 56 53.666 110.833 75.999 164.5s39.833 105.167 52.5 154.5c4 14 7.33301 29.833 10 47.5s4 34.5 4 50.5c0 24 -3.66699 45 -11 63s-20.333 27 -39 27c-22 0 -47.833 -10.167 -77.5 -30.5s-61.5 -47.333 -95.5 -81s-69.167 -72.667 -105.5 -117
s-72.166 -90.333 -107.499 -138l-102.5 -143.5l-89.5 -135l-69 -111c-19.333 -32 -33 -56 -41 -72c0 -3.33301 -1.33301 -5.66602 -4 -6.99902s-9.66699 -2 -21 -2c-1.33301 0 -2.5 0.166992 -3.5 0.5s-1.83301 0.5 -2.5 0.5h-1l-2 1c-4 2 -5.33301 6.66699 -4 14
c75.333 171.333 133.833 315 175.5 431s62.5 201.667 62.5 257c0 23.333 -3.66699 40.166 -11 50.499s-17.333 15.5 -30 15.5c-14.667 0 -31.667 -5.16699 -51 -15.5s-39.833 -23.5 -61.5 -39.5s-43.5 -34 -65.5 -54s-42.667 -40 -62 -60l-31 -66.5l-30 -68.5l-140.5 -306
c-47.667 -101.333 -94.834 -195 -141.501 -281c-1.33301 -2.66699 -3 -5.66699 -5 -9s-3.66699 -6.33301 -5 -9l-25.5 -46.5c-9 -16.333 -18.833 -31.166 -29.5 -44.499s-21.834 -24.5 -33.501 -33.5s-24.167 -13.5 -37.5 -13.5c-12 0 -21.667 4.33301 -29 13
s-11 23.667 -11 45c0 22.667 5.16699 49.834 15.5 81.501s24.166 65.667 41.499 102s37.5 74.166 60.5 113.499s47.333 78.666 73 117.999l78 115.5l75.5 104.5l66 86c20 25.333 36.667 45.333 50 60l87 184.5c27.333 56.333 55 110.166 83 161.499
c-25.333 -8.66699 -52.666 -15.167 -81.999 -19.5s-59.166 -6.5 -89.499 -6.5s-60.333 1.83301 -90 5.5s-57.5 9.16699 -83.5 16.5zM871.999 1227c-13.333 -16.667 -27.001 -35.168 -41.001 -55.501s-28.667 -43.166 -44 -68.499c14.667 9.33301 28.667 20.5 42 33.5
s25.333 26.5 36 40.5s19.167 27.833 25.5 41.5s9.5 26.167 9.5 37.5v1c-3.33301 -0.666992 -12.666 -10.667 -27.999 -30zM229.998 38c36 66 71.002 135.664 105.002 208.997l104 225l20.5 45.5l18.5 40l18 40c6 13.667 13 28.834 21 45.501l-75.5 -99l-89.5 -124.5
l-91 -137.5c-30 -47.333 -56.667 -93 -80 -137s-42.333 -85.167 -57 -123.5s-22 -70.5 -22 -96.5c0 -14 1.66699 -24 5 -30s7 -9 11 -9c8 0 17.167 5.33301 27.5 16s20.666 23.834 30.999 39.501s20.166 32.334 29.499 50.001z" />
    <glyph glyph-name="N" unicode="N" horiz-adv-x="976" 
d="M371 1041c22.667 -2 48.3291 -3.33008 76.9961 -3.99707s58.167 0.166016 88.5 2.49902s60.5 6.33301 90.5 12s58 13.5 84 23.5c18 32.667 36.167 63 54.5 91s35.166 51.667 50.499 71c2 2.66699 5.66699 6.83398 11 12.501s11.333 11.5 18 17.5
s13.334 11.167 20.001 15.5s12.667 6.5 18 6.5c11.333 0 17 -8.66699 17 -26c0 -14.667 -4.16699 -30.667 -12.5 -48s-19.5 -34.666 -33.5 -51.999s-30 -33.666 -48 -48.999s-36.333 -28 -55 -38l-62.5 -120l-66.5 -137c48.667 48.667 95.5 87.667 140.5 117
s84.5 44 118.5 44c12 0 24 -2.5 36 -7.5s22.833 -12.833 32.5 -23.5s17.334 -23.834 23.001 -39.501s8.5 -34.5 8.5 -56.5c0 -29.333 -5.16699 -62.833 -15.5 -100.5s-24.5 -78.334 -42.5 -122.001s-39 -89.667 -63 -138s-50 -98 -78 -149l-87.5 -154.5l-90.5 -154
l-99.5 -172.5c-33 -57.667 -63 -112.334 -90 -164.001s-49.833 -99 -68.5 -142s-30 -78.167 -34 -105.5c-1.33301 -9.33301 -2.5 -18.833 -3.5 -28.5s-1.5 -19.167 -1.5 -28.5c0 -24 3.33301 -45.833 10 -65.5s15.834 -36.5 27.501 -50.5s25.5 -25 41.5 -33
s33.333 -12 52 -12c26.667 0 53.667 6 81 18s52 28.333 74 49s40 45.167 54 73.5s21 58.833 21 91.5c0 4.66699 -0.166992 9.33398 -0.5 14.001s-0.833008 9.66699 -1.5 15c0 3.33301 0.833008 5.5 2.5 6.5s3.83398 2.16699 6.50098 3.5
c2.66699 0 4.83398 -1.5 6.50098 -4.5s2.83398 -6.66699 3.50098 -11s1 -8.66602 1 -12.999v-9.5c0 -36 -7.66699 -69.5 -23 -100.5s-35.333 -57.667 -60 -80s-52.334 -39.833 -83.001 -52.5s-61.334 -19 -92.001 -19c-16.667 0 -32.834 2.16699 -48.501 6.5
s-30.5 11.5 -44.5 21.5c-20 13.333 -36.167 32.666 -48.5 57.999s-18.5 57.333 -18.5 96c0 9.33301 0.5 18.666 1.5 27.999s2.16699 19.333 3.5 30c4.66699 29.333 15.834 65 33.501 107s39.834 88.5 66.501 139.5s56.834 105.5 90.501 163.5l104.5 179v-1l24 42l58 96
l73.5 127l77.5 144.5c26 50.333 49.167 100 69.5 149s37 95.667 50 140s19.5 83.5 19.5 117.5c0 12.667 -1.33301 25.167 -4 37.5s-6.83398 23.333 -12.501 33s-13 17.334 -22 23.001s-19.833 8.5 -32.5 8.5c-16 0 -34.333 -4.83301 -55 -14.5s-42.667 -22.834 -66 -39.501
s-47.666 -36.667 -72.999 -60s-51 -48.333 -77 -75l1 1l-99 -220l-128.5 -277.5c-45 -95 -92.833 -188.167 -143.5 -279.5c0 -1.33301 -0.5 -2.83301 -1.5 -4.5s-1.5 -2.83398 -1.5 -3.50098l-21 -37c-8 -14 -17.167 -27.333 -27.5 -40s-21.333 -23.334 -33 -32.001
s-23.834 -13 -36.501 -13c-11.333 0 -21 4.66699 -29 14s-12 23 -12 41c0 24 6.16699 54.333 18.5 91s29.333 77.667 51 123s47.334 93.5 77.001 144.5s62 102.667 97 155s72 104 111 155s78.833 99.167 119.5 144.5l-1 -1l80 169c25.333 51.333 51.333 101 78 149
c-23.333 -8 -48.833 -14.167 -76.5 -18.5s-55.834 -6.83301 -84.501 -7.5s-57.167 0.5 -85.5 3.5s-54.833 7.5 -79.5 13.5zM852.995 1227c-14 -16.667 -27.999 -35.1689 -41.999 -55.502s-28.333 -43.166 -43 -68.499c14.667 10 28.667 21.5 42 34.5s25.333 26.5 36 40.5
s19.167 27.667 25.5 41s9.5 25.333 9.5 36c0 1.33301 0.666992 2 2 2c-2 0 -5.33301 -2.16699 -10 -6.5s-11.334 -12.166 -20.001 -23.499zM196.996 12.001c46 83.333 90.668 171.499 134.001 264.499l129 282.5l14.5 31.5l12.5 26.5l12 26.5l14 31.5
c-36.667 -43.333 -72.667 -89 -108 -137s-69 -96.333 -101 -145s-61.333 -96.667 -88 -144s-49.834 -91.666 -69.501 -132.999s-35 -78.833 -46 -112.5s-16.5 -61.5 -16.5 -83.5c0 -20.667 4.66699 -31 14 -31c8.66699 0 17.667 4.33301 27 13s18.333 19.167 27 31.5
s16.667 25 24 38s13 23.833 17 32.5z" />
    <glyph glyph-name="O" unicode="O" horiz-adv-x="653" 
d="M546 822c20 -32.667 31.8379 -71.5 35.5049 -116.5s0.833984 -93 -8.49902 -144s-24.333 -103.833 -45 -158.5s-45.334 -108 -74.001 -160s-60 -101 -94 -147s-69.333 -86.5 -106 -121.5s-73.334 -62.667 -110.001 -83s-72 -30.5 -106 -30.5
c-38.667 0 -70.834 13.667 -96.501 41s-39.5 67 -41.5 119v9c0 1.33301 -0.166992 2.83301 -0.5 4.5s-0.5 3.5 -0.5 5.5c0 40.667 5.33301 85.334 16 134.001s25 99.167 43 151.5s38.833 105.166 62.5 158.499s48.5 105 74.5 155s52.667 96.833 80 140.5
s53.333 82.167 78 115.5c20.667 28 42.167 54.5 64.5 79.5s46.166 47.5 71.499 67.5c10.667 8.66699 24.167 18.5 40.5 29.5s33.833 21 52.5 30s38 16.667 58 23s39.333 9.5 58 9.5c28 0 51 -8.33301 69 -25s27 -39 27 -67c0 -17.333 -2.83301 -35.166 -8.5 -53.499
s-12.667 -36 -21 -53s-17.5 -32.833 -27.5 -47.5s-19 -26.667 -27 -36c-2 -2 -4 -3 -6 -3s-4.16699 1.16699 -6.5 3.5s-2.83301 5.5 -1.5 9.5c7.33301 8.66699 15.666 20.167 24.999 34.5s18 29.666 26 45.999s14.833 33.166 20.5 50.499s8.5 33.666 8.5 48.999
c0 21.333 -6.5 38.833 -19.5 52.5s-30.5 20.5 -52.5 20.5c-14.667 0 -30.5 -3 -47.5 -9s-33.833 -13.333 -50.5 -22s-32.334 -18 -47.001 -28s-27 -19 -37 -27c-24 -20.667 -47.5 -43 -70.5 -67s-44.167 -49.667 -63.5 -77c-25.333 -33.333 -51.5 -71.666 -78.5 -114.999
s-53.333 -89.666 -79 -138.999s-50.167 -100.5 -73.5 -153.5s-43.833 -105.333 -61.5 -157s-31.5 -101.5 -41.5 -149.5s-15 -92 -15 -132c0 -48 9.33301 -86.167 28 -114.5s45.667 -42.5 81 -42.5c23.333 0 49.333 6.66699 78 20c39.333 26 80 60.667 122 104
s82 91.5 120 144.5s72.5 109.333 103.5 169s55.5 119.167 73.5 178.5s27.833 116.833 29.5 172.5s-7.83301 106.167 -28.5 151.5z" />
    <glyph glyph-name="P" unicode="P" horiz-adv-x="931" 
d="M787 1059c-34 -11.333 -64.1719 -20.665 -90.5049 -27.998s-52.166 -10.833 -77.499 -10.5s-51.666 5 -78.999 14s-58.666 23.833 -93.999 44.5c38 -18 71.5 -30.167 100.5 -36.5s56.5 -8.5 82.5 -6.5s52.5 7.5 79.5 16.5l93.5 32.5c15.333 28 31 54.167 47 78.5
s31.167 45.5 45.5 63.5s28 32.167 41 42.5s24.167 15.5 33.5 15.5c16 0 24 -9.33301 24 -28c0 -12 -4.83301 -25.667 -14.5 -41s-21.834 -30.833 -36.501 -46.5s-30.667 -30.5 -48 -44.5s-33.333 -25.667 -48 -35l-17.5 -29.5
c-4.33301 -7.66699 -10.166 -18.834 -17.499 -33.501c13.333 8 28 15.5 44 22.5s32.667 13.167 50 18.5s35 9.66602 53 12.999s35.333 5 52 5c28.667 0 53.667 -4 75 -12s39 -18.5 53 -31.5s24.333 -27.667 31 -44s10 -32.5 10 -48.5c0 -24 -5 -49.167 -15 -75.5
s-22.5 -52 -37.5 -77s-31.167 -48.333 -48.5 -70s-33.333 -39.834 -48 -54.501c-31.333 -31.333 -66 -61 -104 -89s-77.833 -52.5 -119.5 -73.5s-84.334 -37.833 -128.001 -50.5s-86.834 -19 -129.501 -19h-9c-1.33301 0 -2.16602 0.166992 -2.49902 0.5
s-1.16602 0.5 -2.49902 0.5l-96.5 -205.5l-96.5 -192.5h1c-1.33301 -3.33301 -3.33301 -6.66602 -6 -9.99902s-4.66699 -6.66602 -6 -9.99902c-9.33301 -18 -19.5 -36.5 -30.5 -55.5s-23.167 -36.333 -36.5 -52s-28.5 -28.5 -45.5 -38.5s-36.167 -15 -57.5 -15
c-15.333 0 -29.833 2.83301 -43.5 8.5s-25.834 13.667 -36.501 24s-19.167 22.833 -25.5 37.5s-9.5 31 -9.5 49c0 16 2.5 31.833 7.5 47.5s11.833 30.834 20.5 45.501s18.5 28.5 29.5 41.5s22.5 24.5 34.5 34.5l5 2c2.66699 0 5 -1.16699 7 -3.5s2.33301 -6.16602 1 -11.499
c-11.333 -9.33301 -22.166 -20 -32.499 -32s-19.666 -24.833 -27.999 -38.5s-15 -27.834 -20 -42.501s-7.5 -29 -7.5 -43c0 -14.667 2.33301 -28 7 -40s11 -22.333 19 -31s17.167 -15.334 27.5 -20.001s20.833 -7 31.5 -7c17.333 0 33.666 5.33301 48.999 16
s29.5 24 42.5 40s24.833 33.667 35.5 53s20.334 37.666 29.001 54.999l7 14c30.667 58.667 60.834 120 90.501 184l91.5 200l-15 2.5c-6 1 -11.667 2.33301 -17 4s-9.83301 3.5 -13.5 5.5s-5.5 4.33301 -5.5 7c0 2 0.333008 3.33301 1 4c2 2 4.33301 3 7 3
c10.667 0 21.667 -1.66699 33 -5l20 -5l52 112l51 112l33.5 74l37 78.5l47 95.5zM825.995 1015c-4.66699 -2 -9.50098 -4.33594 -14.501 -7.00293s-10.5 -6.33398 -16.5 -11.001l1 2c-41.333 -78.667 -83.166 -163.834 -125.499 -255.501l-127.5 -284.5
c42 0.666992 85 8.66699 129 24s87 34.833 129 58.5s81.5 50.167 118.5 79.5s69.5 59 97.5 89c13.333 14 27.333 30.667 42 50s28 39.833 40 61.5s22 43.834 30 66.501s12 44.334 12 65.001c0 13.333 -2.5 26.833 -7.5 40.5s-13.333 25.834 -25 36.501
s-26.667 19.334 -45 26.001s-40.833 10 -67.5 10c-30 0 -59.667 -5.16699 -89 -15.5s-56.333 -22.166 -81 -35.499zM936.994 1227c-12 -14 -23.668 -29.502 -35.001 -46.502l-36 -55.5c12 8 24.167 17.333 36.5 28s23.833 21.834 34.5 33.501s19.334 23.334 26.001 35.001
s10 22.5 10 32.5c0 2.66699 -0.333008 4 -1 4c-5.33301 0 -17 -10.333 -35 -31z" />
    <glyph glyph-name="Q" unicode="Q" horiz-adv-x="842" 
d="M692 837c22.667 -37.333 36.999 -78.665 42.999 -123.998s6 -92.5 0 -141.5s-16.667 -98.167 -32 -147.5s-32.833 -96.833 -52.5 -142.5s-39.834 -87.834 -60.501 -126.501s-39.334 -71.667 -56.001 -99c-14.667 -24 -31.667 -48.833 -51 -74.5s-40.833 -49 -64.5 -70
s-48.834 -38.333 -75.501 -52s-55 -20.5 -85 -20.5c-14 0 -27.333 1.33301 -40 4c-4.66699 -20.667 -9.5 -40.834 -14.5 -60.501s-11.167 -38.167 -18.5 -55.5c36 -8 70.5 -20.167 103.5 -36.5s64.833 -33.5 95.5 -51.5c36 -20 71.167 -38 105.5 -54s70.5 -24 108.5 -24
c36.667 0 75.834 11.167 117.501 33.5s87.834 61.166 138.501 116.499l6 3c2 0 3.83301 -1 5.5 -3s2.5 -3.66699 2.5 -5c0 -3.33301 -0.333008 -5.66602 -1 -6.99902v1c-26 -29.333 -51 -54 -75 -74s-47 -36 -69 -48s-43.333 -20.667 -64 -26s-41 -8 -61 -8
c-38 0 -74.667 8.16699 -110 24.5s-71.666 34.833 -108.999 55.5c-30.667 17.333 -62.5 34 -95.5 50s-68.5 28 -106.5 36c-8 -18 -18.333 -35.667 -31 -53s-27 -33 -43 -47s-33.333 -25.333 -52 -34s-37.667 -13 -57 -13c-14 0 -27 4.33301 -39 13s-18 21.667 -18 39
c0 20.667 6.33301 38.667 19 54s28.5 27.666 47.5 36.999s39.333 16.333 61 21s41.167 7 58.5 7h24c8 19.333 14.5 39.833 19.5 61.5l14.5 65.5c-26 17.333 -44.333 42.5 -55 75.5s-16 70.833 -16 113.5c0 32 2.66699 66.667 8 104s12.333 75.666 21 114.999
s18.834 79 30.501 119s23.834 78.833 36.501 116.5s25.5 73.167 38.5 106.5s25.5 63 37.5 89c20 42.667 43 87.334 69 134.001s54.667 90.667 86 132s65.5 78.5 102.5 111.5s76.167 57.5 117.5 73.5c8.66699 2.66699 18.167 4.83398 28.5 6.50098s20.5 2.5 30.5 2.5
c12 0 23.5 -1.66699 34.5 -5s20.667 -8.83301 29 -16.5s15 -18 20 -31s7.5 -28.833 7.5 -47.5c0 -15.333 -1.83301 -31.166 -5.5 -47.499s-8.66699 -32.166 -15 -47.499s-13.333 -30.166 -21 -44.499s-15.5 -27.5 -23.5 -39.5v1c-2 -4 -4.66699 -6 -8 -6
s-5.5 1.16699 -6.5 3.5s-1.5 4.16602 -1.5 5.49902c0 3.33301 0.333008 5.66602 1 6.99902v-1c15.333 22 29.666 48.167 42.999 78.5s20 60.166 20 89.499s-6.66699 50.166 -20 62.499s-28.333 18.5 -45 18.5c-16 0 -32.333 -3 -49 -9s-33.167 -13.833 -49.5 -23.5
s-32.166 -20.834 -47.499 -33.501s-29.333 -25.334 -42 -38.001c-22.667 -22.667 -44.167 -47.667 -64.5 -75s-39.5 -55.833 -57.5 -85.5s-34.833 -60 -50.5 -91l-44.5 -91.5c-18 -39.333 -37 -85.833 -57 -139.5s-38.333 -109.667 -55 -168s-30.5 -116.666 -41.5 -174.999
s-16.5 -111.833 -16.5 -160.5c0 -32 2.83301 -61.167 8.5 -87.5s15.167 -48.166 28.5 -65.499l8 68c4 30.667 8.33301 61.167 13 91.5s11 57.833 19 82.5s18.5 44.667 31.5 60s29.833 23 50.5 23c10.667 0 20.334 -2.33301 29.001 -7s16 -11 22 -19s10.667 -17 14 -27
s5 -20.333 5 -31c0 -14 -2.66699 -26.667 -8 -38s-12.333 -21.5 -21 -30.5s-18.334 -16.833 -29.001 -23.5s-21.334 -12 -32.001 -16c-8.66699 0 -13 2.66699 -13 8c0 4 2 6.66699 6 8c9.33301 4 18.833 9 28.5 15s18.334 12.667 26.001 20s14 15.833 19 25.5
s7.5 20.167 7.5 31.5c0 16 -4.16699 30.333 -12.5 43s-18.5 19 -30.5 19c-14.667 0 -26.834 -7.5 -36.501 -22.5s-17.667 -34.333 -24 -58s-11.5 -50 -15.5 -79s-7.33301 -57.5 -10 -85.5l-5.5 -45.5c-1.66699 -13.667 -3.5 -27.167 -5.5 -40.5
c7.33301 -3.33301 15.166 -5.83301 23.499 -7.5s16.5 -2.5 24.5 -2.5c26 0 51.5 7.5 76.5 22.5s48.5 33.167 70.5 54.5s41.667 43.833 59 67.5s31.333 44.5 42 62.5l53 96.5c20 37.667 39.667 78.5 59 122.5s37.333 90.333 54 139s28.834 97.167 36.501 145.5
s9.66699 95.333 6 141s-15.5 87.834 -35.5 126.501zM-12.001 -416.999c14 0 28.332 4.16602 42.999 12.499s28.834 19 42.501 32s26.167 27.333 37.5 43s20.666 30.834 27.999 45.501h-19c-16 0 -33.667 -2 -53 -6s-37.166 -10 -53.499 -18s-30.166 -18.333 -41.499 -31
s-17 -28 -17 -46c0 -11.333 3.66699 -19.5 11 -24.5s14.666 -7.5 21.999 -7.5z" />
    <glyph glyph-name="R" unicode="R" horiz-adv-x="998" 
d="M842 1062c-32 -11.333 -59.835 -20.166 -83.502 -26.499s-46.667 -10 -69 -11s-45.833 1.33301 -70.5 7s-54.334 15.5 -89.001 29.5c37.333 -10 69.166 -16.667 95.499 -20s51 -3.5 74 -0.5s46.667 8.5 71 16.5s53.5 18.333 87.5 31c15.333 28 31 54.167 47 78.5
s31.167 45.5 45.5 63.5s27.833 32.167 40.5 42.5s23.667 15.5 33 15.5c16.667 0 25 -9.33301 25 -28c0 -12.667 -4.83301 -26.834 -14.5 -42.501s-22 -31.167 -37 -46.5s-31.167 -30 -48.5 -44s-33.333 -25.333 -48 -34l1 2l-16 -28l-10.5 -18
c-2.33301 -4 -5.83301 -10.667 -10.5 -20c29.333 15.333 61.833 28.666 97.5 39.999s70.834 17 105.501 17c30 0 55.667 -3.83301 77 -11.5s38.833 -17.667 52.5 -30s23.667 -26.666 30 -42.999s9.5 -32.833 9.5 -49.5c0 -21.333 -4 -43.333 -12 -66
s-17.333 -44.334 -28 -65.001c-25.333 -44.667 -58.166 -88.167 -98.499 -130.5s-84.666 -80.5 -132.999 -114.5s-99.333 -62.5 -153 -85.5s-106.5 -37.167 -158.5 -42.5c37.333 -16 63 -42.333 77 -79s21 -80.334 21 -131.001c0 -46.667 -4.66699 -96.667 -14 -150
s-21.166 -107.333 -35.499 -162s-30.166 -108.5 -47.499 -161.5l-50 -148.5l-20 -58l-22 -62.5l-21 -62c-6.66699 -20.333 -12.334 -39.166 -17.001 -56.499c-3.33301 -9.33301 -5.5 -18.333 -6.5 -27s-1.5 -16.667 -1.5 -24c0 -26 6.33301 -47.167 19 -63.5
s30.667 -24.5 54 -24.5c22 0 46.333 7.33301 73 22c24 12.667 44.333 30.167 61 52.5s25 48.5 25 78.5c0 1.33301 -0.166992 2.83301 -0.5 4.5s-0.5 3.16699 -0.5 4.5v8c0 1.33301 0.666992 3 2 5s3.33301 3 6 3c5.33301 0 8.33301 -2.83301 9 -8.5s1 -11.834 1 -18.501
c0 -26 -6.16699 -49.5 -18.5 -70.5s-27.833 -38.833 -46.5 -53.5s-38.667 -26 -60 -34s-41 -12 -59 -12c-30.667 0 -55.5 9.5 -74.5 28.5s-28.5 46.167 -28.5 81.5c0 17.333 2.33301 35 7 53c12 46.667 26.5 95 43.5 145l49.5 144l48 140.5
c16 47.667 30.333 95.167 43 142.5s23 94.833 31 142.5s12 94.5 12 140.5c0 27.333 -2.16699 52.666 -6.5 75.999s-11.5 44 -21.5 62s-23 32.667 -39 44s-35.333 19 -58 23l-119 -254.5c-40 -82.333 -80.333 -158.833 -121 -229.5
c-15.333 -25.333 -34.666 -47.166 -57.999 -65.499s-48.333 -27.5 -75 -27.5c-16.667 0 -32 3.66699 -46 11s-26 16.833 -36 28.5s-17.833 24.834 -23.5 39.501s-8.5 29.667 -8.5 45c0 25.333 7.33301 52.166 22 80.499s39.334 57.166 74.001 86.499
c3.33301 0 6.16602 -1.16699 8.49902 -3.5s2.83301 -6.16602 1.5 -11.499c-32 -26.667 -54.667 -52.834 -68 -78.501s-20 -49.5 -20 -71.5c0 -12 2 -24.167 6 -36.5s9.83301 -23.666 17.5 -33.999s16.834 -18.833 27.501 -25.5s23 -10 37 -10c10.667 0 21.167 2.5 31.5 7.5
s20 11.5 29 19.5s17.167 16.833 24.5 26.5s13.666 19.167 18.999 28.5v-1c37.333 65.333 76.166 139.666 116.499 222.999l121.5 260c-4.66699 0.666992 -10 1.33398 -16 2.00098s-11.667 1.83398 -17 3.50098s-9.83301 3.5 -13.5 5.5s-5.5 4.66699 -5.5 8
c0 2 0.333008 3.33301 1 4c2 2 4.66699 3 8 3c8.66699 0 19 -1.66699 31 -5l20 -5l92.5 203l72 158.5l61 127c19 37.667 38.833 73.834 59.5 108.501zM657.998 595c-9.33301 -22 -19.335 -44.168 -30.002 -66.501s-20.667 -44.5 -30 -66.5
c34.667 2.66699 71 10.167 109 22.5s75.833 28 113.5 47s74.5 41 110.5 66s69.667 52 101 81s59.333 59.167 84 90.5s44.334 63 59.001 95c14.667 32.667 22 62.334 22 89.001c0 14.667 -2.66699 29 -8 43s-13.833 26.333 -25.5 37s-26.667 19.167 -45 25.5
s-40.166 9.5 -65.499 9.5c-36 0 -71.667 -6.83301 -107 -20.5s-67 -29.167 -95 -46.5l1 2c-35.333 -66.667 -68.5 -134.167 -99.5 -202.5zM992.996 1230c-12 -14 -23.833 -29.501 -35.5 -46.501s-23.5 -35.5 -35.5 -55.5c12 8 24.167 17.333 36.5 28
s23.5 21.834 33.5 33.501s18.167 23 24.5 34s9.5 21.167 9.5 30.5c0 2.66699 -0.333008 4 -1 4c-2.66699 0 -6.5 -2 -11.5 -6s-11.833 -11.333 -20.5 -22z" />
    <glyph glyph-name="S" unicode="S" horiz-adv-x="895" 
d="M723 1144c-11.333 -36 -19 -73.998 -23 -113.998s-6.33301 -81 -7 -123c52 44 93.5 90.167 124.5 138.5s46.5 97.166 46.5 146.499c0 23.333 -4.83301 41.5 -14.5 54.5s-20.167 19.5 -31.5 19.5c-10.667 0 -21.167 -5 -31.5 -15s-19.833 -21.667 -28.5 -35
s-16.167 -26.833 -22.5 -40.5s-10.5 -23.834 -12.5 -30.501v-1zM702 426.002c-2 -41.333 -6.33008 -81.666 -12.9971 -120.999s-16.834 -77.333 -30.501 -114s-31.167 -72 -52.5 -106s-47.666 -66 -78.999 -96c-34 -32 -72.833 -59.333 -116.5 -82s-88.5 -34 -134.5 -34
c-27.333 0 -53.666 5.16699 -78.999 15.5s-47.666 24.333 -66.999 42s-34.666 38.667 -45.999 63s-17 50.5 -17 78.5c0 38.667 7.33301 73.667 22 105s34.334 59 59.001 83s53.5 45.167 86.5 63.5s67.667 34.166 104 47.499s73.5 24.333 111.5 33s74.667 16 110 22
c-34 -8.66699 -69.333 -18.5 -106 -29.5s-72.667 -23.5 -108 -37.5s-68.833 -30 -100.5 -48s-59.667 -38.667 -84 -62s-43.5 -49.5 -57.5 -78.5s-21 -61.5 -21 -97.5c0 -25.333 5.16699 -48.833 15.5 -70.5s24.166 -40.667 41.499 -57s37.333 -29.166 60 -38.499
s46.334 -14 71.001 -14c21.333 0 42.166 3.16699 62.499 9.5s40 14.5 59 24.5s37 21.5 54 34.5s32.5 26.5 46.5 40.5c30.667 30 56.5 62.167 77.5 96.5s38 70.166 51 107.499s22.667 75.666 29 114.999s10.166 79 11.499 119c1.33301 48 1.66602 95 0.999023 141
s-2 92.333 -4 139c-1.33301 24 -2.33301 46.333 -3 67s-1.33398 43 -2.00098 67c-28.667 -20 -61.5 -40.667 -98.5 -62s-76.333 -41.333 -118 -60s-84.834 -35 -129.501 -49s-89.334 -23.667 -134.001 -29s-88.5 -5.33301 -131.5 0s-83.5 18 -121.5 38
c38.667 -17.333 79.667 -27.666 123 -30.999s87.5 -1.66602 132.5 5.00098s90 17.667 135 33s88.167 32.666 129.5 51.999s80.166 39.833 116.499 61.5s68.5 42.5 96.5 62.5c0 49.333 1.66699 97.333 5 144s11.333 90.334 24 131.001c4 12.667 10.333 27 19 43
s18.667 31 30 45s23.666 25.833 36.999 35.5s27 14.5 41 14.5c8 0 16.167 -1.83301 24.5 -5.5s16 -9.33398 23 -17.001s12.833 -17.667 17.5 -30s7 -27.166 7 -44.499c0 -26 -4.66699 -52.5 -14 -79.5s-22.5 -53.5 -39.5 -79.5s-37 -51.333 -60 -76
s-48.167 -48.334 -75.5 -71.001c0 -30 0.666992 -59.5 2 -88.5l4 -89.5c2.66699 -52 4.33398 -100.667 5.00098 -146s0 -90.333 -2 -135z" />
    <glyph glyph-name="T" unicode="T" horiz-adv-x="653" 
d="M480 396l-13.9951 -30.998l-37 -85.5l-51 -111.5l-59.5 -119.5c-21 -40.333 -42.167 -76.5 -63.5 -108.5s-42 -58.167 -62 -78.5s-38 -30.5 -54 -30.5c-8.66699 0 -16.334 2.5 -23.001 7.5s-12.167 11.833 -16.5 20.5s-7.66602 18.334 -9.99902 29.001s-3.5 22 -3.5 34
c0 29.333 4.66699 58.666 14 87.999s21.666 58 36.999 86s32.833 54.667 52.5 80s40.167 49.333 61.5 72s42.666 43.167 63.999 61.5s41 34.5 59 48.5l-82.5 -84.5c-31 -32.333 -60.5 -67.333 -88.5 -105s-51.667 -77.5 -71 -119.5s-29 -84.333 -29 -127
c0 -17.333 2.5 -32.666 7.5 -45.999s12.5 -20 22.5 -20c14 0 30.333 11.333 49 34s38.167 51.667 58.5 87s40.666 74.333 60.999 117l57 124l47 108c13.667 32 23.834 55 30.501 69l74 160l122 263c41.333 87.333 82.333 166.666 123 237.999c12 21.333 24.5 41.5 37.5 60.5
s25.167 35.167 36.5 48.5c-42.667 10 -82.834 18.667 -120.501 26s-72.5 11 -104.5 11c-25.333 0 -49.833 -2.66699 -73.5 -8s-47.334 -14 -71.001 -26s-47.834 -27.833 -72.501 -47.5s-50 -44.167 -76 -73.5c-1.33301 -1.33301 -4 -2 -8 -2c-1.33301 0 -3 0.666992 -5 2
s-3 3.33301 -3 6c0 3.33301 0.666992 5.66602 2 6.99902v-1c28 30.667 54.667 56.334 80 77.001s50.5 37.167 75.5 49.5s49.833 21.166 74.5 26.499s50 8 76 8c34 0 69 -3.5 105 -10.5l120 -24.5l14 -4c11.333 11.333 25.166 23.333 41.499 36s34 24.167 53 34.5
s38.5 18.833 58.5 25.5s39.333 10 58 10c8 0 16.167 -0.833008 24.5 -2.5s16 -4.33398 23 -8.00098s12.833 -8.16699 17.5 -13.5s7 -11.333 7 -18c0 -16 -6.83301 -29.833 -20.5 -41.5s-30.5 -21.167 -50.5 -28.5s-41.333 -12.833 -64 -16.5s-42.667 -5.5 -60 -5.5
c-12 0 -23.167 0.333008 -33.5 1s-20.166 1.66699 -29.499 3c-22.667 -25.333 -45.667 -57 -69 -95s-47 -80.5 -71 -127.5s-48.167 -97.167 -72.5 -150.5l-73.5 -163l-50.5 -115.5zM1098 1259c-12 5.33301 -24.334 8.00098 -37.001 8.00098c-15.333 0 -31.333 -3 -48 -9
s-33.167 -13.667 -49.5 -23s-31.666 -19.666 -45.999 -30.999s-26.5 -22 -36.5 -32c14 -2 28.667 -3 44 -3s33.5 1.5 54.5 4.5s41 7.66699 60 14s35.167 14.166 48.5 23.499s20 20.666 20 33.999c0 5.33301 -3.33301 10 -10 14z" />
    <glyph glyph-name="U" unicode="U" horiz-adv-x="874" 
d="M781 -338c-2 -2 -4.32715 -3.00293 -6.99414 -3.00293c-2 0 -4.16699 1.16699 -6.5 3.5s-2.83301 5.5 -1.5 9.5c16.667 22.667 25 43.667 25 63c0 20 -7 37.5 -21 52.5s-32 27.667 -54 38s-46.5 18.166 -73.5 23.499s-53.833 8 -80.5 8
c-17.333 0 -34.166 -0.833008 -50.499 -2.5s-32.5 -4.5 -48.5 -8.5l-9 -18l-41.5 -80c-13.667 -25.333 -27.334 -47.666 -41.001 -66.999s-27 -34.833 -40 -46.5s-26.167 -17.5 -39.5 -17.5c-14 0 -25.5 5.33301 -34.5 16s-13.5 24.667 -13.5 42
c0 20.667 5.66699 40.5 17 59.5s25.833 36.333 43.5 52s37.334 29.334 59.001 41.001s42.5 20.5 62.5 26.5l67 139l72 153l52 112.5l48 103l51 103l60 113.5c-32 -43.333 -65.667 -86.166 -101 -128.499s-71 -82.5 -107 -120.5s-71.833 -73.167 -107.5 -105.5
s-69.834 -60.333 -102.501 -84s-63.334 -42.167 -92.001 -55.5s-54 -20 -76 -20c-16 0 -29.5 2.66699 -40.5 8s-19.667 12.5 -26 21.5s-11 19.167 -14 30.5s-4.5 23 -4.5 35c0 17.333 2.16699 35.333 6.5 54s9.5 36.834 15.5 54.501s12.333 34.167 19 49.5l17 38
c17.333 36.667 37.5 76.5 60.5 119.5l73.5 132l79.5 136l79.5 133.5l104.5 176c33.667 57.333 64 111.333 91 162s49.5 96.834 67.5 138.501s29 76.5 33 104.5c1.33301 6.66699 2.33301 13.334 3 20.001s1 13.334 1 20.001c0 24 -3.83301 45.833 -11.5 65.5
s-18 36.334 -31 50.001s-28.333 24.167 -46 31.5s-36.167 11 -55.5 11c-26 0 -51.833 -5.33301 -77.5 -16s-48.834 -25.667 -69.501 -45s-37.5 -42.166 -50.5 -68.499s-19.5 -54.833 -19.5 -85.5c0 -5.33301 0.333008 -9.33301 1 -12c0 -2.66699 0.166992 -5.16699 0.5 -7.5
s0.5 -4.5 0.5 -6.5c0 -2.66699 -1 -4.66699 -3 -6s-4 -2 -6 -2c-2.66699 0 -4.66699 1.33301 -6 4s-2.33301 6 -3 10s-1 7.83301 -1 11.5v8.5c0 33.333 7.16699 64.333 21.5 93s33 53.5 56 74.5s49.167 37.5 78.5 49.5s59 18 89 18c21.333 0 42.166 -3.33301 62.499 -10
s38.5 -17 54.5 -31s29 -32.167 39 -54.5s15 -48.833 15 -79.5c0 -14.667 -1 -30 -3 -46c-4 -28.667 -14.833 -63.834 -32.5 -105.501s-40 -87.667 -67 -138s-57.5 -104.333 -91.5 -162l-106 -177.5l-77.5 -131l-78 -135.5l-73.5 -133.5
c-23.333 -44 -44.333 -85.333 -63 -124l-20.5 -45c-7 -16 -13.167 -32.333 -18.5 -49s-9.83301 -33 -13.5 -49s-5.5 -31 -5.5 -45c0 -18.667 4.16699 -35.334 12.5 -50.001s23.166 -22 44.499 -22c14 0 29.667 3.5 47 10.5s35.166 16 53.499 27s36.333 23.167 54 36.5
s34.334 26.5 50.001 39.5s29.667 25.167 42 36.5l28.5 26c36.667 34.667 73.5 72 110.5 112s72.667 81.333 107 124s67.166 86.167 98.499 130.5s60 88.166 86 131.499c1.33301 6.66699 7 10 17 10c5.33301 0 10.333 -0.833008 15 -2.5s7.66699 -4.16699 9 -7.5
c0 -2.66699 -0.333008 -4.33398 -1 -5.00098l-3 -5v1c-28 -46.667 -55.5 -95.334 -82.5 -146.001l-79.5 -154.5l-76 -157l-73 -154.5l-67 -143l-64 -130c13.333 2 27.166 3.66699 41.499 5s28.833 2 43.5 2c29.333 0 58.833 -3 88.5 -9s56.5 -14.833 80.5 -26.5
s43.667 -26.167 59 -43.5s23 -37 23 -59c0 -24 -9.33301 -48.333 -28 -73v-1zM285.006 -360.003c7.33301 0 15.833 5.66699 25.5 17s20.334 26 32.001 44s23.667 38.5 36 61.5l36.5 69.5c-17.333 -6 -34.833 -14.333 -52.5 -25s-33.834 -22.667 -48.501 -36
s-26.5 -28 -35.5 -44s-13.5 -32.333 -13.5 -49c0 -10.667 1.66699 -19.667 5 -27s8.33301 -11 15 -11z" />
    <glyph glyph-name="V" unicode="V" horiz-adv-x="877" 
d="M397 1399c0 -6 -3.3291 -9.00293 -9.99609 -9.00293c-5.33301 0 -8.33301 4.66699 -9 14s-1 18 -1 26c0 36.667 7.66699 70.167 23 100.5s35.5 56 60.5 77s53 37.333 84 49s62.5 17.5 94.5 17.5c24 0 46.667 -3.66699 68 -11s40.333 -18.5 57 -33.5
s29.834 -34 39.501 -57s14.5 -50.5 14.5 -82.5c0 -7.33301 -0.333008 -15 -1 -23s-1.66699 -16.667 -3 -26c-4 -31.333 -15.5 -69.166 -34.5 -113.499s-43 -93.333 -72 -147l-97.5 -172.5l-112 -189l-143.5 -243c-47.667 -82 -90.667 -160.5 -129 -235.5
s-69.333 -144.667 -93 -209s-35.5 -119.5 -35.5 -165.5c0 -23.333 4.16699 -39.833 12.5 -49.5s19.5 -14.5 33.5 -14.5c16.667 0 36 5.5 58 16.5s45 24.833 69 41.5s48 34.834 72 54.501s45.833 38.5 65.5 56.5l49.5 46.5l26 25.5l112.5 120.5l110 129.5
c35.667 44 69.5 88 101.5 132s61 86.667 87 128c-14.667 14 -24.834 29.5 -30.501 46.5s-8.5 34.167 -8.5 51.5c0 18.667 2.5 36.834 7.5 54.501s11.167 35.167 18.5 52.5c17.333 36 35.333 62.333 54 79s35.667 25 51 25c11.333 0 20.5 -4.66699 27.5 -14
s10.5 -23.333 10.5 -42c0 -26.667 -8.16699 -59.834 -24.5 -99.501s-43.5 -89.5 -81.5 -149.5c17.333 -14 37.166 -24.333 59.499 -31s44.166 -11.334 65.499 -14.001c1.33301 -0.666992 3 -1.66699 5 -3s3 -3 3 -5c0 -4 -1.33301 -6.5 -4 -7.5s-5 -1.5 -7 -1.5
c-22.667 2 -45.834 6.5 -69.501 13.5s-44.5 17.5 -62.5 31.5c-26.667 -42 -56.167 -85.167 -88.5 -129.5s-66.166 -88.5 -101.499 -132.5s-71.833 -87 -109.5 -129l-111.5 -119l-23.5 -23l-51.5 -48c-20.667 -18.667 -44.167 -38.667 -70.5 -60s-52.833 -41 -79.5 -59
s-52.834 -32.833 -78.501 -44.5s-48.5 -17.5 -68.5 -17.5c-18.667 0 -34.667 6.33301 -48 19s-20 34.667 -20 66c0 30 5.66699 64.833 17 104.5s26.666 82.667 45.999 129s42 95.166 68 146.499l84 158l93.5 163.5l95.5 161.5l108.5 184.5c35.667 61 68 118.833 97 173.5
s53.333 104.5 73 149.5s31.5 82.167 35.5 111.5c2 14.667 3 30 3 46c0 24 -3.83301 46 -11.5 66s-18.167 37.167 -31.5 51.5s-29.166 25.5 -47.499 33.5s-37.833 12 -58.5 12c-27.333 0 -54.833 -5.16699 -82.5 -15.5s-52.834 -25.166 -75.501 -44.499
s-41 -42.666 -55 -69.999s-21 -58 -21 -92v-16c0 -5.33301 0.666992 -10.666 2 -15.999v-1zM873.004 751.997c0 -15.333 2.33398 -30.166 7.00098 -44.499s12.667 -27.5 24 -39.5c35.333 56.667 61.166 104.5 77.499 143.5s24.5 70.167 24.5 93.5
c0 26.667 -7.66699 40 -23 40c-5.33301 0 -14 -4.5 -26 -13.5s-24.333 -21.833 -37 -38.5s-23.667 -36.834 -33 -60.501s-14 -50.5 -14 -80.5z" />
    <glyph glyph-name="W" unicode="W" horiz-adv-x="1300" 
d="M321 1414c0 -2.66699 -0.994141 -4.66992 -2.99414 -6.00293s-4 -2 -6 -2s-3.83301 1.66699 -5.5 5s-2.83398 7.16602 -3.50098 11.499s-1.16699 8.66602 -1.5 12.999s-0.5 7.83301 -0.5 10.5c0 36 7.66699 68.167 23 96.5s35.166 52.166 59.499 71.499
s51.333 34.166 81 44.499s58.834 15.5 87.501 15.5c28 0 52.333 -5 73 -15s37.834 -23.333 51.501 -40s23.834 -36 30.501 -58s10 -45 10 -69c0 -28.667 -7.16699 -63.334 -21.5 -104.001s-33.833 -86 -58.5 -136s-53.5 -103.667 -86.5 -161l-105.5 -180l-82 -138.5
l-79.5 -140.5l-72.5 -137c-22.667 -44.667 -42.334 -87.667 -59.001 -129c-4 -9.33301 -8.16699 -20.666 -12.5 -33.999s-8.33301 -27.333 -12 -42s-6.66699 -29.667 -9 -45s-3.5 -30 -3.5 -44c0 -12 1.16699 -24 3.5 -36s6.16602 -22.833 11.499 -32.5
s12.666 -17.334 21.999 -23.001s20.666 -8.5 33.999 -8.5c18 0 36.667 4.66699 56 14s35.666 18.333 48.999 27c18.667 10.667 38 24 58 40s40.333 33.667 61 53s41.334 39.833 62.001 61.5s40.667 43.834 60 66.501c12.667 47.333 27.834 96.333 45.501 147
s37.167 101.5 58.5 152.5s44.166 101.167 68.499 150.5s49.5 96.333 75.5 141c16.667 28 33.5 48.333 50.5 61s32.833 19 47.5 19c13.333 0 24.333 -5.16699 33 -15.5s13 -25.166 13 -44.499c0 -11.333 -1.33301 -23.166 -4 -35.499s-7.33398 -26.166 -14.001 -41.499
c-19.333 -43.333 -41.5 -87.166 -66.5 -131.499s-51.833 -88 -80.5 -131s-58.167 -84.833 -88.5 -125.5l-89.5 -115c-16 -58 -29.167 -113.5 -39.5 -166.5s-15.5 -101.5 -15.5 -145.5c0 -22 1.5 -44.5 4.5 -67.5s8.66699 -43.833 17 -62.5s19.5 -34 33.5 -46
s32 -18.333 54 -19c36.667 4 75.167 20.667 115.5 50s81.666 67.833 123.999 115.5s85.166 102.834 128.499 165.501s85.666 129.334 126.999 200.001s81.666 143.667 120.999 219s76.166 149.5 110.499 222.5s65.666 143.167 93.999 210.5s52.833 128.666 73.5 183.999
c-18 20.667 -31 45.334 -39 74.001s-12 58 -12 88c0 12 1.16699 28 3.5 48s6.66602 39.833 12.999 59.5s15.166 36.667 26.499 51s26.333 21.5 45 21.5c9.33301 0 17.166 -2.16699 23.499 -6.5s11.333 -10.166 15 -17.499s6.33398 -15.833 8.00098 -25.5
s2.5 -19.834 2.5 -30.501c0 -20 -1.83301 -39.333 -5.5 -58s-6.5 -32 -8.5 -40c-5.33301 -21.333 -12.166 -45.166 -20.499 -71.499s-18.833 -55.833 -31.5 -88.5c15.333 -13.333 31.833 -22.833 49.5 -28.5s35.834 -8.5 54.501 -8.5h13c1.33301 0 3 0.166992 5 0.5
s4.33301 0.5 7 0.5c1.33301 0 3 -0.666992 5 -2s3 -3.33301 3 -6c0 -5.33301 -3.83301 -8.5 -11.5 -9.5s-15.167 -1.5 -22.5 -1.5c-21.333 0 -41.166 3 -59.499 9s-35.166 15.333 -50.499 28c-21.333 -57.333 -46.5 -120.833 -75.5 -190.5s-61.167 -141.834 -96.5 -216.501
l-112.5 -227.5c-39.667 -77 -80.667 -151.167 -123 -222.5s-85.5 -138.166 -129.5 -200.499s-87.667 -116.833 -131 -163.5s-85.666 -83.334 -126.999 -110.001s-80.666 -40 -117.999 -40c-30 0 -54.333 6.5 -73 19.5s-33.167 29.667 -43.5 50s-17.5 42.833 -21.5 67.5
s-6 48.667 -6 72c0 37.333 3.33301 76.333 10 117s15.667 83.667 27 129c-32 -36 -64.167 -68.833 -96.5 -98.5s-63.666 -55.167 -93.999 -76.5s-59.333 -38 -87 -50s-52.5 -18 -74.5 -18c-18 0 -32.833 3.16699 -44.5 9.5s-21.167 14.833 -28.5 25.5
s-12.5 23.167 -15.5 37.5s-4.5 29.5 -4.5 45.5c0 30 4 61.167 12 93.5s16.333 59.166 25 80.499c16.667 40.667 36.167 83.334 58.5 128.001s46.5 90.5 72.5 137.5l81 142.5l83 142l94.5 159.5c30.333 51.667 57.5 100.5 81.5 146.5s44.167 88.333 60.5 127
s26.5 72.334 30.5 101.001c1.33301 6.66699 2.33301 13.167 3 19.5s1 12.5 1 18.5c0 20.667 -3.33301 40.667 -10 60s-16.334 36.333 -29.001 51s-27.667 26.5 -45 35.5s-37 13.5 -59 13.5c-25.333 0 -50.833 -5 -76.5 -15s-49 -24.333 -70 -43s-38.167 -41 -51.5 -67
s-20 -55 -20 -87c0 -4 0.166992 -8.33301 0.5 -13s0.833008 -9.66699 1.5 -15v-1zM817.006 945.997c-44 -77.333 -85.167 -159.669 -123.5 -247.002s-71.166 -173.666 -98.499 -258.999l81 109.5c27.333 37.667 53.833 76 79.5 115s49.834 78.5 72.501 118.5
s43 80.333 61 121c10.667 28.667 16 51.334 16 68.001c0 26 -7 39 -21 39c-8.66699 0 -18.834 -5 -30.501 -15s-23.834 -26.667 -36.501 -50zM1495.01 1412.99c0 -25.333 3.16602 -50.168 9.49902 -74.501s16.5 -46.166 30.5 -65.499c11.333 30 21 57.333 29 82l21 67
c2.66699 9.33301 5.66699 23.333 9 42s5 36.667 5 54c0 15.333 -2.33301 29.166 -7 41.499s-13.667 18.5 -27 18.5c-8 0 -15.167 -3 -21.5 -9s-12 -13.167 -17 -21.5s-9.16699 -16.833 -12.5 -25.5s-5.66602 -15.667 -6.99902 -21c-8 -29.333 -12 -58.666 -12 -87.999z" />
    <glyph glyph-name="X" unicode="X" horiz-adv-x="1252" 
d="M-61 -212c-4.66699 1.33301 -6.99805 4.33984 -6.99805 9.00684c2.66699 5.33301 6.33398 8 11.001 8c53.333 -12 104 -18 152 -18c73.333 0 140.833 12.333 202.5 37s118.667 57.834 171 99.501s100.5 90.167 144.5 145.5s85 113.833 123 175.5s73.667 124.667 107 189
l96 186.5c0 5.33301 -0.166992 12.5 -0.5 21.5s-0.5 16.833 -0.5 23.5c0 27.333 -0.333008 59.833 -1 97.5s-2.66699 76.667 -6 117s-8.33301 80.333 -15 120s-16 75.167 -28 106.5s-27.333 56.666 -46 75.999s-41.334 29 -68.001 29
c-1.33301 0 -2.83301 -0.166992 -4.5 -0.5s-3.16699 -0.5 -4.5 -0.5h-9c-2.66699 0 -5.33398 2.66699 -8.00098 8c0 2.66699 1.33301 4.66699 4 6s6 2.33301 10 3s7.83301 1 11.5 1h8.5c28 0 52.167 -6.66699 72.5 -20s37.5 -31.833 51.5 -55.5s25.333 -52.167 34 -85.5
s15.5 -69.833 20.5 -109.5s8.66699 -81.834 11 -126.501s4.16602 -90.667 5.49902 -138l55.5 104c19.667 36.667 41.167 72.667 64.5 108s48.333 69 75 101s55.667 60.167 87 84.5s65.166 43.666 101.499 57.999s75.5 21.5 117.5 21.5h11.5c5 0 10 -0.333008 15 -1
s9.33301 -1.83398 13 -3.50098s5.5 -3.83398 5.5 -6.50098c0 -4.66699 -3 -7 -9 -7c-4.66699 0.666992 -9.16699 1 -13.5 1h-12.5c-38.667 0 -75.5 -8.16699 -110.5 -24.5s-68.167 -38.166 -99.5 -65.499s-60.833 -58.833 -88.5 -94.5s-53.334 -72.334 -77.001 -110.001
s-45.667 -75.167 -66 -112.5l-54.5 -103l-14 -27c0 -6.66699 0.166992 -15.334 0.5 -26.001s0.5 -20 0.5 -28c0.666992 -41.333 2 -89.833 4 -145.5s6.16699 -113.667 12.5 -174s15.666 -119.833 27.999 -178.5s29 -111.167 50 -157.5s47.5 -83.833 79.5 -112.5
s71 -43 117 -43h8.5c3 0 6.16699 0.333008 9.5 1c2 0 4 -1 6 -3s3.66699 -4 5 -6c0 -5.33301 -4 -8.33301 -12 -9s-15.667 -1 -23 -1c-48.667 0 -90 12 -124 36s-62.5 55.667 -85.5 95s-41.333 84.5 -55 135.5s-24.167 103.833 -31.5 158.5s-12.5 108.667 -15.5 162
s-5.5 102.333 -7.5 147c-0.666992 18 -1 32.167 -1 42.5s-0.666992 22.166 -2 35.499l-96.5 -183c-33 -62 -68.333 -121.833 -106 -179.5s-78.167 -111.667 -121.5 -162s-90.666 -94.333 -141.999 -132s-107.166 -67.334 -167.499 -89.001s-126.166 -32.5 -197.499 -32.5
c-28 0 -56 1.5 -84 4.5s-57 8.16699 -87 15.5z" />
    <glyph glyph-name="Y" unicode="Y" horiz-adv-x="917" 
d="M998 -181c0 1.33301 -0.333008 1.66699 -1 1c0.666992 0 1 -0.333008 1 -1zM541 1564c0 -4 -2.66406 -7.33105 -7.99707 -9.99805c-6 0 -9.5 4.66699 -10.5 14s-1.5 18 -1.5 26c0 34 7.16699 64.5 21.5 91.5s32.833 50 55.5 69s48.334 33.5 77.001 43.5
s57.334 15 86.001 15c22.667 0 44.5 -3.33301 65.5 -10s39.833 -16.834 56.5 -30.501s30 -31 40 -52s15 -46.167 15 -75.5s-7.33301 -64.166 -22 -104.499s-34.334 -84.833 -59.001 -133.5s-53 -100.167 -85 -154.5l-100 -167.5l-89.5 -152l-84.5 -151.5
c-26.667 -49.667 -51.167 -98 -73.5 -145s-40.5 -91.833 -54.5 -134.5c-3.33301 -10.667 -5.5 -21 -6.5 -31s-1.5 -19.667 -1.5 -29c0 -15.333 2.16699 -30.166 6.5 -44.499s11 -27.166 20 -38.499s20.833 -20.5 35.5 -27.5s32 -10.5 52 -10.5
c23.333 0 47.833 4.83301 73.5 14.5s50.834 21.667 75.501 36s47.667 29.5 69 45.5s39.666 30.333 54.999 43l89.5 183.5l86.5 173.5l80.5 156c25.667 48.667 49.5 92 71.5 130c19.333 32 37 54.833 53 68.5s31.667 20.5 47 20.5c13.333 0 24 -5.33301 32 -16
s12 -24.667 12 -42c0 -12 -1.83301 -25.667 -5.5 -41s-8.16699 -31 -13.5 -47c-17.333 -44.667 -41.166 -92.5 -71.499 -143.5s-63.833 -101.667 -100.5 -152s-74.834 -98.5 -114.501 -144.5s-77.167 -86 -112.5 -120l-42.5 -86.5l-42.5 -86.5l-90.5 -188l-91.5 -186
c18 3.33301 36.333 5.83301 55 7.5s37 2.5 55 2.5c62.667 0 123.667 -10.833 183 -32.5s115.333 -53.834 168 -96.501v-3c0 -8 -4.66699 -10.667 -14 -8c-50 41.333 -103.333 71.833 -160 91.5s-115.667 29.5 -177 29.5c-20 0 -40 -0.833008 -60 -2.5
s-40.333 -4.83398 -61 -9.50098l-68.5 -131.5c-24.333 -46.333 -51 -89 -80 -128s-60.167 -71.333 -93.5 -97s-69 -38.5 -107 -38.5c-18.667 0 -35.667 5.66699 -51 17s-23 30.666 -23 57.999c0 26 5.83301 51.167 17.5 75.5s27.167 47.666 46.5 69.999s42 43.166 68 62.499
s53.333 37 82 53s58 29.833 88 41.5s58.667 20.834 86 27.501l110.5 225l108.5 225l20 42c-16.667 -13.333 -35.334 -27 -56.001 -41s-42.5 -26.833 -65.5 -38.5s-46.667 -21.334 -71 -29.001s-48.166 -11.5 -71.499 -11.5c-25.333 0 -47 4.33301 -65 13
s-32.833 19.834 -44.5 33.501s-20.334 29.167 -26.001 46.5s-8.5 35 -8.5 53c0 22.667 3.33301 43.667 10 63c13.333 41.333 31.166 85.5 53.499 132.5s47.166 95.333 74.499 145l86.5 151.5l90.5 151l91 152.5c29.333 49.667 55.833 96.667 79.5 141s43.5 85.5 59.5 123.5
s26 71.667 30 101c1.33301 6 2 11.833 2 17.5v17.5c0 23.333 -3.83301 44.333 -11.5 63s-18.167 34.5 -31.5 47.5s-28.833 23 -46.5 30s-36.167 10.5 -55.5 10.5c-26.667 0 -52.834 -4.66699 -78.501 -14s-48.5 -22.5 -68.5 -39.5s-36.167 -37.667 -48.5 -62
s-18.5 -51.833 -18.5 -82.5v-15c0 -4.66699 0.666992 -9.66699 2 -15v-1zM324.003 -357.997c29.333 36 55.168 74.3311 77.501 114.998s43.5 81.667 63.5 123h-1l7 13.5c2 3.66699 4.66699 8.16699 8 13.5c-38 -11.333 -78 -27.166 -120 -47.499
s-80.833 -44.166 -116.5 -71.499s-65 -57.166 -88 -89.499s-34.5 -65.833 -34.5 -100.5c0 -19.333 5.5 -33.333 16.5 -42s22.167 -13 33.5 -13c14 0 28.667 3.66699 44 11s30.166 16.333 44.499 27s27.333 21.667 39 33s20.5 20.666 26.5 27.999zM827.005 534.001
c32.667 34 66.6689 72.333 102.002 115s69.333 87 102 133s62.5 92.333 89.5 139s48.5 90.667 64.5 132c5.33301 14.667 9.83301 28.5 13.5 41.5s5.5 24.167 5.5 33.5c0 27.333 -6.33301 41 -19 41c-8.66699 0 -19.334 -7.5 -32.001 -22.5s-27.334 -35.5 -44.001 -61.5
s-34.5 -56.667 -53.5 -92l-60 -114l-64.5 -128l-65 -133h1z" />
    <glyph glyph-name="Z" unicode="Z" horiz-adv-x="798" 
d="M500 1049c28 -3.33301 57.3281 -5.49805 87.9951 -6.49805s61.667 -0.5 93 1.5s62 5.66699 92 11s58 13 84 23l54.5 92c17 27.333 33.833 50.666 50.5 69.999l12 12c5.33301 5.33301 11.166 10.666 17.499 15.999s12.833 9.83301 19.5 13.5s12.667 5.5 18 5.5
c6.66699 0 11 -2.16699 13 -6.5s3 -9.5 3 -15.5c0 -15.333 -4.33301 -31.833 -13 -49.5s-20 -35 -34 -52s-29.833 -33 -47.5 -48s-35.834 -27.167 -54.501 -36.5l-54.5 -103.5l-58.5 -119.5l-60.5 -130l-61.5 -135c2.66699 -0.666992 5.66699 -1 9 -1
c9.33301 -1.33301 19.5 -2.66602 30.5 -3.99902s22.167 -2 33.5 -2c12 0 23.667 1 35 3s21.5 5.66699 30.5 11s16.167 12.5 21.5 21.5s8.33301 20.833 9 35.5c0 2 0.833008 4 2.5 6s3.83398 3 6.50098 3c2 0 4 -1 6 -3s3 -4 3 -6
c-0.666992 -18 -4.33398 -32.833 -11.001 -44.5s-15.167 -20.667 -25.5 -27s-22.166 -10.833 -35.499 -13.5s-27.333 -4 -42 -4c-11.333 0 -23.166 0.666992 -35.499 2s-23.5 2.66602 -33.5 3.99902c-2 0 -3.66699 0.333008 -5 1s-3.33301 1 -6 1l-125 -271.5
c-39.333 -84.333 -78.666 -163.833 -117.999 -238.5c22.667 -9.33301 45.334 -20.166 68.001 -32.499l68 -38.5h-1c36 -20.667 70.833 -39.334 104.5 -56.001s66.167 -25 97.5 -25c18 0 35.333 3.66699 52 11s33 20.666 49 39.999c1.33301 1.33301 2.66602 2 3.99902 2
c3.33301 0 6.16602 -1 8.49902 -3s2.83301 -5 1.5 -9l-1 -3c-17.333 -21.333 -35.333 -36.166 -54 -44.499s-38 -12.5 -58 -12.5c-32.667 0 -66.5 8.5 -101.5 25.5s-71.167 36.167 -108.5 57.5c-21.333 13.333 -43.333 26.166 -66 38.499s-46.667 23.166 -72 32.499
c-1.33301 -3.33301 -3.16602 -6.66602 -5.49902 -9.99902s-4.16602 -6.66602 -5.49902 -9.99902l-35.5 -63.5c-12.333 -21.667 -26.666 -41.334 -42.999 -59.001s-34.833 -32.167 -55.5 -43.5s-44.667 -17 -72 -17c-32 0 -56.167 9.66699 -72.5 29s-24.5 42 -24.5 68
c0 18.667 4.66699 36.834 14 54.501s22.5 33.5 39.5 47.5s37.5 25.333 61.5 34s51 13 81 13c15.333 0 31 -1.33301 47 -4s31 -6 45 -10c38 73.333 76.333 151.5 115 234.5l122 269.5c-29.333 4 -56.666 6 -81.999 6c-19.333 0 -37.5 -2 -54.5 -6s-32.5 -11 -46.5 -21
s-26.167 -23.333 -36.5 -40s-18.833 -37.667 -25.5 -63c-1.33301 -4 -4.66602 -6 -9.99902 -6c-5.33301 2.66699 -8 6 -8 10c7.33301 28.667 16.833 52.167 28.5 70.5s25.167 32.833 40.5 43.5s32.5 18 51.5 22s39.167 6 60.5 6c28.667 0 59 -2 91 -6l112.5 245
c35 76 70.5 146.667 106.5 212c-24 -8.66699 -50.667 -15.167 -80 -19.5s-59.166 -6.5 -89.499 -6.5s-60.333 1.83301 -90 5.5s-56.834 9.16699 -81.501 16.5zM997.995 1230c-14.667 -18 -28.834 -37 -42.501 -57s-27.834 -42.333 -42.501 -67
c14.667 9.33301 28.834 20.333 42.501 33s25.834 26 36.501 40s19.167 27.833 25.5 41.5s9.5 26.5 9.5 38.5v1c-4 -1.33301 -13.667 -11.333 -29 -30zM251.995 -105.998c23.333 17.333 43.5 39.8311 60.5 67.498s32.5 54.5 46.5 80.5l9 18
c-14.667 3.33301 -28.834 6 -42.501 8s-27.5 3 -41.5 3c-28 0 -53.167 -3.83301 -75.5 -11.5s-41 -17.667 -56 -30s-26.5 -26.166 -34.5 -41.499s-12 -31 -12 -47c0 -21.333 6.16699 -39.5 18.5 -54.5s29.833 -22.5 52.5 -22.5c10.667 0 22.334 2.33301 35.001 7
s26 12.334 40 23.001z" />
    <glyph glyph-name="bracketleft" unicode="[" horiz-adv-x="437" 
d="M545 878c6.66699 12.667 13.666 19.667 20.999 21l1 1h82c6 0 10.167 -1.83301 12.5 -5.5s3.5 -7.5 3.5 -11.5s-1.33301 -7.66699 -4 -11s-6.66699 -5 -12 -5h-64l-491 -1324h50c6 0 10.167 -1.83301 12.5 -5.5s3.5 -7.5 3.5 -11.5c0 -4.66699 -1.33301 -8.66699 -4 -12
s-6.66699 -5 -12 -5h-77l-5 1c-5.33301 1.33301 -9.16602 4 -11.499 8s-3.5 8 -3.5 12c0 2 0.666992 4.33301 2 7h-1z" />
    <glyph glyph-name="backslash" unicode="\" horiz-adv-x="626" 
d="M554 -465l1 -7c0 -5.33301 -2.16699 -10.166 -6.5 -14.499s-8.83301 -6.5 -13.5 -6.5c-10.667 0 -17 4.66699 -19 14l-470 1359c-0.666992 2.66699 -1 5 -1 7c0 5.33301 1.66699 10.166 5 14.499s8 6.5 14 6.5c4 0 8 -2 12 -6s7.33301 -8.66699 10 -14z" />
    <glyph glyph-name="bracketright" unicode="]" horiz-adv-x="475" 
d="M-83 -467c-6.66699 -12.667 -14.002 -19.6631 -22.002 -20.9961l-1 -1h-82c-5.33301 0 -9.16602 1.83301 -11.499 5.5s-3.5 7.16699 -3.5 10.5c0 5.33301 1.33301 9.66602 4 12.999s6.33398 5 11.001 5h65l491 1324h-51c-6 0 -10.167 1.66699 -12.5 5
s-3.5 6.66602 -3.5 9.99902c0 5.33301 1.33301 9.66602 4 12.999s6.66699 5 12 5h78l4 -1c10.667 -4.66699 16 -11.667 16 -21c0 -0.666992 -0.166992 -1.33398 -0.5 -2.00098s-0.5 -1.66699 -0.5 -3z" />
    <glyph glyph-name="asciicircum" unicode="^" horiz-adv-x="497" 
d="M317 369c-0.666992 -3.33301 -0.998047 -8.33105 -0.998047 -14.998c0 -15.333 1.5 -32.333 4.5 -51s7.66699 -36.667 14 -54s14.166 -32.833 23.499 -46.5s20.333 -22.834 33 -27.501c2.66699 -1.33301 4.5 -2.83301 5.5 -4.5s1.5 -3.16699 1.5 -4.5
c0 -5.33301 -2 -8.16602 -6 -8.49902s-8.66699 -0.5 -14 -0.5c-14 2 -26.333 8 -37 18s-19.834 21.667 -27.501 35s-14 27.666 -19 42.999s-8.83301 29.666 -11.5 42.999c-28 -56 -54.333 -96.833 -79 -122.5s-48 -38.5 -70 -38.5c-2 0 -5.66699 0.666992 -11 2
s-10.833 3.16602 -16.5 5.49902s-10.667 5.16602 -15 8.49902s-6.5 7 -6.5 11c0 2 1 4 3 6s3.66699 3 5 3c2 0 3.66699 -1.33301 5 -4v3c10 -9.33301 19.667 -14 29 -14c12 0 24 5.66699 36 17s24.167 26.833 36.5 46.5s25 42.834 38 69.501s26.167 55.334 39.5 86.001
c2.66699 5.33301 6 9 10 11s8 3 12 3c12 0 18 -6.33301 18 -19v-1z" />
    <glyph glyph-name="underscore" unicode="_" horiz-adv-x="761" 
d="M584 -121c4.66699 0 9 -1.5 13 -4.5s6 -7.16699 6 -12.5s-2 -9.33301 -6 -12s-8.33301 -4 -13 -4h-506c-4.66699 0 -9 1.33301 -13 4s-6 6.66699 -6 12s2 9.5 6 12.5s8.33301 4.5 13 4.5h506z" />
    <glyph glyph-name="grave" unicode="`" horiz-adv-x="340" 
d="M83 390c9.33301 3.33301 19.665 5.66699 30.998 7s23.333 2.33301 36 3c19.333 1.33301 37.5 3.5 54.5 6.5s29.5 11.167 37.5 24.5c1.33301 2.66699 3.33301 3.16699 6 1.5s3.33398 -3.83398 2.00098 -6.50098c-12.667 -21.333 -25.167 -35.666 -37.5 -42.999
s-25.166 -11 -38.499 -11c-6.66699 0 -13 0.333008 -19 1s-12.333 1.66699 -19 3c-7.33301 1.33301 -14.5 2.5 -21.5 3.5s-14.167 1.5 -21.5 1.5h-8z" />
    <glyph glyph-name="a" unicode="a" horiz-adv-x="454" 
d="M266 350l-25.0029 -49.9971l-45 -93.5c-15.333 -32.333 -30.333 -66.833 -45 -103.5c-0.666992 -1.33301 -1.66699 -3.83301 -3 -7.5l-4 -10.5l-14.5 -36.5c-5.66699 -14.333 -11.167 -29.5 -16.5 -45.5s-10 -31.833 -14 -47.5s-6 -29.167 -6 -40.5c0 -20 7 -30 21 -30
c8 0 17 3 27 9s19.667 13 29 21s17.833 16 25.5 24s13.167 14 16.5 18c32 36 68 84 108 144l134 204c3.33301 3.33301 7 3.33301 11 0s4 -8 0 -14l-58.5 -91.5l-62.5 -95.5c-21.333 -31.333 -42.833 -61.333 -64.5 -90s-42.667 -53.834 -63 -75.501s-39.666 -39 -57.999 -52
s-35.166 -19.5 -50.499 -19.5c-16.667 0 -28.5 5.16699 -35.5 15.5s-10.5 24.5 -10.5 42.5c0 32 7.83301 70.167 23.5 114.5s34.167 90.166 55.5 137.499c-19.333 -23.333 -39 -40.833 -59 -52.5s-39.333 -17.5 -58 -17.5c-19.333 0 -34.666 6.5 -45.999 19.5
s-17 32.167 -17 57.5c0 24 4.5 47.833 13.5 71.5s21.167 45 36.5 64s33 34.5 53 46.5s41 18 63 18c24.667 0 43.5 -5 56.5 -15s22.833 -24.333 29.5 -43l7.5 14.5l7.5 14.5c1.33301 3.33301 4 5.66602 8 6.99902s8.33301 1.66602 13 0.999023s8.66699 -2.16699 12 -4.5
s5 -5.16602 5 -8.49902zM117.997 177.003c13.333 14.667 27.668 34.6689 43.001 60.002s28.666 49.666 39.999 72.999c-4.66699 15.333 -12 28.5 -22 39.5s-23.667 16.5 -41 16.5c-20 0 -38.667 -6.5 -56 -19.5s-32.333 -29 -45 -48s-22.667 -39.167 -30 -60.5
s-11 -40 -11 -56c0 -16.667 3.33301 -30.334 10 -41.001s16 -16 28 -16c11.333 0 23.833 4 37.5 12s29.167 21.333 46.5 40z" />
    <glyph glyph-name="b" unicode="b" horiz-adv-x="441" 
d="M-74 102l65 181.006c24 65.333 49.833 131.833 77.5 199.5s57.5 134.5 89.5 200.5s66 127.667 102 185s73.833 108.166 113.5 152.499s81.167 78.5 124.5 102.5c34 18.667 67 28 99 28c38 0 69.667 -13 95 -39s38 -65.333 38 -118c0 -41.333 -9 -83.333 -27 -126
s-42.667 -84.5 -74 -125.5s-68 -80.167 -110 -117.5s-87.167 -71.333 -135.5 -102s-98.666 -57.167 -150.999 -79.5s-104.166 -38.833 -155.499 -49.5c-19.333 -46 -37.166 -91.5 -53.499 -136.5l-46.5 -128.5l-3 -6c19.333 19.333 40.666 34.333 63.999 45s43 16 59 16
c22 0 39.333 -6.83301 52 -20.5s19 -31.5 19 -53.5c0 -28.667 -11.667 -59.334 -35 -92.001c26.667 6.66699 51 15.5 73 26.5s44.5 27.167 67.5 48.5s47.667 48.833 74 82.5s57.5 76.167 93.5 127.5c4 4 7.83301 4.16699 11.5 0.5s4.16699 -7.16699 1.5 -10.5
c-38.667 -56 -72 -101.833 -100 -137.5s-54.333 -64.334 -79 -86.001s-49.334 -38 -74.001 -49s-52.667 -19.5 -84 -25.5c-20 -23.333 -43.833 -42.833 -71.5 -58.5s-55.5 -23.5 -83.5 -23.5c-9.33301 0 -18.833 2.16699 -28.5 6.5s-14.5 12.5 -14.5 24.5
c0 10 5.16699 18.5 15.5 25.5s23 12.833 38 17.5s30.667 8.33398 47 11.001s30.5 4.66699 42.5 6l16 2c15.333 16 27.666 34.167 36.999 54.5s14 38.166 14 53.499c0 13.333 -3.33301 24.833 -10 34.5s-17.334 14.5 -32.001 14.5c-9.33301 0 -20 -2.33301 -32 -7
s-24.167 -11.167 -36.5 -19.5s-24.166 -18.333 -35.499 -30s-21 -24.834 -29 -39.501c-0.666992 -1.33301 -2 -5 -4 -11l-6.5 -20l-7 -21.5c-2.33301 -7 -3.83301 -12.167 -4.5 -15.5c-2 -4.66699 -5.5 -7.83398 -10.5 -9.50098s-10 -2.33398 -15 -2.00098s-9 1.5 -12 3.5
s-3.83301 5 -2.5 9zM528 1109.01c-44.667 -24 -87.5 -60.001 -128.5 -108.001s-80 -103.333 -117 -166s-72.167 -130.5 -105.5 -203.5s-64.333 -145.833 -93 -218.5c49.333 10.667 99 27 149 49s98.333 47.667 145 77s90.334 62 131.001 98s76.167 73.667 106.5 113
s54.166 79.333 71.499 120s26 80.667 26 120c0 46.667 -10.833 81.334 -32.5 104.001s-47.5 34 -77.5 34c-25.333 0 -50.333 -6.33301 -75 -19zM-64 -57.9951c0 -3.33301 2 -5.99805 6 -7.99805s7.66699 -3.33301 11 -4h3c7.33301 0 15.5 2 24.5 6s18 8.66699 27 14
s17.833 11.166 26.5 17.499s16.334 12.166 23.001 17.499c-11.333 -1.33301 -23.833 -3 -37.5 -5s-26.834 -4.66699 -39.501 -8s-23.167 -7.5 -31.5 -12.5s-12.5 -10.833 -12.5 -17.5z" />
    <glyph glyph-name="c" unicode="c" horiz-adv-x="286" 
d="M277 301c1.33301 3.33301 3.66895 5.00195 7.00195 5.00195c2 0 4 -1 6 -3s3 -5 3 -9c-27.333 -43.333 -54.833 -80.833 -82.5 -112.5s-54.834 -57.834 -81.501 -78.501s-52 -35.834 -76 -45.501s-45.333 -14.5 -64 -14.5c-23.333 0 -41.5 7 -54.5 21
s-19.5 31.333 -19.5 52c0 16 3.16699 33 9.5 51s13.833 35.667 22.5 53s17.667 33.333 27 48s17 26 23 34c12.667 15.333 27 29 43 41s31.667 18 47 18c13.333 0 23.5 -5 30.5 -15s10.5 -22.333 10.5 -37c0 -13.333 -2.66699 -28 -8 -44s-14.333 -32.667 -27 -50
c-0.666992 -0.666992 -2.66699 -1 -6 -1c-6 0 -9 3.33301 -9 10c0 2.66699 0.666992 4.66699 2 6v-1c20 28 30 54.333 30 79c0 9.33301 -1.5 16.833 -4.5 22.5s-7.16699 8.5 -12.5 8.5c-10.667 0 -21.667 -4.5 -33 -13.5s-22.5 -20.5 -33.5 -34.5s-21.333 -29.667 -31 -47
s-18.334 -34.5 -26.001 -51.5s-13.667 -33 -18 -48s-6.5 -26.833 -6.5 -35.5c0 -15.333 4.16699 -26.833 12.5 -34.5s19.833 -11.5 34.5 -11.5c16 0 34.667 4.5 56 13.5s44.5 23 69.5 42s51 43.667 78 74s54.167 66.833 81.5 109.5v-1z" />
    <glyph glyph-name="d" unicode="d" horiz-adv-x="463" 
d="M463 302c12 3.33301 17.001 0.336914 15.001 -8.99609l-43 -66l-78.5 -120c-28.333 -42 -56.666 -80.833 -84.999 -116.5s-55.833 -65.167 -82.5 -88.5s-50.667 -35 -72 -35c-14.667 0 -25 4.66699 -31 14s-9 23 -9 41c0 17.333 2.5 37.5 7.5 60.5s11.167 46.667 18.5 71
s15.5 48.333 24.5 72l24.5 62.5c-22 -28 -43.833 -48.333 -65.5 -61s-40.834 -19 -57.501 -19c-20 0 -36.333 7.16699 -49 21.5s-19 33.833 -19 58.5c0 21.333 5 43.666 15 66.999s23 44.666 39 63.999s34.333 35.166 55 47.499s41.667 18.5 63 18.5
c17.333 0 33 -3.83301 47 -11.5s25 -21.5 33 -41.5c16 35.333 37.333 79.666 64 132.999s56.5 109.666 89.5 168.999s68.833 118.833 107.5 178.5s78.334 113.334 119.001 161.001s81.667 86.334 123 116.001s81.333 44.5 120 44.5c39.333 0 70.666 -13.667 93.999 -41
s35 -64 35 -110c0 -24 -4.16699 -50.167 -12.5 -78.5s-21 -58 -38 -89s-38.167 -62.667 -63.5 -95s-55.333 -64.166 -90 -95.499c-33.333 -28.667 -69.166 -55.834 -107.499 -81.501s-78.166 -48.667 -119.499 -69s-83.333 -37.833 -126 -52.5
s-84.334 -25.334 -125.001 -32.001c-25.333 -50.667 -48.833 -100.167 -70.5 -148.5s-40.334 -93.333 -56.001 -135s-28 -79 -37 -112s-13.5 -59.167 -13.5 -78.5c0 -20.667 5 -31 15 -31c11.333 0 25.666 6.16699 42.999 18.5s37.833 32 61.5 59s50.667 61.833 81 104.5
s64.5 94 102.5 154l27.5 41zM844.001 1116c-26.667 0 -55.1641 -9.66992 -85.4971 -29.0029s-61.333 -46 -93 -80s-63.834 -73.667 -96.501 -119s-65 -94.166 -97 -146.499s-63.167 -106.666 -93.5 -162.999l-86.5 -167.5c45.333 8 93 21.667 143 41s99.333 42.833 148 70.5
s95.167 58.834 139.5 93.501s83.166 71.667 116.499 111s60 80.333 80 123s30 86 30 130c0 18 -2.33301 35.167 -7 51.5s-11.334 30.833 -20.001 43.5s-19.667 22.667 -33 30s-28.333 11 -45 11zM42.0039 127.001c17.333 1.33301 35.168 10.332 53.501 26.999
s35.166 35.334 50.499 56.001s28.333 40.667 39 60s17.334 32.333 20.001 39c-0.666992 6.66699 -3.16699 13.334 -7.5 20.001s-9.5 12.667 -15.5 18s-12.333 9.66602 -19 12.999s-12.334 5 -17.001 5c-22 0 -41.833 -6.66699 -59.5 -20s-33 -29.5 -46 -48.5
s-23 -39.333 -30 -61s-10.5 -40.5 -10.5 -56.5c0 -15.333 3 -27.833 9 -37.5s15.667 -14.5 29 -14.5h4z" />
    <glyph glyph-name="e" unicode="e" horiz-adv-x="279" 
d="M75 335c-14.667 -9.33301 -28 -22.167 -40 -38.5s-22.667 -31.833 -32 -46.5c15.333 1.33301 29 4.66602 41 9.99902s22 11.833 30 19.5s14.167 15.834 18.5 24.501s6.5 17 6.5 25c0 8.66699 -2.66699 13 -8 13c-4 0 -9.33301 -2.33301 -16 -7zM279 301.999
c3.33301 5.33301 6.66699 6.33789 10 3.00488s5 -7 5 -11c-27.333 -43.333 -54.833 -80.833 -82.5 -112.5s-54.667 -57.834 -81 -78.501s-51.5 -35.834 -75.5 -45.501s-45.333 -14.5 -64 -14.5c-22.667 0 -40.5 6.5 -53.5 19.5s-19.5 32.167 -19.5 57.5
c0 20 6.16699 46.333 18.5 79s32.5 67 60.5 103c17.333 21.333 33.5 37.5 48.5 48.5s27.5 16.167 37.5 15.5c11.333 0 19.833 -3.5 25.5 -10.5s8.5 -16.167 8.5 -27.5c0 -9.33301 -2.33301 -19.5 -7 -30.5s-12 -21.333 -22 -31s-22.833 -17.834 -38.5 -24.501
s-34.5 -10.334 -56.5 -11.001c-14 -23.333 -24.167 -44.333 -30.5 -63s-9.5 -34.667 -9.5 -48c0 -17.333 4.33301 -30.333 13 -39s20.667 -13 36 -13c16 0 34.5 4.5 55.5 13.5s43.5 23 67.5 42s49.167 43.167 75.5 72.5s52.5 64.666 78.5 105.999z" />
    <glyph glyph-name="f" unicode="f" horiz-adv-x="294" 
d="M252 600c-10.667 0 -22.834 -6.16797 -36.501 -18.501s-28 -28.666 -43 -48.999s-30.667 -44 -47 -71s-32.166 -55.167 -47.499 -84.5c28.667 16 55 33 79 51s44.333 35.833 61 53.5s29.667 34.667 39 51s14 30.5 14 42.5c0 7.33301 -1.66699 13.333 -5 18s-8 7 -14 7z
M236 474.999c-20.667 -21.333 -46.1641 -43.1699 -76.4971 -65.5029s-62.5 -41.833 -96.5 -58.5l-57.5 -118.5l-57.5 -124.5c4 -18 11 -30.667 21 -38s21.667 -11 35 -11c17.333 0 37.333 5 60 15s46.5 25.167 71.5 45.5s51 46 78 77s53.833 67.167 80.5 108.5h1
c0.666992 0 1 0.166992 1 0.5s0.666992 0.5 2 0.5c5.33301 0 8 -4 8 -12c-26.667 -43.333 -53.834 -80.666 -81.501 -111.999s-54.5 -57.5 -80.5 -78.5s-51 -36.5 -75 -46.5s-46 -15 -66 -15c-8 0 -16.167 1 -24.5 3s-15.833 5.66699 -22.5 11
c2.66699 -19.333 4.5 -38.166 5.5 -56.499s1.5 -36.166 1.5 -53.499c0 -56 -5 -106.167 -15 -150.5s-22.167 -82 -36.5 -113s-29.833 -54.667 -46.5 -71s-31.667 -24.5 -45 -24.5c-12.667 0 -23.334 6.66699 -32.001 20s-13 34 -13 62c0 26 5.83301 64.5 17.5 115.5
s29.834 111 54.501 180s56.167 145.167 94.5 228.5s84.166 170 137.499 260c31.333 52 61.166 93.5 89.499 124.5s53.833 46.5 76.5 46.5c13.333 0 24 -4.66699 32 -14s12 -21 12 -35c0 -16 -5 -32.333 -15 -49s-22.667 -33.667 -38 -51zM-120.997 -342.005
c18.667 28 34.334 66.3311 47.001 114.998s19 106 19 172c0 19.333 -0.5 40.333 -1.5 63s-3.16699 45.667 -6.5 69c-18.667 -40.667 -35.667 -82.334 -51 -125.001c-5.33301 -13.333 -12.333 -32.166 -21 -56.499s-17 -50.666 -25 -78.999s-14.833 -56.666 -20.5 -84.999
s-8.5 -52.833 -8.5 -73.5c0 -13.333 1.33301 -24.666 4 -33.999s7.33398 -14 14.001 -14c5.33301 0 12.166 3.66699 20.499 11s18.166 19.666 29.499 36.999z" />
    <glyph glyph-name="g" unicode="g" horiz-adv-x="475" 
d="M281 401c-2.66699 -8.66699 -6.83008 -19.5039 -12.4971 -32.5039l-16.5 -38.5l-7 -14l-27 -60l-58.5 -127.5l-66.5 -139.5c36 18.667 72.667 39.5 110 62.5s73 47.5 107 73.5s65.333 53.667 94 83s52.334 60 71.001 92c1.33301 4 3.66602 6 6.99902 6c2 0 4 -1 6 -3
s3 -4.66699 3 -8c-16 -28.667 -35.5 -55.667 -58.5 -81s-47.333 -49 -73 -71s-51.834 -42.167 -78.501 -60.5s-52 -34.666 -76 -48.999s-45.667 -26.5 -65 -36.5l-45 -23l-16 -9l-88 -168.5c-30.667 -56.333 -62.667 -110.5 -96 -162.5s-67.5 -100.333 -102.5 -145
s-70.667 -83.5 -107 -116.5s-72.833 -59 -109.5 -78s-73.334 -28.5 -110.001 -28.5c-26 0 -48.5 4.33301 -67.5 13s-34.5 20.5 -46.5 35.5s-21 32 -27 51s-9 39.167 -9 60.5c0 37.333 7.33301 71.833 22 103.5s34.334 61 59.001 88s53.167 52 85.5 75
s66.333 44.167 102 63.5s71.667 37 108 53l102.5 45l37 16l104 44c35.333 15.333 69.666 31.333 102.999 48l40 81l33.5 71l30.5 66.5l30 66.5c-23.333 -33.333 -46 -56.666 -68 -69.999s-41.667 -20 -59 -20c-19.333 0 -34.833 7.16699 -46.5 21.5s-17.5 33.5 -17.5 57.5
c0 24.667 5.33301 49 16 73s24.167 45.333 40.5 64s34.333 33.834 54 45.501s38.5 17.5 56.5 17.5c17.333 0 33 -4.16699 47 -12.5s25.667 -23.166 35 -44.499l4 10c3.33301 7.33301 6.66602 13.5 9.99902 18.5s9 7.5 17 7.5c12.667 0 19 -4 19 -12v-2zM-208.996 -169.004
l-30.0029 -13.002l-90.5 -42.5c-32.333 -15.667 -64.333 -32.667 -96 -51s-62 -38.166 -91 -59.499s-54.667 -44.333 -77 -69s-40.166 -51.167 -53.499 -79.5s-20 -58.5 -20 -90.5c0 -19.333 2.66699 -37.666 8 -54.999s13.333 -32.5 24 -45.5s24 -23.333 40 -31
s34.667 -11.5 56 -11.5c28 0 56.333 7.16699 85 21.5s57.334 33.833 86.001 58.5s56.834 53.167 84.501 85.5s54.5 66.5 80.5 102.5s50.667 72.667 74 110l64.5 107.5l52.5 95l38 73.5zM69.001 177.994c8 2 16.3301 6.00195 24.9971 12.002s17 12.833 25 20.5
s15.333 15.334 22 23.001s12 14.167 16 19.5c2.66699 3.33301 7.33398 9.66602 14.001 18.999s13.5 19.5 20.5 30.5s13.333 22 19 33s8.5 19.833 8.5 26.5c0 0.666992 -0.166992 1 -0.5 1s-0.5 0.666992 -0.5 2c-8 17.333 -17 30.166 -27 38.499s-20.333 12.5 -31 12.5
c-21.333 0 -40.666 -6.83301 -57.999 -20.5s-32.166 -30.167 -44.499 -49.5s-22 -40 -29 -62s-10.5 -41.333 -10.5 -58c0 -14.667 2.66699 -26.834 8 -36.501s14.333 -14.5 27 -14.5c4 0 9 1 15 3h1z" />
    <glyph glyph-name="h" unicode="h" horiz-adv-x="471" 
d="M582 1129c-35.333 -8.66699 -70.1641 -27.1689 -104.497 -55.502s-67.333 -62.833 -99 -103.5s-62.167 -85.667 -91.5 -135s-56.5 -99 -81.5 -149s-47.833 -98.667 -68.5 -146s-38.334 -89.666 -53.001 -126.999c44 9.33301 90.167 24.333 138.5 45
s95.666 45.5 141.999 74.5s90.333 61.5 132 97.5s78.334 74.167 110.001 114.5s56.834 82.333 75.501 126s28 87.5 28 131.5c0 16.667 -2.33301 32.834 -7 48.501s-11.334 29.5 -20.001 41.5s-19.334 21.667 -32.001 29s-27.334 11 -44.001 11c-10 0 -18.333 -1 -25 -3z
M471.002 301.998c0.666992 0.666992 1.66797 1.5 3.00098 2.5s2.66602 1.5 3.99902 1.5c2 0 4.16699 -1.16699 6.5 -3.5s3.16602 -5.16602 2.49902 -8.49902l-105 -158c-34 -51.333 -66.5 -97 -97.5 -137s-59.833 -72 -86.5 -96s-50.667 -36 -72 -36
c-14.667 0 -24.834 4.33301 -30.501 13s-8.5 21.334 -8.5 38.001c0 19.333 3.33301 42.5 10 69.5s14 54.5 22 82.5c8 26.667 15 52 21 76s9 43.667 9 59c0 19.333 -6.33301 29 -19 29c-10.667 0 -24.334 -5.5 -41.001 -16.5s-33.667 -24.833 -51 -41.5
s-33.666 -34.334 -48.999 -53.001s-27.333 -35.334 -36 -50.001c-2 -2 -6.66699 -3 -14 -3c-5.33301 0 -9.83301 1.33301 -13.5 4s-5.5 6.66699 -5.5 12l49 135.5l55.5 147.5c19.667 50.667 40.667 102 63 154s46.166 103.667 71.499 155
c16.667 34.667 35.167 70.334 55.5 107.001s41.833 72.667 64.5 108s46.667 68.666 72 99.999s51.5 58.833 78.5 82.5s54.5 42.5 82.5 56.5s56.667 21 86 21c40.667 0 72.667 -14.167 96 -42.5s35 -65.5 35 -111.5c0 -24 -4 -50.333 -12 -79s-20 -58.667 -36 -90
s-36.167 -63.166 -60.5 -95.499s-52.5 -63.833 -84.5 -94.5c-31.333 -28 -65.666 -55 -102.999 -81s-76 -50 -116 -72s-80.667 -41 -122 -57s-81.333 -28 -120 -36l-27.5 -70.5l-24 -63l-22.5 -61l-23 -63.5c14 16 28.167 31.167 42.5 45.5s28.5 26.833 42.5 37.5
s27.5 19.167 40.5 25.5s25.167 9.5 36.5 9.5c14 0 25 -4.83301 33 -14.5s12 -25.167 12 -46.5c0 -12.667 -1.66699 -27.834 -5 -45.501s-8.66602 -37.834 -15.999 -60.501v1l-7 -22l-11.5 -35.5c-4.33301 -13.667 -8.5 -27.5 -12.5 -41.5s-7.33301 -27.5 -10 -40.5
s-4 -24.167 -4 -33.5c0 -18 4.66699 -27 14 -27c12.667 0 27.834 7.16699 45.501 21.5s36.667 33.333 57 57s41.333 50.334 63 80.001l64 90.5l59.5 89.5z" />
    <glyph glyph-name="i" unicode="i" horiz-adv-x="258" 
d="M64 388c4 0 6.33398 -0.669922 7.00098 -2.00293s1 -4 1 -8c-1.33301 -2 -4.83301 -9.16699 -10.5 -21.5s-12.334 -27.666 -20.001 -45.999l-25 -61.5c-9 -22.667 -17.167 -45.334 -24.5 -68.001s-13.5 -44.5 -18.5 -65.5s-7.5 -39.167 -7.5 -54.5
c0 -11.333 1.5 -20.166 4.5 -26.499s8.16699 -9.5 15.5 -9.5c12.667 0 28.667 6.66699 48 20s41 32.333 65 57s49.667 53.834 77 87.501s54.666 71.167 81.999 112.5c2.66699 2.66699 5 4 7 4s4.33301 -1.16699 7 -3.5s3.33398 -5.16602 2.00098 -8.49902
c-64.667 -96.667 -122.667 -169 -174 -217s-92.666 -72 -123.999 -72c-17.333 0 -29.5 6 -36.5 18s-10.5 27.667 -10.5 47c0 16 2.5 34.833 7.5 56.5s11.5 44.334 19.5 68.001s16.667 47 26 70s18.166 43.667 26.499 62s15.5 33.166 21.5 44.499s9.66699 17 11 17h23z
M64.001 432.997c10.667 0 17 -2.83203 19 -8.49902s3 -9.83398 3 -12.501c0 -11.333 -3 -17.833 -9 -19.5s-10.333 -2.5 -13 -2.5c-11.333 0 -17.833 3 -19.5 9s-2.5 10.667 -2.5 14c1.33301 9.33301 4.5 15 9.5 17s9.16699 3 12.5 3z" />
    <glyph glyph-name="j" unicode="j" horiz-adv-x="285" 
d="M74 470c5.33301 0 10.5 -2 15.5 -6s7.5 -9.33301 7.5 -16c0 -7.33301 -2.5 -12.833 -7.5 -16.5s-10.167 -5.5 -15.5 -5.5s-10 1.83301 -14 5.5s-6 9.16699 -6 16.5c0 5.33301 2 10.333 6 15s8.66699 7 14 7zM77 422c2 0 3.33105 -0.333984 3.99805 -1.00098
c0.666992 -1.33301 1.33398 -2.5 2.00098 -3.5s1 -3.5 1 -7.5l-194 -421c36 19.333 72.833 40.5 110.5 63.5s73.667 47.833 108 74.5s66 54.834 95 84.501s52.833 61.167 71.5 94.5h4c2.66699 0 5 -1 7 -3s2.33301 -4.66699 1 -8c-16 -28.667 -35.167 -55.667 -57.5 -81
s-46.333 -49 -72 -71s-51.667 -42.167 -78 -60.5s-51.5 -34.666 -75.5 -48.999s-45.667 -26.5 -65 -36.5s-34.666 -17.667 -45.999 -23c-8.66699 -4 -14 -7 -16 -9v2c-28 -56 -57.5 -112.167 -88.5 -168.5s-63.167 -110.5 -96.5 -162.5s-67.5 -100.5 -102.5 -145.5
s-70.667 -84.167 -107 -117.5s-73 -59.5 -110 -78.5s-73.833 -28.5 -110.5 -28.5c-26 0 -48.333 4.33301 -67 13s-34 20.5 -46 35.5s-20.833 32 -26.5 51s-8.5 39.167 -8.5 60.5c0 37.333 7.33301 71.833 22 103.5s34.167 61 58.5 88s52.5 51.833 84.5 74.5
s65.667 43.5 101 62.5s71 36.5 107 52.5l102 45l41 18l102 43.5c34 14.333 68 30.166 102 47.499l213 458c2 2 4.66699 3 8 3h22zM-413.002 -169.001c-4.66699 -2 -9.00098 -4.00098 -13.001 -6.00098s-8.66699 -4 -14 -6l-90 -42c-32 -15.333 -64 -32.166 -96 -50.499
s-62.667 -38.166 -92 -59.499s-55.333 -44.333 -78 -69s-40.667 -51.167 -54 -79.5s-20 -58.166 -20 -89.499c0 -19.333 2.5 -37.833 7.5 -55.5s12.833 -33.167 23.5 -46.5s23.834 -23.833 39.501 -31.5s34.167 -11.5 55.5 -11.5c35.333 0 72 12.167 110 36.5
s75.5 56 112.5 95s73 82.667 108 131s67.667 96.666 98 144.999s57.5 94.166 81.5 137.499l58 108z" />
    <glyph glyph-name="k" unicode="k" horiz-adv-x="489" 
d="M-80 86l55.9961 155.504l66 172c23.333 59 48.166 118 74.499 177s53.833 115.833 82.5 170.5s58.834 105.5 90.501 152.5s64.334 88 98.001 123s68.334 62.5 104.001 82.5s72.167 30 109.5 30c18 0 35 -3.5 51 -10.5s30 -17.167 42 -30.5s21.333 -29.5 28 -48.5
s10 -40.5 10 -64.5c0 -32 -6.5 -64.833 -19.5 -98.5s-29.333 -66.334 -49 -98.001s-41 -61.167 -64 -88.5s-44.167 -50.666 -63.5 -69.999c-31.333 -27.333 -65.666 -54.166 -102.999 -80.499s-76.166 -50.5 -116.499 -72.5s-81 -41 -122 -57s-80.833 -28 -119.5 -36
l-25 -64l-20.5 -54.5l-19 -52.5l-21.5 -57c12.667 20 27 40.833 43 62.5s31.833 41.334 47.5 59.001s30.834 32.334 45.501 44.001s27.667 17.5 39 17.5s18.666 -4.33301 21.999 -13s5 -17.667 5 -27c0 -15.333 -3.66699 -30.833 -11 -46.5s-16.833 -30 -28.5 -43
s-24.667 -23.833 -39 -32.5s-28.5 -13.334 -42.5 -14.001c0 -4 -0.666992 -8.66699 -2 -14c-2.66699 -13.333 -6 -33.333 -10 -60s-6 -58 -6 -94c0 -16 0.833008 -31.833 2.5 -47.5s4.83398 -29.5 9.50098 -41.5s11 -21.667 19 -29s18 -11 30 -11
c19.333 1.33301 40 10 62 26s44.5 36.167 67.5 60.5s46 51.666 69 81.999s45.167 61.166 66.5 92.499l60.5 91l50.5 77c5.33301 2 9.33301 1.5 12 -1.5s3.33398 -6.16699 2.00098 -9.5l-108.5 -166c-35 -52.667 -69 -99.167 -102 -139.5s-65.5 -72.5 -97.5 -96.5
s-63.333 -36 -94 -36c-18 0 -32.667 4.66699 -44 14s-20.333 21.166 -27 35.499s-11.334 30.666 -14.001 48.999s-4 36.5 -4 54.5c0 22 1.33301 43.5 4 64.5s5.66699 39.833 9 56.5c4 19.333 8.66699 37.666 14 54.999c0 2.66699 1.33301 4 4 4c18 0.666992 34 7 48 19
s25.667 25.833 35 41.5s16.5 31 21.5 46s7.5 25.833 7.5 32.5v1c-10 -3.33301 -21.167 -10.833 -33.5 -22.5s-25 -25.334 -38 -41.001s-26 -32.834 -39 -51.501l-37 -54.5l-31 -48l-20.5 -33.5c-2.66699 -1.33301 -5.83398 -2.66602 -9.50098 -3.99902s-7.16699 -2 -10.5 -2
c-10.667 0 -16 4 -16 12v2zM526.996 1109c-29.333 -16 -57.999 -37.502 -85.999 -64.502s-55.333 -58.5 -82 -94.5s-52.5 -75.333 -77.5 -118s-49 -87.167 -72 -133.5s-45 -93.666 -66 -141.999s-40.833 -96.166 -59.5 -143.499c38 8.66699 76.667 21 116 37
s78 34.667 116 56s74.833 44.666 110.5 69.999s68.5 51.666 98.5 78.999c20 18.667 41 41.334 63 68.001s42.333 55.334 61 86.001s34.167 62.167 46.5 94.5s18.5 63.5 18.5 93.5c0 20.667 -3 39.334 -9 56.001s-14 30.667 -24 42s-21.333 20.166 -34 26.499
s-26 9.5 -40 9.5c-13.333 0 -26.833 -2 -40.5 -6s-26.834 -9.33301 -39.501 -16z" />
    <glyph glyph-name="l" unicode="l" horiz-adv-x="462" 
d="M637 1114c-30.667 0 -63.167 -12.501 -97.5 -37.501s-68.833 -57.833 -103.5 -98.5s-69 -86.5 -103 -137.5s-66.167 -102.5 -96.5 -154.5s-58.166 -102.167 -83.499 -150.5l-64 -124.5c44.667 8 92 21.5 142 40.5s99.333 42 148 69s95.167 57.5 139.5 91.5
s83.166 70.5 116.499 109.5s60 79.833 80 122.5s30 86.334 30 131.001c0 42 -10 75.667 -30 101s-46 38 -78 38zM462 301.999c3.33301 3.33301 6.99805 3.99805 10.998 1.99805s5.33301 -5.66699 4 -11c-28.667 -43.333 -59 -85.5 -91 -126.5s-64.5 -79.333 -97.5 -115
s-66 -68.334 -99 -98.001s-64.333 -55.334 -94 -77.001s-57.5 -38.334 -83.5 -50.001s-48.667 -17.5 -68 -17.5c-21.333 0 -38 7.5 -50 22.5s-18 38.833 -18 71.5c0 38 9.66699 90 29 156s50.333 146.667 93 242l59 122.5c24 48.333 51 99.666 81 153.999s62 109.333 96 165
s68.333 107.834 103 156.501s69 91.5 103 128.5s66 63.833 96 80.5c17.333 8.66699 34.333 15.334 51 20.001s32 7 46 7c40 0 71.667 -14 95 -42s35 -65 35 -111c0 -24 -3.83301 -50.167 -11.5 -78.5s-19.667 -57.666 -36 -87.999s-37.5 -61.666 -63.5 -93.999
s-57 -64.5 -93 -96.5c-33.333 -29.333 -69.333 -56.833 -108 -82.5s-78.5 -48.667 -119.5 -69s-82.667 -37.666 -125 -51.999s-84.166 -24.833 -125.499 -31.5c-5.33301 -9.33301 -13.166 -24.833 -23.499 -46.5l-34.5 -75.5l-39.5 -93
c-13.667 -33.333 -26.167 -66.666 -37.5 -99.999s-20.5 -65.333 -27.5 -96s-10.5 -57.667 -10.5 -81c0 -20.667 3.66699 -37.167 11 -49.5s19 -18.5 35 -18.5c26 0 59.333 12.833 100 38.5s84.334 60.167 131.001 103.5s94.167 93.5 142.5 150.5
s93.166 116.833 134.499 179.5z" />
    <glyph glyph-name="m" unicode="m" horiz-adv-x="650" 
d="M93 7c-3.33301 0 -5.66797 1.66895 -7.00098 5.00195s-2 5.66602 -2 6.99902c3.33301 9.33301 7.16602 19 11.499 29l13.5 30l32 82.5c10 27 15 52.5 15 76.5c0 14 -2.16699 24 -6.5 30s-10.166 9 -17.499 9c-19.333 0 -39.666 -10.167 -60.999 -30.5
s-42.333 -45 -63 -74s-40 -59.5 -58 -91.5s-33 -59.667 -45 -83c-1.33301 -1.33301 -7.33301 -2 -18 -2c-5.33301 0 -10 0.833008 -14 2.5s-5.33301 5.5 -4 11.5c15.333 38 30.666 74.167 45.999 108.5l46 102.5l28 60c9.33301 20 18.333 40.333 27 61
c3.33301 3.33301 6 5 8 5h22c7.33301 0 10 -4.66699 8 -14l-30 -63l-20 -43l-12.5 -26l-11 -23c-3.66699 -8 -8.5 -19.333 -14.5 -34c12 19.333 25.167 38.333 39.5 57s29 35.334 44 50.001s30.167 26.5 45.5 35.5s30 13.5 44 13.5c20 0 34.333 -7.16699 43 -21.5
s13 -31.166 13 -50.499c0 -10 -1.16699 -20.333 -3.5 -31s-5.5 -21.667 -9.5 -33c10 17.333 21.333 35.166 34 53.499s26.167 35 40.5 50s29.333 27.167 45 36.5s31.5 14 47.5 14c16.667 0 30.5 -4.83301 41.5 -14.5s16.5 -23.167 16.5 -40.5
c-1.33301 -21.333 -8.83301 -47.833 -22.5 -79.5s-29.5 -65.167 -47.5 -100.5l-23 -44c-8.66699 -16.667 -16.834 -33.834 -24.501 -51.501s-14.167 -35 -19.5 -52s-8 -32.167 -8 -45.5c0 -9.33301 2.16699 -18 6.5 -26s11.833 -12 22.5 -12
c7.33301 0 15.833 2.33301 25.5 7s17.834 9.66699 24.501 15c35.333 29.333 66.666 61.666 93.999 96.999s52.833 71.833 76.5 109.5l68.5 114c22 38.333 45.333 75.5 70 111.5c2.66699 4 6 4.5 10 1.5s5 -7.16699 3 -12.5c-25.333 -39.333 -49.333 -78.833 -72 -118.5
s-46 -78.167 -70 -115.5s-49.667 -73.166 -77 -107.499s-58 -65.5 -92 -93.5c-22 -18.667 -44.333 -28 -67 -28c-15.333 0 -28.5 5.16699 -39.5 15.5s-16.5 26.166 -16.5 47.499c0 14 2.16699 29 6.5 45s10 32.5 17 49.5s14.5 33.667 22.5 50l23 46.5l24.5 51
c8.33301 17.333 15.833 33.833 22.5 49.5s12 30.5 16 44.5s6 26.667 6 38c0 20 -8.33301 30 -25 30c-12.667 0 -25.667 -4.5 -39 -13.5s-26.666 -21 -39.999 -36s-26.166 -31.667 -38.499 -50s-24 -37 -35 -56s-21 -37.333 -30 -55l-22.5 -45.5
c-5.33301 -10.667 -9.83301 -19.167 -13.5 -25.5s-6.5 -9.5 -8.5 -9.5h-22z" />
    <glyph glyph-name="n" unicode="n" horiz-adv-x="378" 
d="M-131 -24c-6.66699 2.66699 -9.33008 6.66406 -7.99707 11.9971c24 62.667 49 122.834 75 180.501l79 172.5c2 2 4.66699 3 8 3h21c3.33301 -1.33301 5.66602 -2.66602 6.99902 -3.99902s2 -4.33301 2 -9l-29 -60c-10 -20.667 -19.667 -41.667 -29 -63
c9.33301 14 19.166 27.5 29.499 40.5s21 24.5 32 34.5s22.667 18 35 24s25.166 9 38.499 9c14.667 0 25.834 -5 33.501 -15s11.5 -22.667 11.5 -38c0 -18 -5.83301 -39.833 -17.5 -65.5l-37.5 -80.5l-7 -14c-5.33301 -10 -11.333 -22.333 -18 -37l-20 -45
c-6.66699 -15.333 -12.167 -30.5 -16.5 -45.5s-6.5 -27.833 -6.5 -38.5c0 -14.667 6 -22 18 -22c14 0 31.167 9 51.5 27s41.5 40.5 63.5 67.5s44 56.667 66 89s42 63 60 92l45.5 74.5c12.333 20.667 19.5 33.334 21.5 38.001
c3.33301 3.33301 6.66602 4.16602 9.99902 2.49902s5 -4.5 5 -8.5c0 -0.666992 -4.16699 -8.33398 -12.5 -23.001l-33.5 -56.5l-48.5 -77c-18.333 -28.333 -37.5 -56.333 -57.5 -84s-39.833 -53.5 -59.5 -77.5s-38.167 -43 -55.5 -57c-19.333 -16 -38.333 -24 -57 -24
c-18 0 -30.667 4.83301 -38 14.5s-11 22.167 -11 37.5c0 12 2 25.5 6 40.5s9 29.833 15 44.5s12.333 28.834 19 42.501l17 34.5l7 13h-1l8 15.5l8 15.5l26 56c8 18 12.333 35.333 13 52c0 8 -1.33301 15.333 -4 22s-7.66699 10 -15 10c-12.667 0 -25.667 -5 -39 -15
s-26.5 -22.667 -39.5 -38s-25.5 -32.5 -37.5 -51.5s-22.833 -37.167 -32.5 -54.5s-18 -33.166 -25 -47.499l-15.5 -31.5l-3 -6c0.666992 0.666992 0.666992 0 0 -2s-1.66699 -4.66699 -3 -8s-2.83301 -6.83301 -4.5 -10.5s-2.83398 -6.5 -3.50098 -8.5l-13.5 -32
c-4.33301 -10 -8.16602 -15 -11.499 -15h-22z" />
    <glyph glyph-name="o" unicode="o" horiz-adv-x="353" 
d="M135 366c0 -4.66699 -2.33594 -7.66895 -7.00293 -9.00195c-22 -4 -41.5 -13 -58.5 -27s-31.5 -30.833 -43.5 -50.5s-21.167 -40.834 -27.5 -63.501s-9.5 -44 -9.5 -64c0 -11.333 0.833008 -22.333 2.5 -33s4.33398 -20.167 8.00098 -28.5s8.33398 -15 14.001 -20
s12.167 -7.5 19.5 -7.5c8 0 16.333 2.83301 25 8.5s17.167 12.834 25.5 21.501s16.333 18 24 28s14.167 19 19.5 27c-13.333 8.66699 -23.333 20.5 -30 35.5s-10 30.5 -10 46.5c0 12.667 1.66699 25.5 5 38.5s7.83301 25 13.5 36s12.334 20 20.001 27s16.167 10.5 25.5 10.5
c10.667 0 20 -5.33301 28 -16s12 -25.667 12 -45c0 -20.667 -4.33301 -42.167 -13 -64.5s-17 -41.833 -25 -58.5c5.33301 -1.33301 11.333 -2 18 -2c18.667 0 37.167 4.66699 55.5 14s35.5 21.166 51.5 35.499s30.5 29.833 43.5 46.5s23.5 32.334 31.5 47.001
c1.33301 4.66699 3.66602 7 6.99902 7c2 0 4 -1 6 -3s3 -5 3 -9c-9.33301 -16 -21 -33.167 -35 -51.5s-29.667 -35.166 -47 -50.499s-36 -28.166 -56 -38.499s-40.333 -15.5 -61 -15.5c-4.66699 0 -9.16699 0.333008 -13.5 1s-8.83301 1.66699 -13.5 3
c-8 -12.667 -16.5 -25 -25.5 -37s-18.667 -22.667 -29 -32s-21 -16.833 -32 -22.5s-22.167 -8.5 -33.5 -8.5c-20 0 -36.667 8.5 -50 25.5s-20 45.167 -20 84.5c0 26.667 3.83301 53.167 11.5 79.5s18.834 50 33.501 71s32 38.167 52 51.5s42.667 20 68 20
c3.33301 0 7 -0.333008 11 -1s6 -3 6 -7zM133.997 160.998l1.99805 4c0.666992 0 1.33398 -0.166992 2.00098 -0.5s1.33398 -0.5 2.00098 -0.5zM104.995 228.998c0 -13.333 2.33105 -25.9971 6.99805 -37.9971s12.667 -20.667 24 -26
c8.66699 15.333 16.834 33.666 24.501 54.999s11.5 41.666 11.5 60.999c0 13.333 -2.16699 24 -6.5 32s-9.16602 12 -14.499 12c-6 0 -11.833 -3 -17.5 -9s-10.5 -13.5 -14.5 -22.5s-7.33301 -19.333 -10 -31s-4 -22.834 -4 -33.501z" />
    <glyph glyph-name="p" unicode="p" horiz-adv-x="394" 
d="M-723 -834c38.667 12.667 76.332 35.166 112.999 67.499s71.167 68.333 103.5 108s62 80.334 89 122.001s50.167 78.834 69.5 111.501l72 129l68 132c-74 -12 -141.333 -29.667 -202 -53s-115 -50.333 -163 -81s-89.5 -64 -124.5 -100s-64.167 -72.333 -87.5 -109
s-40.666 -72.834 -51.999 -108.501s-17 -68.167 -17 -97.5c0 -16.667 1.66699 -32.667 5 -48s8.66602 -29 15.999 -41s16.833 -21.5 28.5 -28.5s25.834 -10.5 42.501 -10.5c12 0 25.333 2.33301 40 7h-1zM-874.002 -713.001c0 30.667 5.83398 64.5039 17.501 101.504
s29.5 74.667 53.5 113s54.333 76.333 91 114s80 72.334 130 104.001s106.667 59.5 170 83.5s134 41.667 212 53c26.667 54.667 51.834 108.667 75.501 162l64.5 148.5c19.333 45.667 35.833 86.5 49.5 122.5s23.834 64.333 30.501 85c3.33301 3.33301 6 5 8 5h22
c5.33301 0 8 -3.33301 8 -10l-8 -23.5c-2.66699 -7.66699 -5.83398 -16.334 -9.50098 -26.001l-13 -33.5l-18.5 -46c14.667 17.333 31.334 32.5 50.001 45.5s39.334 19.5 62.001 19.5c26.667 0 45 -7.33301 55 -22s15 -33.334 15 -56.001c0 -22 -4.16699 -42.5 -12.5 -61.5
s-18.166 -36.167 -29.499 -51.5c17.333 5.33301 36.166 12.833 56.499 22.5s37.5 19.167 51.5 28.5c21.333 14.667 43.166 33.167 65.499 55.5s46.166 50.5 71.499 84.5c5.33301 4 9.33301 3.66699 12 -1s2.66699 -9.33398 0 -14.001
c-24.667 -32.667 -48.834 -60.5 -72.501 -83.5s-46.167 -41.833 -67.5 -56.5c-8.66699 -6 -18.334 -12.167 -29.001 -18.5s-21.834 -12 -33.501 -17s-23.667 -9.5 -36 -13.5s-23.833 -6.33301 -34.5 -7c-14.667 -17.333 -32.834 -32.333 -54.501 -45
s-43.834 -19 -66.501 -19c-5.33301 0 -11.166 0.5 -17.499 1.5s-12.166 3 -17.499 6s-10 6.66699 -14 11s-6 10.166 -6 17.499c0 10 2.66699 18.167 8 24.5s12 11.333 20 15s16.5 6.16699 25.5 7.5s17.167 2 24.5 2c6 0 11.833 -0.166992 17.5 -0.5
s11.5 -0.833008 17.5 -1.5c5.33301 -0.666992 10.833 -1.16699 16.5 -1.5s11.167 -0.5 16.5 -0.5c11.333 15.333 22.5 33.5 33.5 54.5s16.5 41.5 16.5 61.5c0 19.333 -4.16699 33.833 -12.5 43.5s-17.5 14.5 -27.5 14.5c-14 0 -27.667 -4.16699 -41 -12.5
s-26 -18.833 -38 -31.5s-23 -26.5 -33 -41.5s-18.333 -29.167 -25 -42.5l-97 -213c-35.333 -76 -72.833 -151.667 -112.5 -227s-81 -147.833 -124 -217.5s-87 -131.167 -132 -184.5s-90.167 -96 -135.5 -128s-90.333 -48 -135 -48c-21.333 0 -39.166 4.66699 -53.499 14
s-26 21.166 -35 35.499s-15.5 30.333 -19.5 48s-6 34.5 -6 50.5zM1.99902 48.0029c6.66699 0 13.9971 1.50098 21.9971 4.50098s15.833 6.83301 23.5 11.5s14.834 9.66699 21.501 15l18 15c-3.33301 0 -6.5 0.166992 -9.5 0.5s-6.16699 0.833008 -9.5 1.5
c-5.33301 0.666992 -10.666 1.16699 -15.999 1.5s-10.666 0.5 -15.999 0.5c-14 0 -27.5 -2.33301 -40.5 -7s-19.5 -12.334 -19.5 -23.001c0 -6.66699 2.83301 -11.667 8.5 -15s11.5 -5 17.5 -5z" />
    <glyph glyph-name="q" unicode="q" horiz-adv-x="417" 
d="M-36 -213l39.0039 96.998l41 95c-4.66699 0.666992 -9.83398 1.5 -15.501 2.5s-11 2.5 -16 4.5s-9.33301 4.33301 -13 7s-5.5 5.66699 -5.5 9c0 1.33301 0.833008 3.16602 2.5 5.49902s3.16699 3.5 4.5 3.5c3.33301 0 5 -1.66699 5 -5v1c0 0.666992 -0.166992 1 -0.5 1
s-0.5 0.333008 -0.5 1c14.667 -8.66699 30 -13 46 -13l19.5 45.5l15 33.5l16 33l21.5 44c-14 -17.333 -29.667 -32.166 -47 -44.499s-36.666 -18.5 -57.999 -18.5c-26 0 -44 7.83301 -54 23.5s-15 34.5 -15 56.5c0 30 5.5 56.333 16.5 79s21.833 40.667 32.5 54
c14.667 17.333 32 32 52 44s41.333 18 64 18c23.333 0 41.666 -5.83301 54.999 -17.5s23.333 -25.834 30 -42.501l6 14c6 12 12.5 24.333 19.5 37s12.167 19 15.5 19h21c4 0 6.33301 -1 7 -3s1 -4.66699 1 -8l-20 -39l-75 -153.5l-78 -166.5c30 9.33301 61 25.833 93 49.5
s62.667 50.167 92 79.5s56 59.5 80 90.5s42.667 58.5 56 82.5c5.33301 0 8.83301 -1 10.5 -3s2.5 -4 2.5 -6c0 -5.33301 -2.83301 -12.166 -8.5 -20.499s-10.834 -15.5 -15.501 -21.5l-7 -9l-66.5 -82.5c-23.667 -28.333 -48.5 -54.666 -74.5 -78.999
s-53.333 -45.666 -82 -63.999s-58 -30.833 -88 -37.5l-5 -11c23.333 -37.333 44.5 -76.5 63.5 -117.5s35.167 -83 48.5 -126s23.666 -86 30.999 -129s11 -84.833 11 -125.5c0 -34.667 -3.33301 -71.5 -10 -110.5s-17.5 -75.833 -32.5 -110.5s-34.667 -65.167 -59 -91.5
s-53.833 -44.5 -88.5 -54.5c-10 -2.66699 -20.667 -4 -32 -4c-30 0 -54.667 8 -74 24s-34.833 36 -46.5 60s-19.834 50.167 -24.501 78.5s-7 54.5 -7 78.5c0 65.333 9.33301 135.5 28 210.5s43 152.5 73 232.5zM43.0039 -875.002c31.333 8 58.1689 23.833 80.502 47.5
s40.666 51.834 54.999 84.501s24.833 67.834 31.5 105.501s10 74.167 10 109.5c0 38.667 -3.5 78.667 -10.5 120s-17 82.833 -30 124.5s-28.333 82.5 -46 122.5s-37.5 78 -59.5 114c-23.333 -53.333 -45.333 -107.166 -66 -161.499s-38.834 -107.5 -54.501 -159.5
s-28 -102.333 -37 -151s-13.5 -94.334 -13.5 -137.001c0 -36.667 4 -71.334 12 -104.001c3.33301 -12 8.33301 -25 15 -39s14.667 -26.833 24 -38.5s19.833 -21.334 31.5 -29.001s24.5 -11.5 38.5 -11.5c6.66699 0 13 1 19 3zM103.007 155.998
c15.333 17.333 29.833 37.334 43.5 60.001s27.167 47 40.5 73c-5.33301 15.333 -13.333 28.5 -24 39.5s-24.667 16.5 -42 16.5c-12 0 -23.833 -3 -35.5 -9s-22.5 -13.667 -32.5 -23s-19.167 -19.5 -27.5 -30.5s-14.833 -21.5 -19.5 -31.5c-13.333 -28 -20 -54.333 -20 -79
c0 -18.667 3.5 -33.834 10.5 -45.501s17.5 -17.5 31.5 -17.5c9.33301 0 20.333 3.5 33 10.5s26.667 19.167 42 36.5z" />
    <glyph glyph-name="r" unicode="r" horiz-adv-x="374" 
d="M12 291c-1.33301 -2 -3.33496 -2.99512 -6.00195 -2.99512c-2 0 -4.33301 1.16699 -7 3.5s-3.33398 5.5 -2.00098 9.5c15.333 25.333 27.666 47.666 36.999 66.999s16.666 36.666 21.999 51.999c-9.33301 11.333 -16 21.833 -20 31.5s-6 18.167 -6 25.5
c0 11.333 2.66699 19.666 8 24.999s10.666 8 15.999 8c7.33301 0 13.833 -3.83301 19.5 -11.5s8.5 -17.834 8.5 -30.501c0 -5.33301 -0.166992 -10.333 -0.5 -15s-1.16602 -10 -2.49902 -16c16 -18.667 31.333 -39.5 46 -62.5s22 -47.167 22 -72.5
c0 -15.333 -5.66699 -35.5 -17 -60.5s-25 -53.167 -41 -84.5h1c-1.33301 -2.66699 -2.16602 -4 -2.49902 -4s-1.16602 -1.33301 -2.49902 -4l-25 -49c-10.667 -20.667 -21.167 -42.5 -31.5 -65.5s-19.333 -45.5 -27 -67.5s-11.5 -40 -11.5 -54
c0 -9.33301 2.16699 -17 6.5 -23s10.5 -9 18.5 -9c14 0 30.5 7 49.5 21s39 32.5 60 55.5s42.667 49 65 78l64.5 87.5l58 85l46 70l16 26c3.33301 2.66699 6.33301 2.66699 9 0s4 -5.66699 4 -9l-14 -23l-46.5 -71.5l-59.5 -87.5c-21.333 -30.667 -43.666 -61 -66.999 -91
s-46.5 -57 -69.5 -81s-45.167 -43.333 -66.5 -58s-40.333 -22 -57 -22c-15.333 0 -27.666 5 -36.999 15s-14 24.667 -14 44c0 16 2.33301 32.167 7 48.5s9.33398 30.166 14.001 41.499c6 14 14.167 31.5 24.5 52.5s21.5 42.167 33.5 63.5c13.333 24.667 26.333 50.5 39 77.5
s23 52.5 31 76.5c3.33301 12 5 22 5 30c0 16 -4.16699 31.5 -12.5 46.5s-17.833 30.167 -28.5 45.5c-5.33301 -14 -12.5 -30.167 -21.5 -48.5s-20.833 -38.833 -35.5 -61.5v-1zM56.998 483.005c0 -6.66699 2.33301 -15 7 -25v10c0 14 -1.66699 21 -5 21
c-1.33301 0 -2 -2 -2 -6z" />
    <glyph glyph-name="s" unicode="s" horiz-adv-x="309" 
d="M36 357c0 -14.667 -3.00293 -28.001 -9.00293 -40.001c4.66699 -18 10.5 -35.5 17.5 -52.5s14.833 -33.5 23.5 -49.5l16.5 -33c5 -10 9.5 -21 13.5 -33c42 18 81 38.333 117 61s67.333 53.334 94 92.001c4 4 7.66699 4.66699 11 2s5 -6 5 -10
c-14.667 -22 -30.167 -40.833 -46.5 -56.5s-33.666 -29.834 -51.999 -42.501s-37.5 -23.834 -57.5 -33.501l-63 -29.5c5.33301 -13.333 9.5 -27.166 12.5 -41.499s4.5 -28.5 4.5 -42.5s-2.33301 -28.5 -7 -43.5s-11.5 -29 -20.5 -42s-19.833 -23.667 -32.5 -32
s-27 -12.5 -43 -12.5c-12.667 0 -23.667 2.33301 -33 7s-17.166 10.667 -23.499 18s-11 15.5 -14 24.5s-4.5 17.833 -4.5 26.5c0 18 3.16699 34 9.5 48s14.833 26.667 25.5 38s23.334 21.333 38.001 30s30.667 17 48 25c-3.33301 5.33301 -6.33301 10.833 -9 16.5l-8 16.5
c-13.333 28.667 -26 57.334 -38 86.001s-18 55 -18 79c0 13.333 2 26 6 38s10.333 18 19 18c4 0 8 -2.5 12 -7.5s6 -13.167 6 -24.5zM82.9971 48.999c0 19.333 -4.00195 42 -12.002 68c-30 -14 -55.667 -30.5 -77 -49.5s-32 -43.5 -32 -73.5c0 -5.33301 1 -11.333 3 -18
s5 -12.834 9 -18.501s9.16699 -10.5 15.5 -14.5s13.5 -6 21.5 -6c8.66699 0 17.334 2.66699 26.001 8s16.334 13 23.001 23s12.167 21.833 16.5 35.5s6.5 28.834 6.5 45.501z" />
    <glyph glyph-name="t" unicode="t" horiz-adv-x="273" 
d="M417 858c-18 -16.667 -38.168 -37.832 -60.501 -63.499s-45.166 -54 -68.499 -85s-46.666 -63.667 -69.999 -98s-45.333 -68.5 -66 -102.5c67.333 36.667 125 74 173 112s87.167 74.333 117.5 109s52.666 66.167 66.999 94.5s21.5 51.166 21.5 68.499
c0 18 -5.66699 27 -17 27c-8 0 -16.833 -2.66699 -26.5 -8s-19.167 -11.5 -28.5 -18.5s-17.833 -14 -25.5 -21s-13.167 -11.833 -16.5 -14.5zM531.999 830.002c-10 -22.667 -25.334 -47.8311 -46.001 -75.498s-47.167 -56.667 -79.5 -87s-70.833 -61.333 -115.5 -93
s-96 -62.5 -154 -92.5c-0.666992 -1.33301 -1.5 -2.66602 -2.5 -3.99902s-1.5 -2.33301 -1.5 -3h149c4.66699 0 7 -2.33301 7 -7c0 -6 -2.33301 -9 -7 -9h-160c-44 -76.667 -81.833 -151.334 -113.5 -224.001s-55.5 -137.334 -71.5 -194.001
c-1.33301 -4 -3 -10.167 -5 -18.5s-4 -17.5 -6 -27.5s-3.66699 -20.667 -5 -32s-2 -22 -2 -32c0 -12.667 1.66699 -23.334 5 -32.001s8.66602 -13 15.999 -13c16.667 0 36.667 11.167 60 33.5s48 50.833 74 85.5s52.667 72.5 80 113.5l77 117.5l42 66
c4.66699 3.33301 8.66699 4 12 2s4.33301 -5.66699 3 -11l-29.5 -45l-30.5 -47l-79 -119c-26.667 -40 -53 -76.167 -79 -108.5s-51 -58.666 -75 -78.999s-46.333 -30.5 -67 -30.5c-11.333 0 -20.166 2.66699 -26.499 8s-11.166 11.666 -14.499 18.999s-5.33301 15.333 -6 24
s-1 16.667 -1 24c0 24.667 5 56.167 15 94.5s23.833 80.5 41.5 126.5s38.834 94.667 63.501 146s51.667 102.333 81 153h-146c-5.33301 0 -8 3 -8 9c0 4.66699 2.66699 7 8 7h157c25.333 45.333 51.666 88.833 78.999 130.5s55 81.5 83 119.5
c29.333 39.333 56.833 72.5 82.5 99.5s49.167 49 70.5 66s40.333 29.333 57 37s31 11.5 43 11.5c27.333 0 41 -15.333 41 -46c0 -16.667 -5.33301 -37.667 -16 -63z" />
    <glyph glyph-name="u" unicode="u" horiz-adv-x="465" 
d="M42 384c2 2 4.66895 2.99414 8.00195 2.99414h22c2.66699 0 5 -1 7 -3s2.33301 -5 1 -9c-10 -15.333 -20.833 -34 -32.5 -56s-22.667 -44.167 -33 -66.5s-18.833 -43.5 -25.5 -63.5s-10 -36 -10 -48c0 -11.333 2.16699 -20.666 6.5 -27.999s11.5 -11 21.5 -11
c13.333 0 28.833 6.33301 46.5 19s35.667 29 54 49s36.5 42 54.5 66s34 47.333 48 70c5.33301 8 10.666 16.667 15.999 26l15 26c5.33301 2.66699 12 4 20 4c4 0 7.83301 -0.666992 11.5 -2s5.5 -3.66602 5.5 -6.99902s-0.666992 -5.66602 -2 -6.99902v2
c-8 -13.333 -17.667 -31.166 -29 -53.499s-23.166 -47 -35.499 -74l-37.5 -84.5c-12.667 -29.333 -24 -57.833 -34 -85.5s-18.167 -53.5 -24.5 -77.5s-9.5 -43.667 -9.5 -59c0 -20 5.66699 -30 17 -30c16 0 34.333 9 55 27s42.5 41.333 65.5 70s46.667 61.167 71 97.5
l71.5 108.5l39.5 60c13 20 26.167 38.667 39.5 56c4 4 7.33301 4.16699 10 0.5s3.66699 -7.16699 3 -10.5l-57 -87l-78.5 -119.5c-27 -40.333 -53.667 -76.666 -80 -108.999s-51.833 -58.833 -76.5 -79.5s-47 -31 -67 -31c-16.667 0 -28.334 5.16699 -35.001 15.5
s-10 24.5 -10 42.5c0 18.667 3 40.167 9 64.5s13.667 49.333 23 75s19.166 51 29.499 76s20.166 47.5 29.499 67.5c-12.667 -16.667 -26.167 -32.667 -40.5 -48s-28.666 -28.666 -42.999 -39.999s-28.5 -20.5 -42.5 -27.5s-27 -10.5 -39 -10.5
c-18.667 0 -32.5 6.83301 -41.5 20.5s-13.5 29.167 -13.5 46.5c0 14.667 3.5 32.5 10.5 53.5s15.5 42.667 25.5 65s20.5 43.833 31.5 64.5s20.833 37.667 29.5 51v1z" />
    <glyph glyph-name="v" unicode="v" horiz-adv-x="358" 
d="M54 362c4 0 6.3291 -1 6.99609 -3s1 -5.33301 1 -10l-10 -19v1l-34.5 -67.5c-13 -26.333 -25.167 -53.166 -36.5 -80.499s-21 -53.833 -29 -79.5s-12.333 -47.167 -13 -64.5c0 -11.333 1.33301 -19.166 4 -23.499s6.33398 -6.5 11.001 -6.5
c10 0 21.833 4.83301 35.5 14.5s28 22 43 37s30 31.833 45 50.5s29.167 37.334 42.5 56.001c-4.66699 8 -8.16699 17.333 -10.5 28s-3.5 21 -3.5 31s1.16699 20.667 3.5 32s6 21.833 11 31.5s11.167 17.667 18.5 24s16 9.5 26 9.5c8.66699 0 15.834 -3.33301 21.501 -10
s8.5 -15.667 8.5 -27c0 -9.33301 -2 -19.666 -6 -30.999s-8.66699 -22.5 -14 -33.5s-11.166 -21.333 -17.499 -31l-15.5 -23.5c4 -4 8.83301 -6.83301 14.5 -8.5s11.5 -2.5 17.5 -2.5c15.333 0 31.166 3.66699 47.499 11s29.5 14.666 39.5 21.999
c17.333 12.667 34.5 28.167 51.5 46.5s32.167 39.5 45.5 63.5c1.33301 4.66699 4 7 8 7c2 0 4 -1 6 -3s3 -4.66699 3 -8c-15.333 -25.333 -32.166 -48.333 -50.499 -69s-36.166 -37.667 -53.499 -51c-11.333 -7.33301 -26.166 -15.333 -44.499 -24s-35.833 -13 -52.5 -13
c-9.33301 0 -17 1 -23 3s-12.333 6 -19 12c-17.333 -23.333 -35.666 -46.333 -54.999 -69s-38.333 -42 -57 -58l-32.5 -23.5c-13.667 -9.66699 -27.834 -14.5 -42.501 -14.5c-13.333 0 -23.5 4.66699 -30.5 14s-10.5 21.666 -10.5 36.999c0 17.333 4 39.166 12 65.499
s17.667 53.666 29 81.999s23.5 56 36.5 83s24.5 49.833 34.5 68.5l11 23h1c0.666992 0 1.16699 0.166992 1.5 0.5s1.16602 0.5 2.49902 0.5h22zM133.996 187c4 6.66699 8.33203 14.332 12.999 22.999l14 26.5c4.66699 9 8.5 17.833 11.5 26.5s4.5 16.334 4.5 23.001
c0 12.667 -4 19 -12 19c-6.66699 0 -12.667 -2.5 -18 -7.5s-9.66602 -11.5 -12.999 -19.5s-6 -16.667 -8 -26s-3 -18.333 -3 -27c0 -15.333 2.66699 -29.333 8 -42z" />
    <glyph glyph-name="w" unicode="w" horiz-adv-x="621" 
d="M291 319l-29.998 -67.4971c-10.667 -25 -20.5 -50.333 -29.5 -76s-16.5 -50.167 -22.5 -73.5s-9 -43.333 -9 -60c0 -22 5.33301 -33 16 -33c8.66699 0 19.5 4.66699 32.5 14s27 21.5 42 36.5s30.333 31.833 46 50.5s30.167 37.667 43.5 57
c-3.33301 6.66699 -6.33301 15 -9 25s-4 19.667 -4 29c0 10.667 1.33301 22 4 34s6.5 23 11.5 33s11.167 18.333 18.5 25s15.666 10 24.999 10s16.5 -3.5 21.5 -10.5s7.5 -15.5 7.5 -25.5c0 -9.33301 -1.83301 -19.5 -5.5 -30.5s-8.33398 -22 -14.001 -33
s-11.5 -21.333 -17.5 -31s-11.333 -17.834 -16 -24.501c7.33301 -8 18 -12 32 -12c14.667 0 30.5 3.66699 47.5 11s30.167 14.666 39.5 21.999c18 12.667 35.667 28.5 53 47.5s33 41.167 47 66.5c3.33301 3.33301 6.5 3.66602 9.5 0.999023s4.5 -5.66699 4.5 -9
c-14 -26.667 -30.5 -50 -49.5 -70s-37.167 -36.667 -54.5 -50c-11.333 -7.33301 -26 -15.333 -44 -24s-35.667 -13 -53 -13c-9.33301 0 -17 1 -23 3s-12.333 6 -19 12c-13.333 -19.333 -27.833 -38.666 -43.5 -57.999s-31.5 -36.833 -47.5 -52.5s-31.667 -28.5 -47 -38.5
s-29 -15 -41 -15c-15.333 0 -26.666 5.83301 -33.999 17.5s-11 27.834 -11 48.501c0 15.333 1.16699 30.333 3.5 45s5.16602 28.667 8.49902 42c-16 -24.667 -33.333 -49.834 -52 -75.501s-37.834 -48.834 -57.501 -69.501s-39.667 -37.667 -60 -51s-39.833 -20 -58.5 -20
c-21.333 0 -35.5 7.33301 -42.5 22s-10.5 31.667 -10.5 51c0 26 4.33301 54.833 13 86.5s19.334 63.5 32.001 95.5s26 62.833 40 92.5l37 76.5l18 35c2 2 6.33301 3 13 3c4 0 7.83301 -1 11.5 -3s6.83398 -4 9.50098 -6c2 -2 2.33301 -3.66699 1 -5l-9 -16l-37.5 -77.5
c-15 -31 -29.333 -63.667 -43 -98s-25.334 -68.5 -35.001 -102.5s-14.5 -64.333 -14.5 -91c0 -11.333 1.83301 -21.333 5.5 -30s10.167 -13 19.5 -13c20 0 40.667 8 62 24s42 36.333 62 61s39.167 52 57.5 82s35 59.167 50 87.5s27.833 53.833 38.5 76.5l23 49
c4 6 9.33301 9 16 9c5.33301 0 10.333 -1.33301 15 -4s7 -6 7 -10v-2zM385.002 221.003c0 -15.333 2.00098 -28.332 6.00098 -38.999c4.66699 6.66699 9.66699 14.5 15 23.5s10.5 18.167 15.5 27.5s9.16699 18.666 12.5 27.999s5 17.666 5 24.999
c0 12.667 -4.33301 19 -13 19c-6.66699 0 -12.5 -2.66699 -17.5 -8s-9.33301 -12.166 -13 -20.499s-6.33398 -17.5 -8.00098 -27.5s-2.5 -19.333 -2.5 -28z" />
    <glyph glyph-name="x" unicode="x" horiz-adv-x="466" 
d="M74 111c0.666992 -4 1.33594 -8.50098 2.00293 -13.501s1.33398 -10.5 2.00098 -16.5l7 -52c2.66699 -19.333 6.5 -37.333 11.5 -54s11.333 -30.667 19 -42s17.5 -17 29.5 -17c12.667 0 28.5 7.5 47.5 22.5s41.833 38.167 68.5 69.5s57 71.666 91 120.999s72 108 114 176
c3.33301 2 6.33301 2 9 0s4 -4.66699 4 -8s-0.666992 -5.66602 -2 -6.99902v1c-46 -75.333 -87 -138.5 -123 -189.5s-68 -92 -96 -123s-52.333 -53.333 -73 -67s-38.334 -20.5 -53.001 -20.5c-15.333 0 -28.333 5.5 -39 16.5s-19.334 25 -26.001 42s-12 35.333 -16 55
s-7.33301 38.167 -10 55.5c-1.33301 -1.33301 -2.66602 -3.16602 -3.99902 -5.49902s-2.33301 -4.16602 -3 -5.49902l-46.5 -73c-17.667 -27.333 -37.167 -53.333 -58.5 -78s-44 -45.334 -68 -62.001s-48.667 -25 -74 -25c-2 0 -6.83301 0.5 -14.5 1.5
s-15.5 2.83301 -23.5 5.5s-15.167 6 -21.5 10s-9.5 8.66699 -9.5 14c0 6 2.66699 9 8 9c4 0 6.66699 -0.666992 8 -2h-1c14.667 -11.333 29.667 -17 45 -17c22 0 44.5 9.16699 67.5 27.5s45 40.5 66 66.5s40.5 53.333 58.5 82l46 75v-1c3.33301 5.33301 6.33301 10.5 9 15.5
s5.66699 10.167 9 15.5c-2 16 -5 36.667 -9 62s-9.33301 50.833 -16 76.5s-15.167 49.167 -25.5 70.5s-22.833 36 -37.5 44c-4.66699 1.33301 -7 4.33301 -7 9c0 5.33301 2.33301 8 7 8c20 0 36.5 -6 49.5 -18s24 -28.167 33 -48.5s16.5 -43.5 22.5 -69.5s11.333 -53 16 -81
l55.5 84c18.333 26.667 36.666 50 54.999 70s36.666 36 54.999 48s37.166 18 56.499 18c4.66699 0 10.5 -0.5 17.5 -1.5s10.5 -4.16699 10.5 -9.5c0 -6 -4.33301 -9 -13 -9c-20 0 -40.667 -9 -62 -27s-42 -39.667 -62 -65s-38.333 -51.5 -55 -78.5l-40 -66.5z" />
    <glyph glyph-name="y" unicode="y" horiz-adv-x="488" 
d="M39 384c2 2 4.67188 2.99219 8.00488 2.99219h21c2 0 4 -1.16699 6 -3.5s3 -5.16602 3 -8.49902c-10 -15.333 -20.667 -34.333 -32 -57s-22 -45.5 -32 -68.5s-18.167 -44.5 -24.5 -64.5s-9.5 -35.333 -9.5 -46c0 -10 1.83301 -18.667 5.5 -26s10.834 -11 21.501 -11
c12.667 0 26.5 4.66699 41.5 14s30 21.5 45 36.5s29.667 31.833 44 50.5s27.833 37.5 40.5 56.5s24 37 34 54s18 31.5 24 43.5c0 0.666992 0.333008 1.83398 1 3.50098l6 14.5c4 9.33301 8.66699 19.5 14 30.5s10.333 16.5 15 16.5h21c2 0 4 -1.16699 6 -3.5
s3 -5.16602 3 -8.49902l-41.5 -89.5l-40.5 -89.5l-55.5 -121.5c-17.667 -38.333 -37.167 -78.5 -58.5 -120.5c32 16.667 65.5 35.834 100.5 57.501s69.167 45.334 102.5 71.001s64.833 52.5 94.5 80.5s55.167 57 76.5 87c1.33301 2 2.83301 4.83301 4.5 8.5
s3.16699 6.5 4.5 8.5c4.66699 4.66699 8.66699 5.5 12 2.5s5 -6.83301 5 -11.5l-14 -20c-22 -32 -48.833 -62.833 -80.5 -92.5s-65.334 -57.5 -101.001 -83.5s-72.167 -50.167 -109.5 -72.5s-73 -41.833 -107 -58.5l-88 -167c-30.667 -56 -62.834 -110 -96.501 -162
s-68 -100.667 -103 -146s-70.667 -84.666 -107 -117.999s-72.833 -59.666 -109.5 -78.999s-73 -29 -109 -29c-24 0 -45.333 4.33301 -64 13s-34.334 20.5 -47.001 35.5s-22.334 32.5 -29.001 52.5s-10 41 -10 63c0 36 8.16699 70 24.5 102s38.333 62.167 66 90.5
s60 55 97 80s76.167 48.5 117.5 70.5s84 42.833 128 62.5l128 56.5c29.333 13.333 57.666 25.5 84.999 36.5s52.666 22.5 75.999 34.5c23.333 46 45.333 91.667 66 137l58 128c-12 -16 -25 -32.5 -39 -49.5s-28.667 -32.5 -44 -46.5s-30.833 -25.333 -46.5 -34
s-30.834 -13 -45.501 -13c-19.333 0 -33.666 6.33301 -42.999 19s-14 27.667 -14 45c0 14.667 3.33301 32.5 10 53.5s14.667 42.5 24 64.5s19.5 43.333 30.5 64s21.167 38.334 30.5 53.001v1zM-460.995 -700.008c45.333 18 90.1699 48.332 134.503 90.999
s87.833 93 130.5 151s83.667 121.167 123 189.5s76.666 136.833 111.999 205.5l-67.5 -30l-74.5 -32l-124 -54.5c-42.667 -19 -84.334 -39.5 -125.001 -61.5s-79.334 -45.167 -116.001 -69.5s-68.667 -50.166 -96 -77.499s-49 -56.333 -65 -87s-24 -63 -24 -97
c0 -20 2.83301 -38.667 8.5 -56s13.834 -32.5 24.501 -45.5s23.667 -23.167 39 -30.5s33 -11 53 -11c19.333 0 41.666 5 66.999 15z" />
    <glyph glyph-name="z" unicode="z" horiz-adv-x="520" 
d="M173 24c34 14.667 67.4941 30.8311 100.494 48.498s64.5 37.667 94.5 60s57.833 47.333 83.5 75s48.5 58.834 68.5 93.501c3.33301 3.33301 6 5 8 5s4.16699 -1.16699 6.5 -3.5s3.5 -5.16602 3.5 -8.49902c-22 -37.333 -46.667 -70.5 -74 -99.5
s-56.833 -55.167 -88.5 -78.5s-64.667 -44.166 -99 -62.499s-69.5 -34.833 -105.5 -49.5c-8 -55.333 -26.5 -114.333 -55.5 -177s-73.833 -128 -134.5 -196c-38.667 -44 -80.834 -78.667 -126.501 -104s-95.167 -38 -148.5 -38c-28 0 -52.667 4.33301 -74 13
s-39.166 19.834 -53.499 33.501s-25.166 29.167 -32.499 46.5s-11 34.666 -11 51.999c0 42.667 11.5 79.334 34.5 110.001s53.5 57.667 91.5 81s81.5 44 130.5 62s99.5 35.667 151.5 53l95.5 32.5c31.667 10.333 62.834 22.166 93.501 35.499c2 14.667 3 30.334 3 47.001
c0 19.333 -2 38.666 -6 57.999s-11.333 36.666 -22 51.999c-28.667 -19.333 -58.667 -29 -90 -29c-14 0 -24.667 2.83301 -32 8.5s-11 13.167 -11 22.5c0 8 3.16699 15.167 9.5 21.5s14 11.833 23 16.5s18.5 8.16699 28.5 10.5s19 3.5 27 3.5
c18.667 0 35.334 -4.33301 50.001 -13c10.667 8.66699 20.834 18.667 30.501 30s18 23 25 35s12.667 24.167 17 36.5s6.5 23.833 6.5 34.5c0 16 -5 27.167 -15 33.5s-20.667 9.5 -32 9.5c-25.333 0 -50 -8.83301 -74 -26.5s-44.333 -40.5 -61 -68.5
c-1.33301 -1.33301 -3.33301 -2 -6 -2c-2 0 -4.16699 1 -6.5 3s-2.83301 5 -1.5 9c19.333 32 42.833 57.333 70.5 76s55.834 28 84.501 28c20 0 37 -6 51 -18s21 -28.667 21 -50c0 -14 -2.83301 -28.333 -8.5 -43s-12.667 -29 -21 -43s-17.666 -26.833 -27.999 -38.5
s-19.833 -20.834 -28.5 -27.501c14.667 -17.333 24.667 -37.666 30 -60.999s8 -47 8 -71v-14.5c0 -5.66699 -0.333008 -10.167 -1 -13.5zM8.99414 153.997c12.667 0 26.666 3.83301 41.999 11.5s27.333 14.167 36 19.5c-13.333 8.66699 -27.333 13 -42 13
c-4 0 -9.16699 -0.666992 -15.5 -2s-12.166 -3.33301 -17.499 -6s-10 -6 -14 -10s-6 -8.33301 -6 -13c0 -8.66699 5.66699 -13 17 -13zM-174.007 -455.003c22 12 42.999 26.333 62.999 43s38.667 34.667 56 54c54.667 60 96.667 120 126 180s48.333 115 57 165l-89.5 -33
c-29.667 -10.667 -59.5 -20.667 -89.5 -30c-52 -17.333 -101.833 -34.833 -149.5 -52.5s-89.667 -37.5 -126 -59.5s-65.5 -47.333 -87.5 -76s-33 -62.667 -33 -102c0 -14 3 -28.5 9 -43.5s15.167 -28.5 27.5 -40.5s27.5 -21.833 45.5 -29.5s39 -11.5 63 -11.5
c22.667 0 44.834 3.5 66.501 10.5s42.167 15.5 61.5 25.5z" />
    <glyph glyph-name="braceleft" unicode="{" horiz-adv-x="486" 
d="M271 281c0.666992 4 1.16797 7.83203 1.50098 11.499s0.5 6.83398 0.5 9.50098c0 10 -1.5 17.167 -4.5 21.5s-6.16699 6.5 -9.5 6.5c-6.66699 0 -13.334 -3.66699 -20.001 -11s-10 -16 -10 -26c0 -6.66699 2 -12.5 6 -17.5s9 -7.5 15 -7.5c4.66699 0 9 1.5 13 4.5
s6.66699 6.16699 8 9.5v-1zM224.001 -480.001c-2 0 -3.33008 0.333008 -3.99707 1c-52 18.667 -88.333 44.667 -109 78s-31 70.666 -31 111.999c0 26 3 52.333 9 79s13.667 53.334 23 80.001s19.666 52.667 30.999 78l33 71c1.33301 1.33301 2.66602 3.83301 3.99902 7.5
l4 10.5c23.333 50 41.333 92.167 54 126.5s21.667 63.166 27 86.499c-2.66699 -0.666992 -6.33398 -1 -11.001 -1c-10.667 0 -20.167 3.66699 -28.5 11s-12.5 18.333 -12.5 33c0 12.667 4.66699 25 14 37s21.666 18 36.999 18c10 0 18.167 -3.33301 24.5 -10
s11.166 -14.334 14.499 -23.001c16 22 30.167 46.167 42.5 72.5l35.5 76.5l34.5 84c12.333 30.667 26.166 61.667 41.499 93s32 61.666 50 90.999s38.333 55.5 61 78.5s47.834 41.333 75.501 55s58.167 20.5 91.5 20.5c2.66699 0 8.16699 -0.5 16.5 -1.5s17 -2.33301 26 -4
s16.833 -3.66699 23.5 -6s10 -5.16602 10 -8.49902c0 -2.66699 -1.16699 -5 -3.5 -7s-5.16602 -2.33301 -8.49902 -1c-18 6.66699 -35.333 10 -52 10c-23.333 0 -45.666 -6 -66.999 -18s-41.666 -28.167 -60.999 -48.5s-37.833 -44 -55.5 -71s-34.667 -55.833 -51 -86.5
l-48 -94l-46.5 -94l-26.5 -55c-8.33301 -17.333 -16.833 -33.833 -25.5 -49.5s-17.834 -30.5 -27.501 -44.5s-20.834 -26.667 -33.501 -38c-6.66699 -43.333 -18 -84.5 -34 -123.5s-32.667 -77.5 -50 -115.5l-13 -29l-31 -68.5c-10.667 -24.333 -20.5 -49.333 -29.5 -75
s-16.5 -51.5 -22.5 -77.5s-9 -51 -9 -75c0 -36 8.33301 -68.667 25 -98s46.334 -52.666 89.001 -69.999l2 -4c0.666992 -1.33301 1 -2.66602 1 -3.99902c0 -6 -3 -9 -9 -9z" />
    <glyph glyph-name="bar" unicode="|" 
d="M319 971c0 5.33301 1.83301 10 5.5 14s8.5 6 14.5 6c4.66699 0 9.16699 -2 13.5 -6s6.5 -8.66699 6.5 -14v-1439c0 -5.33301 -2.16699 -10.166 -6.5 -14.499s-8.83301 -6.5 -13.5 -6.5c-6 0 -10.833 2.16699 -14.5 6.5s-5.5 9.16602 -5.5 14.499v1439z" />
    <glyph glyph-name="braceright" unicode="}" horiz-adv-x="475" 
d="M267 885c26 -9.33301 47.9971 -20.4951 65.9971 -33.4951s32.5 -27.667 43.5 -44s18.833 -33.833 23.5 -52.5s7 -38.334 7 -59.001c0 -24 -3 -49 -9 -75s-13.5 -51.833 -22.5 -77.5s-18.833 -51 -29.5 -76l-31 -71.5l-12 -25h1c-23.333 -50 -41.333 -92.167 -54 -126.5
s-22 -62.833 -28 -85.5c2.66699 0.666992 6.66699 1 12 1c11.333 0 20.833 -4.33301 28.5 -13s11.5 -19.667 11.5 -33c0 -12.667 -4.66699 -25.167 -14 -37.5s-21.666 -18.5 -36.999 -18.5c-10.667 0 -19.167 3.16699 -25.5 9.5s-10.833 14.166 -13.5 23.499
c-17.333 -26 -31.833 -51.167 -43.5 -75.5l-33.5 -72.5c-3.33301 -6.66699 -6.66602 -13.834 -9.99902 -21.501l-9 -21.5l-35.5 -79.5c-13 -28.333 -27.167 -56.666 -42.5 -84.999s-32.166 -55.333 -50.499 -81s-38.166 -48.5 -59.499 -68.5s-44.333 -35.833 -69 -47.5
s-51.334 -17.5 -80.001 -17.5c-3.33301 0 -9 0.333008 -17 1s-16.5 1.83398 -25.5 3.50098s-16.833 3.83398 -23.5 6.50098s-10 6 -10 10c0 1.33301 1.33301 3 4 5s5.66699 3 9 3c18 -6 35.333 -9 52 -9c36 0 69.333 12.167 100 36.5s58.667 54.666 84 90.999
s48 75.333 68 117l53 114.5l11.5 27l10.5 24l7 13h-1c14 31.333 29.333 62.166 46 92.499s37.667 57.166 63 80.499c6.66699 38 17.5 76.833 32.5 116.5s30.167 76.5 45.5 110.5l6 14h-1l16 35l30.5 68c10.333 24 20 48.5 29 73.5s16.167 50.167 21.5 75.5
s8 49.666 8 72.999c0 34.667 -8.16699 66.834 -24.5 96.501s-44.833 53.167 -85.5 70.5c-2.66699 1.33301 -4.16699 2.66602 -4.5 3.99902s-0.5 2.66602 -0.5 3.99902c0 2 0.833008 4 2.5 6s4.16699 2.33301 7.5 1h2zM214.997 123.005
c-0.666992 -3.33301 -1.16797 -6.5 -1.50098 -9.5s-0.5 -5.5 -0.5 -7.5c0 -10.667 1.5 -18.167 4.5 -22.5s6.5 -6.5 10.5 -6.5c7.33301 0 14.333 3.83301 21 11.5s10 16.167 10 25.5c0 6.66699 -1.83301 12.667 -5.5 18s-8.83398 8 -15.501 8
c-5.33301 0 -10.166 -1.5 -14.499 -4.5s-7.16602 -6.16699 -8.49902 -9.5v-3z" />
    <glyph glyph-name="asciitilde" unicode="~" 
d="M212 128c5.33301 18.667 14.1641 33.8301 26.4971 45.4971s27 21.334 44 29.001s35.667 13.834 56 18.501s41.5 9 63.5 13l64 12.5c21.333 4.33301 41 10.166 59 17.499s33.333 17 46 29s21.667 27.667 27 47c1.33301 3.33301 3 5.66602 5 6.99902s3.66699 2 5 2
c6 0 9 -3.66699 9 -11c-5.33301 -27.333 -15.166 -49.166 -29.499 -65.499s-31.5 -29.166 -51.5 -38.499s-42 -16.166 -66 -20.499s-48 -7.83301 -72 -10.5c-19.333 -2.66699 -38.166 -5.5 -56.499 -8.5s-35 -7.16699 -50 -12.5s-28 -12.333 -39 -21s-18.5 -20 -22.5 -34
c-3.33301 -6.66699 -6.66602 -10 -9.99902 -10c-5.33301 0 -8 2.66699 -8 8v3z" />
    <glyph glyph-name="quoteleft" unicode="&#x2018;" 
d="M409 730c-11.333 -2 -22.9961 -6.00293 -34.9961 -12.0029s-23.667 -12.833 -35 -20.5s-21.833 -16.167 -31.5 -25.5s-17.834 -18.333 -24.501 -27c14 -9.33301 21 -20.666 21 -33.999c0 -9.33301 -3.33301 -17.666 -10 -24.999s-15.334 -11 -26.001 -11
c-11.333 0 -20.333 3.33301 -27 10s-10 15.334 -10 26.001c0 14 6.33301 28.667 19 44s28.167 29.833 46.5 43.5s37.666 25 57.999 34s38.166 13.833 53.499 14.5c3.33301 0 5.5 -1 6.5 -3s1.5 -4 1.5 -6c0 -4 -2.33301 -6.66699 -7 -8z" />
    <glyph glyph-name="quoteright" unicode="&#x2019;" 
d="M232 585c11.333 2 22.999 5.83301 34.999 11.5s23.667 12.334 35 20.001s21.833 16 31.5 25s17.5 18.167 23.5 27.5c-7.33301 4 -12.5 9 -15.5 15s-4.5 12.333 -4.5 19c0 9.33301 3.33301 17.666 10 24.999s15.667 11 27 11c24 0 36 -12.333 36 -37
c0 -13.333 -6.33301 -27.833 -19 -43.5s-28.167 -30.167 -46.5 -43.5s-37.666 -24.5 -57.999 -33.5s-37.833 -13.833 -52.5 -14.5c-6 0 -9 3 -9 9c0 4.66699 2.33301 7.66699 7 9z" />
    <glyph glyph-name="quotesinglbase" unicode="&#x201a;" 
d="M232 -279c11.333 2 23 5.83301 35 11.5s23.667 12.5 35 20.5s21.833 16.5 31.5 25.5s17.5 18.167 23.5 27.5c-13.333 8.66699 -20 19.667 -20 33c0 9.33301 3.33301 17.833 10 25.5s15.667 11.5 27 11.5s20.166 -3.5 26.499 -10.5s9.5 -16.167 9.5 -27.5
c0 -13.333 -6.33301 -27.833 -19 -43.5s-28.167 -30.167 -46.5 -43.5s-37.666 -24.5 -57.999 -33.5s-37.833 -13.833 -52.5 -14.5c-6 0 -9 3 -9 9c0 4.66699 2.33301 7.66699 7 9z" />
    <glyph glyph-name="quotedblleft" unicode="&#x201c;" 
d="M410 730c-11.333 -2 -23 -6.00195 -35 -12.002s-23.833 -12.833 -35.5 -20.5s-22.334 -16.167 -32.001 -25.5s-17.5 -18.333 -23.5 -27c7.33301 -4.66699 12.5 -10 15.5 -16s4.5 -12 4.5 -18c0 -9.33301 -3.16699 -17.666 -9.5 -24.999s-15.166 -11 -26.499 -11
s-20.166 3.33301 -26.499 10s-9.5 15.334 -9.5 26.001c0 14 6.33301 28.667 19 44s28.167 29.833 46.5 43.5s37.5 25 57.5 34s37.667 13.833 53 14.5c3.33301 0 5.66602 -1 6.99902 -3s2 -4 2 -6c0 -4 -2.33301 -6.66699 -7 -8zM555 729.998
c-11.333 -2 -23 -6.00195 -35 -12.002s-23.833 -12.833 -35.5 -20.5s-22.334 -16.167 -32.001 -25.5s-17.5 -18.333 -23.5 -27c7.33301 -4.66699 12.5 -10 15.5 -16s4.5 -12 4.5 -18c0 -9.33301 -3.16699 -17.666 -9.5 -24.999s-15.166 -11 -26.499 -11
s-20.333 3.33301 -27 10s-10 15.334 -10 26.001c0 14 6.33301 28.667 19 44s28.334 29.833 47.001 43.5s38 25 58 34s37.667 13.833 53 14.5c3.33301 0 5.66602 -1 6.99902 -3s2 -4 2 -6c0 -4 -2.33301 -6.66699 -7 -8z" />
    <glyph glyph-name="quotedblright" unicode="&#x201d;" 
d="M377 585c11.333 2 23.165 5.83301 35.498 11.5s24.166 12.334 35.499 20.001s21.833 16 31.5 25s17.5 18.167 23.5 27.5c-7.33301 4 -12.5 9 -15.5 15s-4.5 12.333 -4.5 19c0 9.33301 3.33301 17.666 10 24.999s15.334 11 26.001 11c24.667 0 37 -12.333 37 -37
c0 -13.333 -6.33301 -27.833 -19 -43.5s-28.167 -30.167 -46.5 -43.5s-37.666 -24.5 -57.999 -33.5s-38.166 -13.833 -53.499 -14.5c-5.33301 0 -8 3 -8 9c0 4.66699 2 7.66699 6 9zM231.999 585c11.333 2 23.165 5.83301 35.498 11.5s24.166 12.334 35.499 20.001
s21.833 16 31.5 25s17.5 18.167 23.5 27.5c-7.33301 4 -12.5 9 -15.5 15s-4.5 12.333 -4.5 19c0 9.33301 3.33301 17.666 10 24.999s15.334 11 26.001 11c24.667 0 37 -12.333 37 -37c0 -13.333 -6.33301 -27.833 -19 -43.5s-28.167 -30.167 -46.5 -43.5
s-37.666 -24.5 -57.999 -33.5s-38.166 -13.833 -53.499 -14.5c-5.33301 0 -8 3 -8 9c0 4.66699 2 7.66699 6 9z" />
    <glyph glyph-name="quotedblbase" unicode="&#x201e;" 
d="M342 -279c11.333 2 23 5.83301 35 11.5s23.667 12.5 35 20.5s21.833 16.5 31.5 25.5s17.5 18.167 23.5 27.5c-13.333 8.66699 -20 19.667 -20 33c0 9.33301 3.33301 17.833 10 25.5s15.667 11.5 27 11.5s20.166 -3.5 26.499 -10.5s9.5 -16.167 9.5 -27.5
c0 -13.333 -6.33301 -27.833 -19 -43.5s-28.167 -30.167 -46.5 -43.5s-37.666 -24.5 -57.999 -33.5s-37.833 -13.833 -52.5 -14.5c-6 0 -9 3 -9 9c0 4.66699 2.33301 7.66699 7 9zM176 -279c11.333 2 23 5.83301 35 11.5s23.667 12.5 35 20.5s21.833 16.5 31.5 25.5
s17.5 18.167 23.5 27.5c-13.333 8.66699 -20 19.667 -20 33c0 9.33301 3.33301 17.833 10 25.5s15.667 11.5 27 11.5s20.166 -3.5 26.499 -10.5s9.5 -16.167 9.5 -27.5c0 -13.333 -6.33301 -27.833 -19 -43.5s-28.167 -30.167 -46.5 -43.5s-37.666 -24.5 -57.999 -33.5
s-37.833 -13.833 -52.5 -14.5c-6 0 -9 3 -9 9c0 4.66699 2.33301 7.66699 7 9z" />
    <glyph glyph-name="ellipsis" unicode="&#x2026;" horiz-adv-x="2499" 
d="M1049 -98c0 10.667 3.33301 19.667 10 27s15.667 11 27 11c10.667 0 19.667 -3.66699 27 -11s11 -16.333 11 -27s-3.66699 -19.5 -11 -26.5s-16.333 -10.5 -27 -10.5c-11.333 0 -20.333 3.5 -27 10.5s-10 15.833 -10 26.5zM1166 -98c0 10.667 3.5 19.667 10.5 27
s15.833 11 26.5 11s19.667 -3.66699 27 -11s11 -16.333 11 -27s-3.66699 -19.5 -11 -26.5s-16.333 -10.5 -27 -10.5s-19.5 3.5 -26.5 10.5s-10.5 15.833 -10.5 26.5zM1287 -98c0 10.667 3.5 19.667 10.5 27s16.167 11 27.5 11c10 0 18.667 -3.66699 26 -11
s11 -16.333 11 -27s-3.66699 -19.5 -11 -26.5s-16 -10.5 -26 -10.5c-11.333 0 -20.5 3.5 -27.5 10.5s-10.5 15.833 -10.5 26.5z" />
    <glyph glyph-name="fraction" unicode="&#x2044;" horiz-adv-x="507" 
d="M422 900c2 3.33301 4.99902 6.5 8.99902 9.5s7.66699 4.5 11 4.5c6 0 10.833 -2.16699 14.5 -6.5s5.5 -9.16602 5.5 -14.499c0 -2 -0.666992 -4.33301 -2 -7h1l-470 -1359c-2 -3.33301 -4.83301 -6.5 -8.5 -9.5s-7.16699 -4.5 -10.5 -4.5
c-5.33301 0 -10.166 2.16699 -14.499 6.5s-6.5 9.16602 -6.5 14.499c0 2 0.666992 4.33301 2 7h-1z" />
    <glyph glyph-name="_0127" unicode="&#xe000;" horiz-adv-x="0" 
d="M387 715c2 0 4.16992 -0.99707 6.50293 -2.99707s3.5 -4 3.5 -6c0 -4 -1.66699 -6.66699 -5 -8c-65.333 -50.667 -129.5 -92.167 -192.5 -124.5s-124.667 -58.5 -185 -78.5s-118.833 -35 -175.5 -45s-111.334 -18 -164.001 -24c-2 -41.333 -6.5 -81.666 -13.5 -120.999
s-17.167 -77.333 -30.5 -114s-30.666 -72 -51.999 -106s-47.333 -66 -78 -96c-34 -32 -73 -59.333 -117 -82s-89 -34 -135 -34c-27.333 0 -53.666 5.16699 -78.999 15.5s-47.666 24.333 -66.999 42s-34.666 38.667 -45.999 63s-17 50.5 -17 78.5
c0 44.667 9.5 84.167 28.5 118.5s44.167 64.333 75.5 90s67.166 47.5 107.499 65.5s82 33.167 125 45.5s85.667 22.166 128 29.499s80.833 13 115.5 17l16 2c0.666992 14 1.16699 28.167 1.5 42.5s0.5 28.833 0.5 43.5c0 32.667 -0.666992 65.167 -2 97.5l-4 96.5
c-1.33301 24 -2.33301 46.333 -3 67s-1.33398 43 -2.00098 67c-32 -24 -69.833 -48.167 -113.5 -72.5s-90 -46.333 -139 -66s-99.5 -35.667 -151.5 -48s-102 -18.5 -150 -18.5c-35.333 0 -68.333 3.66699 -99 11s-59.667 19.666 -87 36.999
c-18 -33.333 -44.167 -58.833 -78.5 -76.5s-70.166 -26.5 -107.499 -26.5c-4 0 -9.5 0.166992 -16.5 0.5s-14.167 1.16602 -21.5 2.49902s-13.666 3.16602 -18.999 5.49902s-8 5.16602 -8 8.49902c0 2 0.333008 3.33301 1 4c2 2 4.33301 3 7 3
c5.33301 0 10.166 -0.333008 14.499 -1s8.83301 -1.66699 13.5 -3c8.66699 -2 18 -3 28 -3c36 0 69.833 8.16699 101.5 24.5s56.167 40.166 73.5 71.499c-11.333 8.66699 -21.5 18.334 -30.5 29.001s-16.667 21.5 -23 32.5s-11.333 21.833 -15 32.5s-5.5 20.334 -5.5 29.001
c0 18.667 4.66699 33.167 14 43.5s20.666 15.5 33.999 15.5c6.66699 0 13.667 -2 21 -6s14.166 -10.333 20.499 -19s11.5 -19.667 15.5 -33s6 -29 6 -47c0 -25.333 -5 -49.333 -15 -72c25.333 -17.333 52.666 -29.333 81.999 -36s61 -10 95 -10c48 0 98 6.5 150 19.5
s102.667 29.5 152 49.5s95.666 42.333 138.999 67s80.666 49 111.999 73c0 49.333 1.66699 97.333 5 144s11.333 90.334 24 131.001c4 12.667 10.333 27 19 43s18.667 31 30 45s23.833 25.833 37.5 35.5s27.5 14.5 41.5 14.5c7.33301 0 15.333 -1.83301 24 -5.5
s16.5 -9.33398 23.5 -17.001s12.833 -17.667 17.5 -30s7 -27.166 7 -44.499c0 -26 -4.83301 -52.5 -14.5 -79.5s-23 -53.5 -40 -79.5s-37 -51.333 -60 -76s-48.167 -48.334 -75.5 -71.001c0 -30 0.666992 -59.5 2 -88.5l4 -89.5l4 -93.5c1.33301 -31 2 -62.167 2 -93.5
c0 -14 -0.166992 -26.667 -0.5 -38s-0.833008 -23.666 -1.5 -36.999c52.667 6 107 13.667 163 23s113.5 23.666 172.5 42.999s119.5 45 181.5 77s125 73.667 189 125zM-303.997 1144c-11.333 -36 -19 -73.998 -23 -113.998s-6.33301 -81 -7 -123
c52 44 93.5 90.167 124.5 138.5s46.5 97.166 46.5 146.499c0 23.333 -4.83301 41.5 -14.5 54.5s-20.167 19.5 -31.5 19.5c-10.667 0 -21.167 -5 -31.5 -15s-19.833 -21.667 -28.5 -35s-16.167 -26.833 -22.5 -40.5s-10.5 -23.834 -12.5 -30.501v-1zM-533.997 2.00488
c29.333 28.667 54.1709 59.499 74.5039 92.499s37.166 67.167 50.499 102.5s23.5 72 30.5 110s11.833 76.667 14.5 116c-4 -1.33301 -8.33301 -2 -13 -2c-34 -4.66699 -71.5 -10.5 -112.5 -17.5s-82.5 -16.5 -124.5 -28.5s-82.833 -26.5 -122.5 -43.5
s-74.834 -37.833 -105.501 -62.5s-55.334 -53 -74.001 -85s-28 -69 -28 -111c0 -25.333 5.16699 -48.833 15.5 -70.5s24.166 -40.667 41.499 -57s37.333 -29.166 60 -38.499s46.334 -14 71.001 -14c21.333 0 42.166 3.16699 62.499 9.5s40 14.5 59 24.5s37 21.5 54 34.5
s32.5 26.5 46.5 40.5zM-1157.99 766.004c12.667 -17.333 25.998 -31.334 39.998 -42.001c4.66699 9.33301 7.66699 18.833 9 28.5s2 19.5 2 29.5c0 32 -5 55.167 -15 69.5s-20 21.5 -30 21.5c-7.33301 0 -14.166 -3.83301 -20.499 -11.5s-9.5 -18.167 -9.5 -31.5
c0 -9.33301 1.83301 -19.166 5.5 -29.499s9.83398 -21.833 18.501 -34.5z" />
    <glyph glyph-name="a.005" unicode="&#xe069;" horiz-adv-x="448" 
d="M-2185 -325c-2 -2 -4.32715 -2.99707 -6.99414 -2.99707c-6 0 -9 3.33301 -9 10c0 2.66699 0.666992 4.66699 2 6v-1c51.333 67.333 105 124.666 161 171.999s113.667 87.166 173 119.499s120.166 57.833 182.499 76.5s125.833 33 190.5 43s130 16.333 196 19
s132.667 4 200 4h113c18.667 0 37.5 -0.166992 56.5 -0.5s38.167 -0.5 57.5 -0.5c72.667 0 146 2 220 6s147.167 12.5 219.5 25.5s143.833 31.667 214.5 56s139 56.833 205 97.5c14.667 22.667 33.667 41.834 57 57.501s47.333 23.5 72 23.5s43.667 -5 57 -15
s23.333 -24.333 30 -43l7.5 14.5l7.5 14.5c1.33301 4.66699 3.66602 7 6.99902 7h22c2 0 4 -1.16699 6 -3.5s3 -5.16602 3 -8.49902l-25 -50l-45.5 -94c-15.667 -32.667 -30.5 -67.334 -44.5 -104.001c-0.666992 -1.33301 -1.66699 -3.83301 -3 -7.5l-4 -10.5l-14.5 -37
l-17 -46c-5.66699 -16 -10.334 -31.833 -14.001 -47.5s-5.5 -29.5 -5.5 -41.5c0 -19.333 6.66699 -29 20 -29c8.66699 0 18 3 28 9s19.667 13 29 21s17.833 16 25.5 24s13.167 14 16.5 18c28 32 56.833 69.833 86.5 113.5l88.5 132.5v-1l13 20l55 85h1
c0.666992 0 1.16699 0.166992 1.5 0.5s1.16602 0.5 2.49902 0.5c2 0 4 -0.666992 6 -2s3 -3.33301 3 -6c0 -3.33301 -0.666992 -5.66602 -2 -6.99902l-52 -81l-80.5 -123.5c-27.667 -41 -55 -78 -82 -111s-52.833 -59.833 -77.5 -80.5s-47.334 -31 -68.001 -31
c-16.667 0 -28.5 5.33301 -35.5 16s-10.5 25 -10.5 43c0 16 2.16699 33.667 6.5 53s10.166 40 17.499 62s15.833 44.667 25.5 68s19.834 46.666 30.501 69.999c-40 -47.333 -79.333 -71 -118 -71c-19.333 0 -34.833 6.66699 -46.5 20s-17.5 32.333 -17.5 57
c0 30.667 7 60 21 88c-65.333 -40 -132.833 -71.333 -202.5 -94s-140.667 -39.667 -213 -51s-145.833 -18.5 -220.5 -21.5s-149.667 -4.5 -225 -4.5h-179c-69.333 0 -138 -1.33301 -206 -4s-135.167 -8.5 -201.5 -17.5s-131.333 -22.667 -195 -41
s-125.334 -43.333 -185.001 -75s-117.167 -70.834 -172.5 -117.501s-108 -103.334 -158 -170.001v-1zM110.006 178.003c6.66699 7.33301 13.6689 16.168 21.002 26.501s14.666 21.5 21.999 33.5s14.5 24.333 21.5 37s13.5 25 19.5 37
c-4.66699 15.333 -12.167 28.5 -22.5 39.5s-23.833 16.5 -40.5 16.5c-20 0 -38.833 -6.66699 -56.5 -20s-32.834 -29.5 -45.501 -48.5s-22.667 -39.167 -30 -60.5s-11 -40 -11 -56c0 -16.667 3.33301 -30.334 10 -41.001s16 -16 28 -16c11.333 0 23.833 4 37.5 12
s29.167 21.333 46.5 40z" />
    <glyph glyph-name="b.005" unicode="&#xe06a;" horiz-adv-x="437" 
d="M-55 63c-1.33301 -3.33301 -2.99609 -7.99512 -4.99609 -13.9951s-4 -12.333 -6 -19l-5.5 -18.5c-1.66699 -5.66699 -2.83398 -9.83398 -3.50098 -12.501c-2 -4.66699 -5.66699 -7.83398 -11 -9.50098s-10.5 -2.33398 -15.5 -2.00098s-9.16699 1.66602 -12.5 3.99902
s-4.33301 5.5 -3 9.5l4 11c0.666992 0.666992 1 1.33398 1 2.00098l6 15c0 1.33301 0.666992 3.33301 2 6l6 17l28 79l27.5 79l34.5 93l33 85c-78 -9.33301 -156.667 -14.666 -236 -15.999s-158.666 -2 -237.999 -2c-74 0 -147.667 -0.666992 -221 -2
s-145.833 -6 -217.5 -14s-142 -20.5 -211 -37.5s-136.167 -41.333 -201.5 -73s-128.333 -71.834 -189 -120.501s-118.667 -108.667 -174 -180h-4c-5.33301 0 -8 3.33301 -8 10c0 3.33301 0.333008 5.66602 1 6.99902v-1c50.667 66 103.667 122.5 159 169.5
s112.166 86.5 170.499 118.5s118 57.333 179 76s123.167 33 186.5 43s127.5 16.5 192.5 19.5s130.5 4.5 196.5 4.5c21.333 0 43 -0.166992 65 -0.5s43.667 -0.5 65 -0.5c22 -0.666992 43.833 -1 65.5 -1h64.5c60.667 0 121.167 1.16699 181.5 3.5s120.5 7.83301 180.5 16.5
c22 55.333 45.833 112.333 71.5 171s53.167 115.667 82.5 171s60 107.666 92 156.999s65.167 92.5 99.5 129.5s69.666 66.333 105.999 88s73.166 32.5 110.499 32.5c38 0 69.833 -13 95.5 -39s38.5 -65.333 38.5 -118c0 -42 -9 -84.5 -27 -127.5s-42.833 -85 -74.5 -126
s-68.667 -80.333 -111 -118s-87.833 -72 -136.5 -103s-99.334 -57.667 -152.001 -80s-104.667 -38.833 -156 -49.5c-19.333 -46 -37.166 -91.667 -53.499 -137l-47.5 -129l-3 -7c19.333 20 40.833 35.333 64.5 46s43.5 16 59.5 16c22.667 0 40.167 -6.83301 52.5 -20.5
s18.5 -31.834 18.5 -54.501c0 -28.667 -11.333 -59.334 -34 -92.001c26.667 6.66699 51 15.667 73 27s44.5 27.666 67.5 48.999s47.833 48.833 74.5 82.5s58 76.5 94 128.5c1.33301 1.33301 2.66602 2 3.99902 2c2.66699 0 5.16699 -0.666992 7.5 -2
s2.83301 -4.66602 1.5 -9.99902c-38.667 -56.667 -72.167 -103 -100.5 -139s-54.833 -64.833 -79.5 -86.5s-49.334 -38 -74.001 -49s-53 -19.5 -85 -25.5c-20 -23.333 -44 -43 -72 -59s-56 -24 -84 -24c-9.33301 0 -18.833 2.16699 -28.5 6.5s-14.5 12.833 -14.5 25.5
c0 10 5.16699 18.5 15.5 25.5s23 12.833 38 17.5s30.833 8.33398 47.5 11.001s31 4.66699 43 6l16 2c15.333 16 27.833 34.333 37.5 55s14.5 38.334 14.5 53.001c0 14 -3.5 25.833 -10.5 35.5s-17.833 14.5 -32.5 14.5c-9.33301 0 -20.166 -2.5 -32.499 -7.5
s-24.666 -12 -36.999 -21s-24.333 -19.667 -36 -32s-21.834 -25.833 -30.501 -40.5zM524.004 1115c-44.667 -24 -87.502 -60.168 -128.502 -108.501s-80.167 -104 -117.5 -167s-72.666 -131.167 -105.999 -204.5s-64.666 -146.666 -93.999 -219.999
c49.333 10.667 99.333 27 150 49s99.334 48 146.001 78s90.5 63 131.5 99s76.667 73.667 107 113s54.166 79.5 71.499 120.5s26 81.5 26 121.5c0 46.667 -10.833 81.5 -32.5 104.5s-47.5 34.5 -77.5 34.5c-24 0 -49.333 -6.66699 -76 -20zM-69.998 -57.9961
c0 -3.33301 1.83203 -5.99902 5.49902 -7.99902s7.16699 -3.33301 10.5 -4h3c7.33301 0 15.666 2 24.999 6s18.5 8.66699 27.5 14s17.833 11.166 26.5 17.499s16.334 12.166 23.001 17.499c-11.333 -1.33301 -24 -3.16602 -38 -5.49902s-27.167 -5.16602 -39.5 -8.49902
s-22.666 -7.33301 -30.999 -12s-12.5 -10.334 -12.5 -17.001z" />
    <glyph glyph-name="c.005" unicode="&#xe06b;" horiz-adv-x="271" 
d="M-2186 -325c-2 -2 -4.33301 -3.00195 -7 -3.00195c-5.33301 0 -8 3.33301 -8 10c0 2.66699 0.666992 4.66699 2 6v-1c51.333 67.333 105 124.666 161 171.999s113.667 87.166 173 119.499s120.166 57.833 182.499 76.5s125.666 33 189.999 43s129.666 16.333 195.999 19
s133.166 4 200.499 4h112c19.333 0 38.5 -0.166992 57.5 -0.5s38.167 -0.5 57.5 -0.5c72.667 0 145.834 2 219.501 6s146.834 12.5 219.501 25.5s144.334 31.667 215.001 56s139 56.833 205 97.5c12.667 14.667 27 28 43 40s31.667 18 47 18c13.333 0 23.5 -5 30.5 -15
s10.5 -22.333 10.5 -37c0 -13.333 -2.66699 -28.166 -8 -44.499s-14.333 -33.166 -27 -50.499c-0.666992 -0.666992 -2.66699 -1 -6 -1c-6 0 -9 3.33301 -9 10c0 3.33301 0.666992 5.66602 2 6.99902v-1c10 13.333 17.5 27 22.5 41s7.5 26.667 7.5 38
c0 9.33301 -1.5 16.833 -4.5 22.5s-7.16699 8.5 -12.5 8.5c-16 0 -32.667 -9.5 -50 -28.5s-33.333 -41.333 -48 -67s-26.834 -51.5 -36.501 -77.5s-14.5 -45.667 -14.5 -59c0 -14.667 4.16699 -26 12.5 -34s19.833 -12 34.5 -12c15.333 0 33.833 4.66699 55.5 14
s45.167 23.833 70.5 43.5s51.666 44.667 78.999 75s54.666 66.5 81.999 108.5c2.66699 2.66699 5 4 7 4s4 -1 6 -3s3 -5 3 -9c-27.333 -44 -55 -82 -83 -114s-55.333 -58.167 -82 -78.5s-52.167 -35.5 -76.5 -45.5s-45.833 -15 -64.5 -15c-23.333 0 -41.5 7 -54.5 21
s-19.5 31 -19.5 51c0 12 1.83301 24.667 5.5 38s8.33398 26.833 14.001 40.5s11.834 26.834 18.501 39.501s13.334 24 20.001 34c-65.333 -40 -132.166 -71.167 -200.499 -93.5s-138 -39 -209 -50s-143.167 -17.667 -216.5 -20s-147.333 -3.5 -222 -3.5h-95
c-15.333 0 -31 0.166992 -47 0.5s-32 0.5 -48 0.5c-68.667 0 -137 -1.33301 -205 -4s-134.833 -8.66699 -200.5 -18s-130.167 -23.166 -193.5 -41.499s-124.833 -43.166 -184.5 -74.499s-117.167 -70.5 -172.5 -117.5s-107.666 -103.5 -157 -169.5v-1z" />
    <glyph glyph-name="d.005" unicode="&#xe06c;" horiz-adv-x="460" 
d="M235 390c-16 -1.33301 -31.8311 -2.16699 -47.498 -2.5s-31.5 -0.833008 -47.5 -1.5c15.333 -1.33301 28.666 -5.83301 39.999 -13.5s20.666 -20.167 27.999 -37.5c3.33301 8 7.33301 16.333 12 25s9.66699 18.667 15 30zM466.002 306.999
c2 0 4.1748 -0.665039 6.50781 -1.99805s2.83301 -4.66602 1.5 -9.99902c-6 -10 -12.833 -20.667 -20.5 -32l-22.5 -34l-52 -79.5l-55.5 -82c-19 -27 -38 -52.667 -57 -77s-37.667 -45.666 -56 -63.999s-35.833 -33 -52.5 -44s-32 -16.5 -46 -16.5
c-15.333 0 -26 4.83301 -32 14.5s-9 23.167 -9 40.5s2.5 37.666 7.5 60.999s11.333 47.166 19 71.499s15.834 48.333 24.501 72l24 63.5c-22 -28 -43.833 -48.5 -65.5 -61.5s-40.834 -19.5 -57.501 -19.5c-20.667 0 -37.167 7.33301 -49.5 22s-18.5 34.334 -18.5 59.001
c0.666992 14.667 3.16699 30.5 7.5 47.5s12.166 35.167 23.499 54.5v-1l11 18c14 22.667 31.833 40.834 53.5 54.501s43.167 21.5 64.5 23.5c-10.667 -0.666992 -21.334 -0.833984 -32.001 -0.500977s-21.334 0.5 -32.001 0.5c-30 0 -59.667 0.166992 -89 0.5
s-59 0.833008 -89 1.5s-59.833 1.16699 -89.5 1.5s-59.5 0.5 -89.5 0.5c-70 0 -139.833 -1.66699 -209.5 -5s-138.334 -10.5 -206.001 -21.5s-134.167 -26.5 -199.5 -46.5s-128.833 -46.5 -190.5 -79.5s-121.167 -73.833 -178.5 -122.5s-112 -106.667 -164 -174h-4
c-6 0 -9 3.33301 -9 10c0 3.33301 0.666992 5.66602 2 6.99902v-1c78 100.667 160.5 181 247.5 241s177.333 106 271 138s189.667 53 288 63s197.5 15 297.5 15c38 0 76.167 -0.5 114.5 -1.5s76.5 -2.16699 114.5 -3.5s75.833 -2.33301 113.5 -3s75.5 -1 113.5 -1
c25.333 0 50.333 0.333008 75 1s49.667 1.66699 75 3l73.5 144.5c27.667 53 57.667 106.5 90 160.5s66.166 106.667 101.499 158s71.333 97 108 137s73.167 72 109.5 96s71.833 36 106.5 36c40 0 71.667 -13.833 95 -41.5s35 -64.5 35 -110.5
c0 -24 -4.16699 -50.333 -12.5 -79s-21 -58.5 -38 -89.5s-38.333 -62.833 -64 -95.5s-55.834 -64.667 -90.501 -96c-33.333 -29.333 -69.333 -56.833 -108 -82.5s-78.834 -48.834 -120.501 -69.501s-83.834 -38.334 -126.501 -53.001s-84.667 -25.334 -126 -32.001
c-25.333 -51.333 -48.833 -101.166 -70.5 -149.499s-40.5 -93.5 -56.5 -135.5s-28.5 -79.5 -37.5 -112.5s-13.5 -59.5 -13.5 -79.5s5.33301 -30 16 -30c11.333 0 25.666 6.33301 42.999 19s37.833 32.5 61.5 59.5s50.834 61.833 81.501 104.5s65 94 103 154l27.5 41.5
l27.5 40.5zM842.01 1122c-27.333 0 -56 -9.83105 -86 -29.498s-61 -46.5 -93 -80.5s-64.5 -73.833 -97.5 -119.5s-65.5 -94.834 -97.5 -147.501s-63.333 -107.334 -94 -164.001l-87 -168c45.333 8 93.333 21.667 144 41s100.5 43 149.5 71s95.667 59.5 140 94.5
s83.333 72.333 117 112s60.5 81 80.5 124s30 86.5 30 130.5c0 18 -2.33301 35.167 -7 51.5s-11.5 30.833 -20.5 43.5s-20 22.667 -33 30s-28.167 11 -45.5 11zM36.0098 128.003c18 1.33301 36.001 10.332 54.001 26.999s34.667 35.5 50 56.5s28.333 41.167 39 60.5
s17.334 32.333 20.001 39c-0.666992 6.66699 -3.16699 13.334 -7.5 20.001s-9.5 12.667 -15.5 18s-12.333 9.66602 -19 12.999s-12.334 5 -17.001 5c-22 0 -42 -6.66699 -60 -20s-33.5 -29.666 -46.5 -48.999s-23 -39.833 -30 -61.5s-10.5 -40.5 -10.5 -56.5
c0 -15.333 3.16699 -27.833 9.5 -37.5s16.166 -14.5 29.499 -14.5h4z" />
    <glyph glyph-name="e.005" unicode="&#xe06d;" horiz-adv-x="275" 
d="M-2186 -325c-2 -2 -4.33203 -2.99219 -6.99902 -2.99219c-5.33301 0 -8 3.33301 -8 10c0 2.66699 0.666992 4.66699 2 6v-1c51.333 67.333 105 124.666 161 171.999s113.667 87.166 173 119.499s120.166 57.833 182.499 76.5s125.666 33 189.999 43
s129.666 16.333 195.999 19s133.166 4 200.499 4h112c19.333 0 38.5 -0.166992 57.5 -0.5s38.167 -0.5 57.5 -0.5c72.667 0 145.834 2 219.501 6s146.834 12.5 219.501 25.5s144.334 31.667 215.001 56s139 56.833 205 97.5c18 23.333 34.333 39.666 49 48.999s27 14 37 14
c11.333 0 19.833 -3.5 25.5 -10.5s8.5 -16.167 8.5 -27.5c0 -9.33301 -2.33301 -19.5 -7 -30.5s-12 -21.333 -22 -31s-23 -17.834 -39 -24.501s-35 -10.334 -57 -11.001c-14 -24 -24.167 -45.333 -30.5 -64s-9.5 -35 -9.5 -49c0 -17.333 4.33301 -30.333 13 -39
s20.667 -13 36 -13c16 0 34.5 4.66699 55.5 14s43.833 23.666 68.5 42.999s50.334 44 77.001 74s53.334 66 80.001 108h1c0.666992 0 1.16699 0.166992 1.5 0.5s1.16602 0.5 2.49902 0.5c5.33301 0 8 -4 8 -12c-27.333 -44 -55 -82 -83 -114s-55.167 -58.167 -81.5 -78.5
s-51.666 -35.5 -75.999 -45.5s-45.833 -15 -64.5 -15c-22.667 0 -40.667 6.5 -54 19.5s-20 32.167 -20 57.5c0 20 4.5 41.5 13.5 64.5s23.167 50.5 42.5 82.5c-64.667 -38.667 -131.334 -69 -200.001 -91s-138.834 -38.667 -210.501 -50s-144.167 -18.5 -217.5 -21.5
s-147.333 -4.5 -222 -4.5h-92c-15.333 0 -30.833 0.166992 -46.5 0.5s-31.5 0.5 -47.5 0.5c-68.667 0 -137 -1.33301 -205 -4s-135 -8.5 -201 -17.5s-130.667 -22.667 -194 -41s-125 -43.333 -185 -75s-117.667 -70.834 -173 -117.501s-107.666 -103.334 -157 -170.001v-1z
M67.001 337.008c-14 -9.33301 -27.167 -22.167 -39.5 -38.5s-23.166 -32.166 -32.499 -47.499c15.333 1.33301 29 4.66602 41 9.99902s22.167 11.833 30.5 19.5s14.666 16 18.999 25s6.5 17.5 6.5 25.5c0 8.66699 -2.66699 13 -8 13c-3.33301 0 -9 -2.33301 -17 -7z" />
    <glyph glyph-name="f.005" unicode="&#xe06e;" horiz-adv-x="288" 
d="M-2131 -256c-2 -2 -4.33398 -2.99707 -7.00098 -2.99707c-6 0 -9 3.33301 -9 10c0 2.66699 0.666992 4.66699 2 6v-1c52 67.333 106 124.666 162 171.999s113.667 87.166 173 119.499s120 57.833 182 76.5s125.333 33 190 43s130 16.333 196 19s132.667 4 200 4
c19.333 0 38.333 -0.166992 57 -0.5s37.667 -0.5 57 -0.5h114c71.333 0 142.5 1.66699 213.5 5s141.333 10.666 211 21.999s138.5 28 206.5 50s134.333 52 199 90l-1 -2l63 108c20 33.333 39.333 62.333 58 87s36.5 43.834 53.5 57.501s33.5 20.5 49.5 20.5
c13.333 0 24 -4.66699 32 -14s12 -21 12 -35c0 -16 -6.16699 -33.833 -18.5 -53.5s-28.833 -39.667 -49.5 -60s-44.667 -40.333 -72 -60s-56 -36.834 -86 -51.501c-20 -38 -39.5 -77.667 -58.5 -119l-57.5 -126c4 -18 11 -30.667 21 -38s21.667 -11 35 -11
c17.333 0 37.333 5.16699 60 15.5s46.667 25.666 72 45.999s51.5 46 78.5 77s53.833 67.5 80.5 109.5h1c0.666992 0 1.16699 0.166992 1.5 0.5s1.16602 0.5 2.49902 0.5c5.33301 0 8 -4 8 -12c-26.667 -43.333 -53.834 -81 -81.501 -113s-54.834 -58.5 -81.501 -79.5
s-52 -36.5 -76 -46.5s-46 -15 -66 -15c-8 0 -16.167 1 -24.5 3s-15.833 5.66699 -22.5 11c2.66699 -19.333 4.5 -38.166 5.5 -56.499s1.5 -36.166 1.5 -53.499c0 -56 -5 -106.333 -15 -151s-22.333 -82.5 -37 -113.5s-30.334 -54.833 -47.001 -71.5s-31.667 -25 -45 -25
s-24.166 6.66699 -32.499 20s-12.5 34 -12.5 62c0 23.333 4.5 55.333 13.5 96s22.667 88.334 41 143.001s41.5 115.5 69.5 182.5s61 138.5 99 214.5l12 24c-63.333 -36 -128.666 -64.5 -195.999 -85.5s-136 -36.833 -206 -47.5s-141.167 -17.5 -213.5 -20.5
s-144.833 -4.5 -217.5 -4.5c-15.333 0 -30.666 0.166992 -45.999 0.5s-30.666 0.5 -45.999 0.5h-92c-68.667 0 -137.167 -1.33301 -205.5 -4s-135.5 -8.5 -201.5 -17.5s-130.667 -22.667 -194 -41s-125 -43.333 -185 -75s-117.667 -70.834 -173 -117.501
s-107.666 -103.334 -156.999 -170.001v-1zM-129.001 -343.997c19.333 28 35.333 66.4971 48 115.497s19 106.833 19 173.5c0 19.333 -0.666992 40.5 -2 63.5s-3.66602 46.167 -6.99902 69.5l-51 -126c-5.33301 -13.333 -12.333 -32.333 -21 -57s-17 -51.167 -25 -79.5
s-14.833 -56.666 -20.5 -84.999s-8.5 -53.166 -8.5 -74.499c0 -13.333 1.33301 -24.666 4 -33.999s7.33398 -14 14.001 -14c5.33301 0 12.166 3.5 20.499 10.5s18.166 19.5 29.499 37.5zM70.999 380c29.333 16 56 33 80 51s44.5 36 61.5 54s30.167 35 39.5 51s14 30 14 42
c0 16.667 -6.33301 25 -19 25c-9.33301 0 -20 -5 -32 -15s-24.833 -23.5 -38.5 -40.5s-27.667 -36.5 -42 -58.5s-28.5 -45.333 -42.5 -70z" />
    <glyph glyph-name="g.005" unicode="&#xe06f;" horiz-adv-x="472" 
d="M-2185 -325c-2 -2 -4.33301 -3 -7 -3c-6 0 -9 3.33301 -9 10c0 2.66699 0.666992 4.66699 2 6v-1c51.333 67.333 105 124.666 161 171.999s113.667 87.166 173 119.499s120.166 57.833 182.499 76.5s125.833 33 190.5 43s130 16.333 196 19s132.667 4 200 4h113
c18.667 0 37.5 -0.166992 56.5 -0.5s38.167 -0.5 57.5 -0.5c74 0 147.667 1.83301 221 5.5s146 11.667 218 24s143 30.666 213 54.999s138.667 57.5 206 99.5c7.33301 20 17 38.333 29 55s25.333 30.834 40 42.501s29.5 20.834 44.5 27.501s29.167 10 42.5 10
c17.333 0 33.166 -4.16699 47.499 -12.5s26.166 -23.166 35.499 -44.499l4 9c2.66699 7.33301 5.66699 13.5 9 18.5s9 7.5 17 7.5c5.33301 0 10 -1 14 -3s6 -5.66699 6 -11c-3.33301 -8.66699 -7.83301 -19.5 -13.5 -32.5l-16.5 -38.5l-7 -15l-27 -60l-58.5 -127.5
l-66.5 -140.5c36 18.667 72.833 39.5 110.5 62.5s73.5 47.5 107.5 73.5s65.333 53.833 94 83.5s52.334 60.5 71.001 92.5c1.33301 4.66699 4 7 8 7c2 0 4 -1 6 -3s3 -4.66699 3 -8c-16.667 -28.667 -36.334 -55.834 -59.001 -81.501s-47 -49.667 -73 -72
s-52.5 -42.666 -79.5 -60.999s-52.5 -34.666 -76.5 -48.999s-45.667 -26.666 -65 -36.999l-45 -23.5l-16 -8c-28 -56.667 -57.667 -113.334 -89 -170.001s-63.666 -111 -96.999 -163s-67.666 -100.5 -102.999 -145.5s-71.166 -84.167 -107.499 -117.5s-73 -59.5 -110 -78.5
s-73.833 -28.5 -110.5 -28.5c-26 0 -48.5 4.33301 -67.5 13s-34.667 20.5 -47 35.5s-21.5 32.167 -27.5 51.5s-9 39.666 -9 60.999c0 37.333 7.33301 72 22 104s34.5 61.5 59.5 88.5s53.833 52 86.5 75s66.834 44.167 102.501 63.5s71.667 37.166 108 53.499l103.5 45.5
l37 16l104 44.5c35.333 15.667 70 31.834 104 48.501l40.5 81.5l34 71.5l30 66.5l29.5 66.5c-24 -33.333 -46.833 -56.666 -68.5 -69.999s-41.167 -20 -58.5 -20c-19.333 0 -34.833 7.16699 -46.5 21.5s-17.5 34.166 -17.5 59.499c0 12.667 1.33301 25.334 4 38.001
c-65.333 -41.333 -133 -73.666 -203 -96.999s-141.5 -40.833 -214.5 -52.5s-147.167 -19 -222.5 -22s-151 -4.5 -227 -4.5h-183c-69.333 0 -138 -1.33301 -206 -4s-135 -8.5 -201 -17.5s-130.833 -22.667 -194.5 -41s-125.334 -43.333 -185.001 -75
s-117.167 -70.834 -172.5 -117.501s-107.666 -103.334 -157 -170.001v-1zM-215 -170l-31 -13.002l-90.5 -42.5c-32.333 -15.667 -64.333 -32.667 -96 -51s-62.167 -38.333 -91.5 -60s-55.333 -45 -78 -70s-40.667 -51.667 -54 -80s-20 -58.5 -20 -90.5
c0 -19.333 2.66699 -37.833 8 -55.5s13.333 -33 24 -46s24.167 -23.333 40.5 -31s35.166 -11.5 56.499 -11.5c37.333 0 75.333 12.5 114 37.5s76.834 57.5 114.501 97.5s74 84.833 109 134.5s67.5 98.834 97.5 147.501s56.5 94.334 79.5 137.001l54.5 104zM64 178.998
c8 2 16.3311 6.1709 24.998 12.5039s17.167 13.166 25.5 20.499s15.833 14.833 22.5 22.5s12 14.167 16 19.5c2.66699 3.33301 7.33398 9.66602 14.001 18.999s13.5 19.666 20.5 30.999s13.333 22.5 19 33.5s8.5 19.833 8.5 26.5c0 0.666992 -0.166992 1 -0.5 1
s-0.5 0.666992 -0.5 2c-8 17.333 -17 30.166 -27 38.499s-20.333 12.5 -31 12.5c-21.333 0 -40.666 -6.83301 -57.999 -20.5s-32.333 -30.167 -45 -49.5s-22.5 -40 -29.5 -62s-10.5 -41.333 -10.5 -58c0 -15.333 2.83301 -27.833 8.5 -37.5s14.5 -14.5 26.5 -14.5
c4 0 9 1 15 3h1z" />
    <glyph glyph-name="h.005" unicode="&#xe070;" horiz-adv-x="467" 
d="M532 644c-31.333 -28 -65.832 -55.1631 -103.499 -81.4961s-76.834 -50.5 -117.501 -72.5s-81.5 -41.333 -122.5 -58s-80.833 -29 -119.5 -37l-27.5 -70.5l-24.5 -63.5l-23 -61l-23 -63c14 16 28.333 31.167 43 45.5s29 26.833 43 37.5s27.667 19.167 41 25.5
s25.666 9.5 36.999 9.5c13.333 0 24 -4.66699 32 -14s12 -25 12 -47c0 -12.667 -1.66699 -27.834 -5 -45.501s-8.66602 -37.834 -15.999 -60.501v1l-7 -23l-11.5 -35.5c-4.33301 -13.667 -8.5 -27.5 -12.5 -41.5s-7.33301 -27.5 -10 -40.5s-4 -24.5 -4 -34.5
c0 -17.333 4.66699 -26 14 -26c10.667 0 23.667 5.66699 39 17s31.666 26.5 48.999 45.5s35.5 40.833 54.5 65.5l56.5 77l54.5 80l49.5 74c7.33301 10.667 14 20.834 20 30.501l17 26.5c2.66699 2.66699 5 4 7 4s4.33301 -1.16699 7 -3.5s3.33398 -5.16602 2.00098 -8.49902
l-44 -67l-78.5 -121c-28.333 -42.667 -56.666 -81.834 -84.999 -117.501s-56 -65.334 -83 -89.001s-51.167 -35.5 -72.5 -35.5c-14.667 0 -25 4.5 -31 13.5s-9 21.5 -9 37.5c0 20 3.5 43.5 10.5 70.5s14.5 54.5 22.5 82.5c8 26.667 15.167 52.167 21.5 76.5
s9.5 44.166 9.5 59.499c0 20 -6.66699 30 -20 30c-11.333 0 -25.333 -5.66699 -42 -17s-33.667 -25.166 -51 -41.499s-33.666 -34 -48.999 -53s-27.333 -36.167 -36 -51.5c-2 -2 -6.33301 -3 -13 -3c-5.33301 0 -10 1.5 -14 4.5s-6 7.16699 -6 12.5l79 216
c6 15.333 11.167 29.5 15.5 42.5s9.83301 27.167 16.5 42.5c-78 -9.33301 -156.5 -14.666 -235.5 -15.999s-158.167 -2 -237.5 -2c-74 0 -147.667 -0.666992 -221 -2s-145.833 -6 -217.5 -14s-142 -20.5 -211 -37.5s-136.167 -41.333 -201.5 -73
s-128.333 -71.834 -189 -120.501s-118.667 -108.667 -174 -180h-4c-5.33301 0 -8 3.33301 -8 10c0 3.33301 0.333008 5.66602 1 6.99902v-1c50.667 66 103.667 122.5 159 169.5s112 86.5 170 118.5s117.667 57.333 179 76s123.666 33 186.999 43s127.5 16.5 192.5 19.5
s130.5 4.5 196.5 4.5c21.333 0 43 -0.166992 65 -0.5s43.667 -0.5 65 -0.5c22 -0.666992 43.833 -1 65.5 -1h64.5c60.667 0 121.167 1.16699 181.5 3.5s120.5 7.83301 180.5 16.5l58.5 138.5c20.333 46.333 41.166 91.5 62.499 135.5c17.333 34 36.333 69.333 57 106
s42.667 72.667 66 108s47.833 68.833 73.5 100.5s52 59.667 79 84s54.5 43.5 82.5 57.5s56 21 84 21c40.667 0 72.667 -14.167 96 -42.5s35 -65.5 35 -111.5c0 -24 -4 -50.5 -12 -79.5s-20 -59.167 -36 -90.5s-36.167 -63.333 -60.5 -96s-52.833 -64.334 -85.5 -95.001z
M578.001 1136c-35.333 -8.66699 -70.167 -27.3311 -104.5 -55.998s-67.666 -63.334 -99.999 -104.001s-63.166 -85.834 -92.499 -135.501s-56.5 -99.667 -81.5 -150s-48 -99.5 -69 -147.5s-38.833 -90.667 -53.5 -128c44.667 9.33301 91.167 24.5 139.5 45.5
s95.833 46 142.5 75s91.167 61.667 133.5 98s79.333 74.833 111 115.5s56.834 83 75.501 127s28 88 28 132c0 16.667 -2.33301 32.834 -7 48.501s-11.334 29.667 -20.001 42s-19.334 22.166 -32.001 29.499s-27.334 11 -44.001 11c-9.33301 0 -18 -1 -26 -3z" />
    <glyph glyph-name="i.005" unicode="&#xe071;" horiz-adv-x="252" 
d="M-2147 -242c-2 -2 -4.33691 -3.00195 -7.00391 -3.00195c-6 0 -9 3.33301 -9 10c0 3.33301 0.666992 5.66602 2 6.99902v-1c51.333 67.333 105 124.666 161 171.999s113.667 87.166 173 119.499s120.166 57.833 182.499 76.5s125.833 33 190.5 43s130 16.333 196 19
s132.667 4 200 4h113c18.667 0 37.5 -0.166992 56.5 -0.5s38.167 -0.5 57.5 -0.5c74 0 147.833 1.83301 221.5 5.5s146.667 11.667 219 24s143.5 30.666 213.5 54.999s138.667 57.5 206 99.5h-1c1.33301 1.33301 5.66602 2 12.999 2h5c4 0 8 -0.333008 12 -1
s6 -3.33398 6 -8.00098c-1.33301 -2 -4.83301 -9.16699 -10.5 -21.5s-12.334 -27.833 -20.001 -46.5l-25 -62.5c-9 -23 -17.167 -46 -24.5 -69s-13.5 -45 -18.5 -66s-7.5 -39.167 -7.5 -54.5c0 -23.333 6.66699 -35 20 -35c12.667 0 28.834 6.66699 48.501 20
s41.667 32.333 66 57s50 54 77 88s54.5 71.667 82.5 113c2.66699 2.66699 4.66699 4 6 4c2 0 4.33301 -1.16699 7 -3.5s3.33398 -5.16602 2.00098 -8.49902c-64.667 -97.333 -122.667 -170.166 -174 -218.499s-92.666 -72.5 -123.999 -72.5c-18 0 -30.5 6.16699 -37.5 18.5
s-10.5 27.833 -10.5 46.5c0 19.333 3.33301 42 10 68s14.834 52.5 24.501 79.5s19.667 52.833 30 77.5s19.5 45.334 27.5 62.001c-65.333 -40 -132.5 -71.667 -201.5 -95s-139.667 -40.666 -212 -51.999s-145.666 -18.5 -219.999 -21.5s-149.166 -4.5 -224.499 -4.5h-188
c-68.667 0 -137 -1.16699 -205 -3.5s-135 -8.16602 -201 -17.499s-130.667 -23.166 -194 -41.499s-124.833 -43.166 -184.5 -74.499s-117.167 -70.5 -172.5 -117.5s-107.666 -103.833 -156.999 -170.5v-1zM55.9961 435.998c11.333 0 18.001 -2.99902 20.001 -8.99902
s3 -10.333 3 -13c0 -11.333 -3.16699 -17.833 -9.5 -19.5s-10.833 -2.5 -13.5 -2.5c-10.667 0 -16.834 3 -18.501 9s-2.5 10.667 -2.5 14c1.33301 9.33301 4.33301 15.166 9 17.499s8.66699 3.5 12 3.5z" />
    </font>
</defs>
</svg>
